URWGroteskGPL-Regular.ufo
<glyph name="exclam" format="2">
  <advance width="267"/>
  <unicode hex="0021"/>
  <outline>
    <contour>
      <point x="78" y="667" type="line"/>
      <point x="78" y="488" type="line"/>
      <point x="98" y="208" type="line"/>
      <point x="169" y="208" type="line"/>
      <point x="189" y="488" type="line"/>
      <point x="189" y="667" type="line"/>
    </contour>
    <contour>
      <point x="133" y="123" type="curve" smooth="yes"/>
      <point x="95" y="123"/>
      <point x="65" y="93"/>
      <point x="65" y="56" type="curve" smooth="yes"/>
      <point x="65" y="17"/>
      <point x="95" y="-13"/>
      <point x="133" y="-13" type="curve" smooth="yes"/>
      <point x="171" y="-13"/>
      <point x="201" y="17"/>
      <point x="201" y="55" type="curve" smooth="yes"/>
      <point x="201" y="93"/>
      <point x="171" y="123"/>
    </contour>
  </outline>
</glyph>
<glyph name="quotedbl" format="2">
  <advance width="356"/>
  <unicode hex="0022"/>
  <outline>
    <contour>
      <point x="134" y="399" type="line"/>
      <point x="150" y="667" type="line"/>
      <point x="49" y="667" type="line"/>
      <point x="65" y="399" type="line"/>
    </contour>
    <contour>
      <point x="290" y="399" type="line"/>
      <point x="306" y="667" type="line"/>
      <point x="206" y="667" type="line"/>
      <point x="221" y="399" type="line"/>
    </contour>
  </outline>
</glyph>
<glyph name="numbersign" format="2">
  <advance width="454"/>
  <unicode hex="0023"/>
  <outline>
    <contour>
      <point x="30" y="216" type="line"/>
      <point x="15" y="140" type="line"/>
      <point x="95" y="140" type="line"/>
      <point x="66" y="0" type="line"/>
      <point x="114" y="0" type="line"/>
      <point x="141" y="140" type="line" name="hr02"/>
      <point x="241" y="140" type="line"/>
      <point x="213" y="0" type="line" name="hr03"/>
      <point x="261" y="0" type="line"/>
      <point x="288" y="140" type="line" name="hr04"/>
      <point x="367" y="140" type="line"/>
      <point x="381" y="216" type="line"/>
      <point x="301" y="216" type="line"/>
      <point x="349" y="468" type="line"/>
      <point x="427" y="468" type="line"/>
      <point x="441" y="543" type="line"/>
      <point x="362" y="543" type="line"/>
      <point x="387" y="667" type="line" name="hr05"/>
      <point x="341" y="667" type="line"/>
      <point x="317" y="543" type="line" name="hr06"/>
      <point x="217" y="543" type="line"/>
      <point x="242" y="667" type="line" name="hr07"/>
      <point x="197" y="667" type="line"/>
      <point x="172" y="543" type="line" name="hr08"/>
      <point x="92" y="543" type="line"/>
      <point x="77" y="468" type="line"/>
      <point x="159" y="468" type="line"/>
      <point x="108" y="216" type="line"/>
    </contour>
    <contour>
      <point x="156" y="216" type="line"/>
      <point x="204" y="468" type="line"/>
      <point x="303" y="468" type="line"/>
      <point x="255" y="216" type="line"/>
    </contour>
  </outline>
</glyph>
<glyph name="dollar" format="2">
  <advance width="583"/>
  <unicode hex="0024"/>
  <outline>
    <contour>
      <point x="252" y="746" type="line"/>
      <point x="252" y="672" type="line"/>
      <point x="140" y="662"/>
      <point x="66" y="588"/>
      <point x="66" y="486" type="curve" smooth="yes"/>
      <point x="66" y="390"/>
      <point x="121" y="332"/>
      <point x="252" y="288" type="curve"/>
      <point x="252" y="81" type="line"/>
      <point x="195" y="88"/>
      <point x="159" y="121"/>
      <point x="145" y="177" type="curve"/>
      <point x="36" y="121" type="line"/>
      <point x="78" y="30"/>
      <point x="141" y="-8"/>
      <point x="252" y="-8" type="curve"/>
      <point x="252" y="-114" type="line"/>
      <point x="305" y="-114" type="line"/>
      <point x="305" y="-7" type="line"/>
      <point x="362" y="-1"/>
      <point x="394" y="9"/>
      <point x="426" y="30" type="curve" smooth="yes"/>
      <point x="479" y="64"/>
      <point x="513" y="126"/>
      <point x="513" y="186" type="curve" smooth="yes"/>
      <point x="513" y="277"/>
      <point x="444" y="344"/>
      <point x="305" y="389" type="curve"/>
      <point x="305" y="584" type="line"/>
      <point x="351" y="579"/>
      <point x="373" y="558"/>
      <point x="387" y="507" type="curve"/>
      <point x="490" y="555" type="line"/>
      <point x="464" y="631"/>
      <point x="398" y="673"/>
      <point x="305" y="673" type="curve"/>
      <point x="305" y="746" type="line"/>
    </contour>
    <contour>
      <point x="252" y="409" type="line"/>
      <point x="204" y="427"/>
      <point x="179" y="458"/>
      <point x="179" y="499" type="curve" smooth="yes"/>
      <point x="179" y="544"/>
      <point x="210" y="579"/>
      <point x="252" y="583" type="curve"/>
    </contour>
    <contour>
      <point x="305" y="270" type="line"/>
      <point x="358" y="252"/>
      <point x="391" y="216"/>
      <point x="391" y="174" type="curve" smooth="yes"/>
      <point x="391" y="149"/>
      <point x="380" y="120"/>
      <point x="363" y="104" type="curve" smooth="yes"/>
      <point x="349" y="90"/>
      <point x="333" y="84"/>
      <point x="305" y="81" type="curve"/>
    </contour>
  </outline>
</glyph>
<glyph name="percent" format="2">
  <advance width="752"/>
  <unicode hex="0025"/>
  <outline>
    <contour>
      <point x="218" y="670" type="curve" smooth="yes"/>
      <point x="122" y="670"/>
      <point x="70" y="613"/>
      <point x="70" y="510" type="curve" smooth="yes"/>
      <point x="70" y="405"/>
      <point x="120" y="350"/>
      <point x="216" y="350" type="curve" smooth="yes"/>
      <point x="314" y="350"/>
      <point x="365" y="404"/>
      <point x="365" y="508" type="curve" smooth="yes"/>
      <point x="365" y="614"/>
      <point x="314" y="670"/>
    </contour>
    <contour>
      <point x="218" y="620" type="curve" smooth="yes"/>
      <point x="264" y="620"/>
      <point x="287" y="583"/>
      <point x="287" y="510" type="curve" smooth="yes"/>
      <point x="287" y="438"/>
      <point x="264" y="401"/>
      <point x="218" y="401" type="curve" smooth="yes"/>
      <point x="172" y="401"/>
      <point x="149" y="438"/>
      <point x="149" y="512" type="curve" smooth="yes"/>
      <point x="149" y="583"/>
      <point x="172" y="620"/>
    </contour>
    <contour>
      <point x="644" y="700" type="line"/>
      <point x="595" y="710" type="line"/>
      <point x="69" y="-97" type="line"/>
      <point x="120" y="-105" type="line"/>
    </contour>
    <contour>
      <point x="534" y="319" type="curve" smooth="yes"/>
      <point x="439" y="319"/>
      <point x="386" y="262"/>
      <point x="386" y="159" type="curve" smooth="yes"/>
      <point x="386" y="53"/>
      <point x="437" y="-2"/>
      <point x="533" y="-2" type="curve" smooth="yes"/>
      <point x="631" y="-2"/>
      <point x="682" y="53"/>
      <point x="682" y="156" type="curve" smooth="yes"/>
      <point x="682" y="262"/>
      <point x="631" y="319"/>
    </contour>
    <contour>
      <point x="535" y="269" type="curve" smooth="yes"/>
      <point x="581" y="269"/>
      <point x="604" y="232"/>
      <point x="604" y="159" type="curve" smooth="yes"/>
      <point x="604" y="86"/>
      <point x="581" y="49"/>
      <point x="535" y="49" type="curve" smooth="yes"/>
      <point x="488" y="49"/>
      <point x="465" y="86"/>
      <point x="465" y="160" type="curve" smooth="yes"/>
      <point x="465" y="232"/>
      <point x="489" y="269"/>
    </contour>
  </outline>
</glyph>
<glyph name="ampersand" format="2">
  <advance width="688"/>
  <unicode hex="0026"/>
  <outline>
    <contour>
      <point x="512" y="358" type="line"/>
      <point x="512" y="346" type="line" smooth="yes"/>
      <point x="512" y="294"/>
      <point x="500" y="255"/>
      <point x="470" y="206" type="curve"/>
      <point x="418" y="248"/>
      <point x="377" y="291"/>
      <point x="334" y="348" type="curve"/>
      <point x="388" y="374"/>
      <point x="409" y="388"/>
      <point x="435" y="414" type="curve" smooth="yes"/>
      <point x="466" y="446"/>
      <point x="484" y="491"/>
      <point x="484" y="537" type="curve" smooth="yes"/>
      <point x="484" y="624"/>
      <point x="421" y="680"/>
      <point x="322" y="680" type="curve" smooth="yes"/>
      <point x="210" y="680"/>
      <point x="134" y="611"/>
      <point x="134" y="509" type="curve" smooth="yes"/>
      <point x="134" y="463"/>
      <point x="147" y="425"/>
      <point x="182" y="370" type="curve"/>
      <point x="85" y="334"/>
      <point x="41" y="278" name="hr01"/>
      <point x="41" y="193" type="curve" smooth="yes"/>
      <point x="41" y="73"/>
      <point x="135" y="-13"/>
      <point x="267" y="-13" type="curve" smooth="yes"/>
      <point x="344" y="-13"/>
      <point x="402" y="10"/>
      <point x="474" y="69" type="curve"/>
      <point x="524" y="33"/>
      <point x="548" y="21"/>
      <point x="610" y="-4" type="curve"/>
      <point x="681" y="98" type="line"/>
      <point x="611" y="118"/>
      <point x="595" y="125"/>
      <point x="553" y="152" type="curve"/>
      <point x="603" y="225"/>
      <point x="622" y="279"/>
      <point x="627" y="358" type="curve"/>
    </contour>
    <contour>
      <point x="276" y="413" type="line"/>
      <point x="246" y="454"/>
      <point x="235" y="482" name="hr02"/>
      <point x="235" y="516" type="curve" smooth="yes"/>
      <point x="235" y="570"/>
      <point x="268" y="606"/>
      <point x="318" y="606" type="curve" smooth="yes"/>
      <point x="360" y="606"/>
      <point x="388" y="578"/>
      <point x="388" y="535" type="curve" smooth="yes"/>
      <point x="388" y="490"/>
      <point x="359" y="453"/>
      <point x="303" y="426" type="curve" smooth="yes"/>
    </contour>
    <contour>
      <point x="234" y="301" type="curve"/>
      <point x="277" y="241"/>
      <point x="339" y="176"/>
      <point x="397" y="131" type="curve"/>
      <point x="357" y="94"/>
      <point x="324" y="80"/>
      <point x="280" y="80" type="curve" smooth="yes"/>
      <point x="212" y="80"/>
      <point x="157" y="131" name="hr03"/>
      <point x="157" y="193" type="curve" smooth="yes"/>
      <point x="157" y="240"/>
      <point x="181" y="274"/>
    </contour>
  </outline>
</glyph>
<glyph name="quotesingle" format="2">
  <advance width="199"/>
  <unicode hex="0027"/>
  <outline>
    <contour>
      <point x="134" y="399" type="line"/>
      <point x="150" y="667" type="line"/>
      <point x="49" y="667" type="line"/>
      <point x="65" y="399" type="line"/>
    </contour>
  </outline>
</glyph>
<glyph name="parenleft" format="2">
  <advance width="293"/>
  <unicode hex="0028"/>
  <outline>
    <contour>
      <point x="191" y="700" type="line"/>
      <point x="144" y="645"/>
      <point x="122" y="610"/>
      <point x="100" y="557" type="curve" smooth="yes"/>
      <point x="64" y="466"/>
      <point x="45" y="360"/>
      <point x="45" y="243" type="curve" smooth="yes"/>
      <point x="45" y="129"/>
      <point x="63" y="25"/>
      <point x="97" y="-66" type="curve" smooth="yes"/>
      <point x="121" y="-128"/>
      <point x="143" y="-164"/>
      <point x="193" y="-218" type="curve"/>
      <point x="264" y="-214" type="line"/>
      <point x="221" y="-157"/>
      <point x="205" y="-124"/>
      <point x="186" y="-56" type="curve" smooth="yes"/>
      <point x="160" y="37"/>
      <point x="148" y="137"/>
      <point x="148" y="253" type="curve" smooth="yes"/>
      <point x="148" y="368"/>
      <point x="160" y="460"/>
      <point x="187" y="549" type="curve" smooth="yes"/>
      <point x="205" y="610"/>
      <point x="221" y="641"/>
      <point x="263" y="696" type="curve"/>
    </contour>
  </outline>
</glyph>
<glyph name="parenright" format="2">
  <advance width="293"/>
  <unicode hex="0029"/>
  <outline>
    <contour>
      <point x="102" y="-218" type="line"/>
      <point x="149" y="-163"/>
      <point x="172" y="-129"/>
      <point x="193" y="-75" type="curve" smooth="yes"/>
      <point x="230" y="16"/>
      <point x="248" y="120"/>
      <point x="248" y="239" type="curve" smooth="yes"/>
      <point x="248" y="354"/>
      <point x="231" y="457"/>
      <point x="196" y="548" type="curve" smooth="yes"/>
      <point x="173" y="609"/>
      <point x="150" y="646"/>
      <point x="100" y="700" type="curve"/>
      <point x="29" y="695" type="line"/>
      <point x="72" y="639"/>
      <point x="88" y="606"/>
      <point x="108" y="538" type="curve"/>
      <point x="134" y="444"/>
      <point x="146" y="347"/>
      <point x="146" y="229" type="curve" smooth="yes"/>
      <point x="146" y="113"/>
      <point x="134" y="21"/>
      <point x="107" y="-67" type="curve" smooth="yes"/>
      <point x="88" y="-128"/>
      <point x="72" y="-159"/>
      <point x="31" y="-214" type="curve"/>
    </contour>
  </outline>
</glyph>
<glyph name="asterisk" format="2">
  <advance width="411"/>
  <unicode hex="002A"/>
  <outline>
    <contour>
      <point x="205" y="475" type="line"/>
      <point x="304" y="371" type="line"/>
      <point x="321" y="386" type="line"/>
      <point x="248" y="504" type="line"/>
      <point x="375" y="565" type="line"/>
      <point x="367" y="587" type="line"/>
      <point x="233" y="558" type="line"/>
      <point x="216" y="703" type="line"/>
      <point x="194" y="703" type="line"/>
      <point x="177" y="558" type="line"/>
      <point x="43" y="587" type="line"/>
      <point x="35" y="565" type="line"/>
      <point x="161" y="504" type="line"/>
      <point x="87" y="386" type="line"/>
      <point x="105" y="371" type="line"/>
    </contour>
  </outline>
</glyph>
<glyph name="plus" format="2">
  <advance width="564"/>
  <unicode hex="002B"/>
  <outline>
    <contour>
      <point x="53" y="367" type="line"/>
      <point x="53" y="315" type="line"/>
      <point x="251" y="315" type="line"/>
      <point x="251" y="103" type="line"/>
      <point x="310" y="103" type="line"/>
      <point x="310" y="315" type="line"/>
      <point x="510" y="315" type="line"/>
      <point x="510" y="367" type="line"/>
      <point x="310" y="367" type="line"/>
      <point x="310" y="580" type="line"/>
      <point x="251" y="580" type="line"/>
      <point x="251" y="367" type="line"/>
    </contour>
  </outline>
</glyph>
<glyph name="comma" format="2">
  <advance width="249"/>
  <unicode hex="002C"/>
  <outline>
    <contour>
      <point x="179" y="136" type="line"/>
      <point x="77" y="136" type="line"/>
      <point x="77" y="57" type="line" smooth="yes"/>
      <point x="77" y="35"/>
      <point x="71" y="7"/>
      <point x="55" y="-39" type="curve" smooth="yes"/>
      <point x="20" y="-140" type="line"/>
      <point x="82" y="-136" type="line"/>
      <point x="179" y="19" type="line"/>
    </contour>
  </outline>
</glyph>
<glyph name="hyphen" format="2">
  <advance width="230"/>
  <unicode hex="002D"/>
  <outline>
    <contour>
      <point x="0" y="279" type="line"/>
      <point x="0" y="202" type="line"/>
      <point x="230" y="202" type="line"/>
      <point x="230" y="279" type="line"/>
    </contour>
  </outline>
</glyph>
<glyph name="period" format="2">
  <advance width="249"/>
  <unicode hex="002E"/>
  <outline>
    <contour>
      <point x="124" y="123" type="curve" smooth="yes"/>
      <point x="86" y="123"/>
      <point x="56" y="93"/>
      <point x="56" y="56" type="curve" smooth="yes"/>
      <point x="56" y="17"/>
      <point x="86" y="-13"/>
      <point x="124" y="-13" type="curve" smooth="yes"/>
      <point x="162" y="-13"/>
      <point x="192" y="17"/>
      <point x="192" y="55" type="curve" smooth="yes"/>
      <point x="192" y="93"/>
      <point x="162" y="123"/>
    </contour>
  </outline>
</glyph>
<glyph name="slash" format="2">
  <advance width="416"/>
  <unicode hex="002F"/>
  <outline>
    <contour>
      <point x="382" y="700" type="line"/>
      <point x="325" y="710" type="line"/>
      <point x="-19" y="-219" type="line"/>
      <point x="39" y="-228" type="line"/>
    </contour>
  </outline>
</glyph>
<glyph name="zero" format="2">
  <advance width="563"/>
  <unicode hex="0030"/>
  <outline>
    <contour>
      <point x="285" y="680" type="curve" smooth="yes"/>
      <point x="125" y="680"/>
      <point x="41" y="560"/>
      <point x="41" y="332" type="curve" smooth="yes"/>
      <point x="41" y="110"/>
      <point x="126" y="-13"/>
      <point x="281" y="-13" type="curve" smooth="yes"/>
      <point x="436" y="-13"/>
      <point x="521" y="110"/>
      <point x="521" y="333" type="curve" smooth="yes"/>
      <point x="521" y="556"/>
      <point x="436" y="680"/>
    </contour>
    <contour>
      <point x="283" y="590" type="curve" smooth="yes"/>
      <point x="361" y="590"/>
      <point x="404" y="498"/>
      <point x="404" y="333" type="curve" smooth="yes"/>
      <point x="404" y="167"/>
      <point x="361" y="77"/>
      <point x="281" y="77" type="curve" smooth="yes"/>
      <point x="202" y="77"/>
      <point x="158" y="168"/>
      <point x="158" y="331" type="curve" smooth="yes"/>
      <point x="158" y="419"/>
      <point x="170" y="486"/>
      <point x="195" y="535" type="curve" smooth="yes"/>
      <point x="214" y="572"/>
      <point x="243" y="590"/>
    </contour>
  </outline>
</glyph>
<glyph name="one" format="2">
  <advance width="563"/>
  <unicode hex="0031"/>
  <outline>
    <contour>
      <point x="402" y="667" type="line"/>
      <point x="318" y="667" type="line"/>
      <point x="284" y="592"/>
      <point x="235" y="567"/>
      <point x="109" y="557" type="curve"/>
      <point x="109" y="487" type="line"/>
      <point x="286" y="497" type="line"/>
      <point x="286" y="0" type="line"/>
      <point x="402" y="0" type="line"/>
    </contour>
  </outline>
</glyph>
<glyph name="two" format="2">
  <advance width="563"/>
  <unicode hex="0032"/>
  <outline>
    <contour>
      <point x="498" y="96" type="line"/>
      <point x="214" y="96" type="line"/>
      <point x="327" y="211"/>
      <point x="366" y="256"/>
      <point x="413" y="324" type="curve" smooth="yes"/>
      <point x="454" y="385"/>
      <point x="474" y="444"/>
      <point x="474" y="503" type="curve" smooth="yes"/>
      <point x="474" y="617"/>
      <point x="401" y="680"/>
      <point x="269" y="680" type="curve" smooth="yes"/>
      <point x="208" y="680"/>
      <point x="163" y="666"/>
      <point x="131" y="636" type="curve" smooth="yes"/>
      <point x="104" y="610"/>
      <point x="90" y="585"/>
      <point x="69" y="523" type="curve"/>
      <point x="170" y="465" type="line"/>
      <point x="177" y="510"/>
      <point x="182" y="527"/>
      <point x="195" y="547" type="curve" smooth="yes"/>
      <point x="210" y="570"/>
      <point x="237" y="583"/>
      <point x="267" y="583" type="curve" smooth="yes"/>
      <point x="322" y="583"/>
      <point x="356" y="548"/>
      <point x="356" y="490" type="curve" smooth="yes"/>
      <point x="356" y="384"/>
      <point x="289" y="291"/>
      <point x="65" y="86" type="curve"/>
      <point x="65" y="0" type="line"/>
      <point x="498" y="0" type="line"/>
    </contour>
  </outline>
</glyph>
<glyph name="three" format="2">
  <advance width="563"/>
  <unicode hex="0033"/>
  <outline>
    <contour>
      <point x="195" y="306" type="line"/>
      <point x="214" y="308"/>
      <point x="235" y="310"/>
      <point x="245" y="310" type="curve" smooth="yes"/>
      <point x="317" y="310"/>
      <point x="364" y="267"/>
      <point x="364" y="200" type="curve" smooth="yes"/>
      <point x="364" y="130"/>
      <point x="319" y="82"/>
      <point x="252" y="82" type="curve" smooth="yes"/>
      <point x="196" y="82"/>
      <point x="161" y="109"/>
      <point x="137" y="170" type="curve"/>
      <point x="36" y="118" type="line"/>
      <point x="63" y="71"/>
      <point x="77" y="52"/>
      <point x="98" y="33" type="curve" smooth="yes"/>
      <point x="133" y="3"/>
      <point x="184" y="-13"/>
      <point x="247" y="-13" type="curve" smooth="yes"/>
      <point x="391" y="-13"/>
      <point x="485" y="73"/>
      <point x="485" y="206" type="curve" smooth="yes"/>
      <point x="485" y="251"/>
      <point x="473" y="286"/>
      <point x="446" y="315" type="curve" smooth="yes"/>
      <point x="423" y="341"/>
      <point x="403" y="352"/>
      <point x="358" y="363" type="curve"/>
      <point x="424" y="400"/>
      <point x="455" y="450" name="hr01"/>
      <point x="455" y="518" type="curve" smooth="yes"/>
      <point x="455" y="618"/>
      <point x="378" y="680"/>
      <point x="255" y="680" type="curve" smooth="yes"/>
      <point x="152" y="680"/>
      <point x="100" y="644"/>
      <point x="67" y="551" type="curve"/>
      <point x="167" y="507" type="line"/>
      <point x="182" y="564"/>
      <point x="209" y="589"/>
      <point x="256" y="589" type="curve" smooth="yes"/>
      <point x="306" y="589"/>
      <point x="336" y="557"/>
      <point x="336" y="504" type="curve" smooth="yes"/>
      <point x="336" y="440"/>
      <point x="288" y="399"/>
      <point x="213" y="399" type="curve" smooth="yes"/>
      <point x="210" y="399"/>
      <point x="203" y="399"/>
      <point x="195" y="400" type="curve"/>
    </contour>
  </outline>
</glyph>
<glyph name="four" format="2">
  <advance width="563"/>
  <unicode hex="0034"/>
  <outline>
    <contour>
      <point x="438" y="667" type="line"/>
      <point x="311" y="667" type="line"/>
      <point x="38" y="234" type="line"/>
      <point x="38" y="144" type="line"/>
      <point x="329" y="144" type="line"/>
      <point x="329" y="0" type="line"/>
      <point x="438" y="0" type="line"/>
      <point x="438" y="144" type="line"/>
      <point x="528" y="144" type="line"/>
      <point x="528" y="234" type="line"/>
      <point x="438" y="234" type="line"/>
    </contour>
    <contour>
      <point x="329" y="555" type="line"/>
      <point x="329" y="234" type="line"/>
      <point x="141" y="234" type="line"/>
    </contour>
  </outline>
</glyph>
<glyph name="five" format="2">
  <advance width="563"/>
  <unicode hex="0035"/>
  <outline>
    <contour>
      <point x="481" y="667" type="line"/>
      <point x="132" y="667" type="line"/>
      <point x="86" y="328" type="line"/>
      <point x="181" y="294" type="line"/>
      <point x="209" y="334"/>
      <point x="234" y="348"/>
      <point x="275" y="348" type="curve" smooth="yes"/>
      <point x="344" y="348"/>
      <point x="387" y="299"/>
      <point x="387" y="221" type="curve" smooth="yes"/>
      <point x="387" y="139"/>
      <point x="332" y="79"/>
      <point x="257" y="79" type="curve" smooth="yes"/>
      <point x="205" y="79"/>
      <point x="169" y="106"/>
      <point x="147" y="162" type="curve"/>
      <point x="45" y="113" type="line"/>
      <point x="66" y="69"/>
      <point x="82" y="50"/>
      <point x="113" y="28" type="curve" smooth="yes"/>
      <point x="152" y="0"/>
      <point x="198" y="-13"/>
      <point x="256" y="-13" type="curve" smooth="yes"/>
      <point x="409" y="-13"/>
      <point x="508" y="83"/>
      <point x="508" y="233" type="curve" smooth="yes"/>
      <point x="508" y="356"/>
      <point x="429" y="438"/>
      <point x="311" y="438" type="curve" smooth="yes"/>
      <point x="263" y="438"/>
      <point x="232" y="427"/>
      <point x="195" y="397" type="curve"/>
      <point x="223" y="576" type="line"/>
      <point x="481" y="576" type="line"/>
    </contour>
  </outline>
</glyph>
<glyph name="six" format="2">
  <advance width="563"/>
  <unicode hex="0036"/>
  <outline>
    <contour>
      <point x="487" y="616" type="line"/>
      <point x="435" y="666"/>
      <point x="402" y="680"/>
      <point x="336" y="680" type="curve" smooth="yes"/>
      <point x="161" y="680"/>
      <point x="60" y="537"/>
      <point x="60" y="290" type="curve" smooth="yes"/>
      <point x="60" y="197"/>
      <point x="76" y="130"/>
      <point x="110" y="79" type="curve" smooth="yes"/>
      <point x="150" y="20"/>
      <point x="215" y="-13"/>
      <point x="292" y="-13" type="curve" smooth="yes"/>
      <point x="421" y="-13"/>
      <point x="509" y="81"/>
      <point x="509" y="218" type="curve" smooth="yes"/>
      <point x="509" y="343"/>
      <point x="438" y="423"/>
      <point x="325" y="423" type="curve" smooth="yes"/>
      <point x="266" y="423"/>
      <point x="224" y="404"/>
      <point x="179" y="357" type="curve"/>
      <point x="185" y="437"/>
      <point x="195" y="477"/>
      <point x="216" y="514" type="curve" smooth="yes"/>
      <point x="244" y="565"/>
      <point x="287" y="593"/>
      <point x="337" y="593" type="curve" smooth="yes"/>
      <point x="378" y="593"/>
      <point x="402" y="579"/>
      <point x="424" y="540" type="curve"/>
    </contour>
    <contour>
      <point x="291" y="336" type="curve" smooth="yes"/>
      <point x="357" y="336"/>
      <point x="393" y="291"/>
      <point x="393" y="209" type="curve" smooth="yes"/>
      <point x="393" y="128"/>
      <point x="351" y="77"/>
      <point x="284" y="77" type="curve" smooth="yes"/>
      <point x="220" y="77"/>
      <point x="178" y="128"/>
      <point x="178" y="208" type="curve" smooth="yes"/>
      <point x="178" y="287"/>
      <point x="221" y="336"/>
    </contour>
  </outline>
</glyph>
<glyph name="seven" format="2">
  <advance width="563"/>
  <unicode hex="0037"/>
  <outline>
    <contour>
      <point x="499" y="667" type="line"/>
      <point x="70" y="667" type="line"/>
      <point x="70" y="576" type="line"/>
      <point x="373" y="576" type="line"/>
      <point x="105" y="0" type="line"/>
      <point x="230" y="0" type="line"/>
      <point x="499" y="584" type="line"/>
    </contour>
  </outline>
</glyph>
<glyph name="eight" format="2">
  <advance width="563"/>
  <unicode hex="0038"/>
  <outline>
    <contour>
      <point x="163" y="364" type="curve"/>
      <point x="126" y="349"/>
      <point x="110" y="338"/>
      <point x="93" y="316" type="curve" smooth="yes"/>
      <point x="69" y="285"/>
      <point x="56" y="242"/>
      <point x="56" y="194" type="curve" smooth="yes"/>
      <point x="56" y="133"/>
      <point x="78" y="77" name="hr01"/>
      <point x="115" y="41" type="curve" smooth="yes"/>
      <point x="154" y="4"/>
      <point x="207" y="-13"/>
      <point x="281" y="-13" type="curve" smooth="yes"/>
      <point x="356" y="-13"/>
      <point x="409" y="4"/>
      <point x="448" y="41" type="curve" smooth="yes"/>
      <point x="485" y="77"/>
      <point x="507" y="133" name="hr02"/>
      <point x="507" y="194" type="curve" smooth="yes"/>
      <point x="507" y="241"/>
      <point x="494" y="285"/>
      <point x="470" y="316" type="curve" smooth="yes"/>
      <point x="453" y="338"/>
      <point x="437" y="349"/>
      <point x="400" y="364" type="curve"/>
      <point x="460" y="402"/>
      <point x="485" y="444" name="hr03"/>
      <point x="485" y="506" type="curve" smooth="yes"/>
      <point x="485" y="615"/>
      <point x="409" y="680"/>
      <point x="282" y="680" type="curve" smooth="yes"/>
      <point x="155" y="680"/>
      <point x="78" y="614"/>
      <point x="78" y="506" type="curve" smooth="yes"/>
      <point x="78" y="444"/>
      <point x="103" y="403"/>
    </contour>
    <contour>
      <point x="282" y="592" type="curve" smooth="yes"/>
      <point x="340" y="592"/>
      <point x="376" y="556"/>
      <point x="376" y="497" type="curve" smooth="yes"/>
      <point x="376" y="436"/>
      <point x="340" y="399"/>
      <point x="281" y="399" type="curve" smooth="yes"/>
      <point x="224" y="399"/>
      <point x="188" y="437"/>
      <point x="188" y="497" type="curve" smooth="yes"/>
      <point x="188" y="556"/>
      <point x="224" y="592"/>
    </contour>
    <contour>
      <point x="283" y="316" type="curve" smooth="yes"/>
      <point x="351" y="316"/>
      <point x="392" y="271"/>
      <point x="392" y="197" type="curve" smooth="yes"/>
      <point x="392" y="122" name="hr04"/>
      <point x="350" y="76"/>
      <point x="282" y="76" type="curve" smooth="yes"/>
      <point x="213" y="76"/>
      <point x="171" y="122"/>
      <point x="171" y="197" type="curve" smooth="yes"/>
      <point x="171" y="273"/>
      <point x="212" y="316"/>
    </contour>
  </outline>
</glyph>
<glyph name="nine" format="2">
  <advance width="563"/>
  <unicode hex="0039"/>
  <outline>
    <contour>
      <point x="66" y="29" type="line"/>
      <point x="108" y="-3"/>
      <point x="141" y="-13"/>
      <point x="203" y="-13" type="curve" smooth="yes"/>
      <point x="293" y="-13"/>
      <point x="359" y="14"/>
      <point x="408" y="70" type="curve" smooth="yes"/>
      <point x="470" y="141"/>
      <point x="499" y="240"/>
      <point x="499" y="376" type="curve" smooth="yes"/>
      <point x="499" y="586"/>
      <point x="430" y="680"/>
      <point x="275" y="680" type="curve" smooth="yes"/>
      <point x="139" y="680"/>
      <point x="54" y="590"/>
      <point x="54" y="445" type="curve" smooth="yes"/>
      <point x="54" y="318"/>
      <point x="126" y="238"/>
      <point x="240" y="238" type="curve" smooth="yes"/>
      <point x="297" y="238"/>
      <point x="337" y="256"/>
      <point x="381" y="302" type="curve"/>
      <point x="370" y="213"/>
      <point x="358" y="175"/>
      <point x="326" y="134" type="curve" smooth="yes"/>
      <point x="297" y="97"/>
      <point x="250" y="74"/>
      <point x="203" y="74" type="curve" smooth="yes"/>
      <point x="168" y="74"/>
      <point x="146" y="83"/>
      <point x="118" y="110" type="curve"/>
    </contour>
    <contour>
      <point x="278" y="590" type="curve" smooth="yes"/>
      <point x="344" y="590"/>
      <point x="381" y="542"/>
      <point x="381" y="457" type="curve" smooth="yes"/>
      <point x="381" y="377"/>
      <point x="337" y="326"/>
      <point x="268" y="326" type="curve" smooth="yes"/>
      <point x="204" y="326"/>
      <point x="169" y="372"/>
      <point x="169" y="456" type="curve" smooth="yes"/>
      <point x="169" y="541"/>
      <point x="209" y="590"/>
    </contour>
  </outline>
</glyph>
<glyph name="colon" format="2">
  <advance width="249"/>
  <unicode hex="003A"/>
  <outline>
    <contour>
      <point x="124" y="123" type="curve" smooth="yes"/>
      <point x="86" y="123"/>
      <point x="56" y="93"/>
      <point x="56" y="56" type="curve" smooth="yes"/>
      <point x="56" y="17"/>
      <point x="86" y="-13"/>
      <point x="124" y="-13" type="curve" smooth="yes"/>
      <point x="162" y="-13"/>
      <point x="192" y="17"/>
      <point x="192" y="55" type="curve" smooth="yes"/>
      <point x="192" y="93"/>
      <point x="162" y="123"/>
    </contour>
    <contour>
      <point x="124" y="440" type="curve" smooth="yes"/>
      <point x="86" y="440"/>
      <point x="56" y="410"/>
      <point x="56" y="373" type="curve" smooth="yes"/>
      <point x="56" y="334"/>
      <point x="86" y="304"/>
      <point x="124" y="304" type="curve" smooth="yes"/>
      <point x="162" y="304"/>
      <point x="192" y="334"/>
      <point x="192" y="372" type="curve" smooth="yes"/>
      <point x="192" y="410"/>
      <point x="162" y="440"/>
    </contour>
  </outline>
</glyph>
<glyph name="semicolon" format="2">
  <advance width="249"/>
  <unicode hex="003B"/>
  <outline>
    <contour>
      <point x="175" y="136" type="line"/>
      <point x="73" y="136" type="line"/>
      <point x="73" y="57" type="line" smooth="yes"/>
      <point x="73" y="35"/>
      <point x="67" y="7"/>
      <point x="51" y="-39" type="curve" smooth="yes"/>
      <point x="16" y="-140" type="line"/>
      <point x="78" y="-136" type="line"/>
      <point x="175" y="19" type="line"/>
    </contour>
    <contour>
      <point x="122" y="454" type="curve" smooth="yes"/>
      <point x="84" y="454"/>
      <point x="54" y="424" name="hr01"/>
      <point x="54" y="387" type="curve" smooth="yes"/>
      <point x="54" y="348"/>
      <point x="84" y="318"/>
      <point x="122" y="318" type="curve" smooth="yes"/>
      <point x="160" y="318"/>
      <point x="190" y="348"/>
      <point x="190" y="386" type="curve" smooth="yes"/>
      <point x="190" y="424"/>
      <point x="160" y="454"/>
    </contour>
  </outline>
</glyph>
<glyph name="less" format="2">
  <advance width="530"/>
  <unicode hex="003C"/>
  <outline>
    <contour>
      <point x="18" y="204" type="line"/>
      <point x="468" y="20" type="line"/>
      <point x="511" y="69" type="line"/>
      <point x="118" y="224" type="line"/>
      <point x="511" y="379" type="line"/>
      <point x="479" y="427" type="line"/>
      <point x="18" y="246" type="line"/>
    </contour>
  </outline>
</glyph>
<glyph name="equal" format="2">
  <advance width="571"/>
  <unicode hex="003D"/>
  <outline>
    <contour>
      <point x="30" y="321" type="line"/>
      <point x="30" y="264" type="line"/>
      <point x="541" y="264" type="line"/>
      <point x="541" y="321" type="line"/>
    </contour>
    <contour>
      <point x="30" y="185" type="line"/>
      <point x="30" y="127" type="line"/>
      <point x="541" y="127" type="line"/>
      <point x="541" y="185" type="line"/>
    </contour>
  </outline>
</glyph>
<glyph name="greater" format="2">
  <advance width="530"/>
  <unicode hex="003E"/>
  <outline>
    <contour>
      <point x="511" y="361" type="line"/>
      <point x="50" y="541" type="line"/>
      <point x="18" y="494" type="line"/>
      <point x="411" y="339" type="line"/>
      <point x="18" y="184" type="line"/>
      <point x="61" y="135" type="line"/>
      <point x="511" y="319" type="line"/>
    </contour>
  </outline>
</glyph>
<glyph name="question" format="2">
  <advance width="388"/>
  <unicode hex="003F"/>
  <outline>
    <contour>
      <point x="113" y="509" type="line"/>
      <point x="124" y="563"/>
      <point x="145" y="586"/>
      <point x="185" y="586" type="curve" smooth="yes"/>
      <point x="225" y="586"/>
      <point x="253" y="558"/>
      <point x="253" y="518" type="curve" smooth="yes"/>
      <point x="253" y="478"/>
      <point x="234" y="447"/>
      <point x="178" y="400" type="curve" smooth="yes"/>
      <point x="117" y="348"/>
      <point x="98" y="316"/>
      <point x="98" y="266" type="curve" smooth="yes"/>
      <point x="98" y="239"/>
      <point x="105" y="219"/>
      <point x="123" y="195" type="curve"/>
      <point x="221" y="195" type="line"/>
      <point x="203" y="219"/>
      <point x="197" y="235"/>
      <point x="197" y="256" type="curve" smooth="yes"/>
      <point x="197" y="285"/>
      <point x="212" y="312"/>
      <point x="247" y="345" type="curve" smooth="yes"/>
      <point x="314" y="408"/>
      <point x="314" y="408"/>
      <point x="330" y="434" type="curve" smooth="yes"/>
      <point x="349" y="464"/>
      <point x="359" y="500"/>
      <point x="359" y="533" type="curve" smooth="yes"/>
      <point x="359" y="624"/>
      <point x="296" y="680"/>
      <point x="195" y="680" type="curve" smooth="yes"/>
      <point x="142" y="680"/>
      <point x="104" y="668"/>
      <point x="73" y="642" type="curve" smooth="yes"/>
      <point x="46" y="619"/>
      <point x="34" y="599"/>
      <point x="20" y="553" type="curve"/>
    </contour>
    <contour>
      <point x="169" y="123" type="curve" smooth="yes"/>
      <point x="131" y="123"/>
      <point x="101" y="93" name="hr01"/>
      <point x="101" y="56" type="curve" smooth="yes"/>
      <point x="101" y="17"/>
      <point x="131" y="-13"/>
      <point x="169" y="-13" type="curve" smooth="yes"/>
      <point x="207" y="-13"/>
      <point x="237" y="17"/>
      <point x="237" y="55" type="curve" smooth="yes"/>
      <point x="237" y="93"/>
      <point x="207" y="123"/>
    </contour>
  </outline>
</glyph>
<glyph name="at" format="2">
  <advance width="733"/>
  <unicode hex="0040"/>
  <outline>
    <contour>
      <point x="483" y="377" type="line"/>
      <point x="472" y="326" type="line"/>
      <point x="448" y="365"/>
      <point x="409" y="388" name="hr01"/>
      <point x="370" y="388" type="curve" smooth="yes"/>
      <point x="278" y="388"/>
      <point x="196" y="294"/>
      <point x="196" y="188" type="curve" smooth="yes"/>
      <point x="196" y="102"/>
      <point x="252" y="39"/>
      <point x="329" y="39" type="curve" smooth="yes"/>
      <point x="377" y="39"/>
      <point x="427" y="67"/>
      <point x="461" y="113" type="curve"/>
      <point x="470" y="73"/>
      <point x="501" y="48" name="hr02"/>
      <point x="538" y="48" type="curve" smooth="yes"/>
      <point x="626" y="48"/>
      <point x="705" y="157"/>
      <point x="705" y="281" type="curve" smooth="yes"/>
      <point x="705" y="450"/>
      <point x="575" y="569"/>
      <point x="389" y="569" type="curve" smooth="yes"/>
      <point x="191" y="569"/>
      <point x="30" y="409"/>
      <point x="30" y="211" type="curve" smooth="yes"/>
      <point x="30" y="120"/>
      <point x="69" y="27"/>
      <point x="132" y="-33" type="curve" smooth="yes"/>
      <point x="196" y="-91"/>
      <point x="279" y="-122"/>
      <point x="385" y="-122" type="curve" smooth="yes"/>
      <point x="454" y="-122"/>
      <point x="524" y="-112"/>
      <point x="582" y="-94" type="curve"/>
      <point x="565" y="-27" type="line"/>
      <point x="504" y="-46"/>
      <point x="449" y="-56"/>
      <point x="387" y="-56" type="curve" smooth="yes"/>
      <point x="295" y="-56"/>
      <point x="233" y="-33"/>
      <point x="182" y="19" type="curve" smooth="yes"/>
      <point x="136" y="67"/>
      <point x="109" y="138"/>
      <point x="109" y="211" type="curve" smooth="yes"/>
      <point x="109" y="375"/>
      <point x="236" y="504"/>
      <point x="398" y="504" type="curve" smooth="yes"/>
      <point x="545" y="504"/>
      <point x="641" y="415" name="hr03"/>
      <point x="641" y="280" type="curve" smooth="yes"/>
      <point x="641" y="196"/>
      <point x="591" y="106"/>
      <point x="545" y="106" type="curve" smooth="yes"/>
      <point x="526" y="106"/>
      <point x="514" y="121"/>
      <point x="514" y="146" type="curve" smooth="yes"/>
      <point x="514" y="153"/>
      <point x="516" y="171"/>
      <point x="521" y="193" type="curve" smooth="yes"/>
      <point x="561" y="377" type="line"/>
    </contour>
    <contour>
      <point x="384" y="309" type="curve" smooth="yes"/>
      <point x="426" y="309"/>
      <point x="455" y="277"/>
      <point x="455" y="231" type="curve" smooth="yes"/>
      <point x="455" y="171"/>
      <point x="409" y="115"/>
      <point x="359" y="115" type="curve" smooth="yes"/>
      <point x="316" y="115"/>
      <point x="287" y="147"/>
      <point x="287" y="194" type="curve" smooth="yes"/>
      <point x="287" y="255"/>
      <point x="333" y="309"/>
    </contour>
  </outline>
</glyph>
<glyph name="B" format="2">
  <advance width="591"/>
  <unicode hex="0042"/>
  <outline>
    <contour>
      <point x="85" y="0" type="line"/>
      <point x="311" y="0" type="line" smooth="yes"/>
      <point x="370" y="0"/>
      <point x="421" y="12"/>
      <point x="455" y="33" type="curve" smooth="yes"/>
      <point x="509" y="68"/>
      <point x="541" y="130"/>
      <point x="541" y="199" type="curve" smooth="yes"/>
      <point x="541" y="244"/>
      <point x="528" y="283"/>
      <point x="502" y="312" type="curve" smooth="yes"/>
      <point x="482" y="335"/>
      <point x="463" y="347"/>
      <point x="420" y="363" type="curve"/>
      <point x="483" y="400"/>
      <point x="512" y="446" name="hr01"/>
      <point x="512" y="509" type="curve" smooth="yes"/>
      <point x="512" y="562"/>
      <point x="488" y="609"/>
      <point x="447" y="637" type="curve" smooth="yes"/>
      <point x="416" y="659"/>
      <point x="378" y="667"/>
      <point x="310" y="667" type="curve" smooth="yes"/>
      <point x="85" y="667" type="line"/>
    </contour>
    <contour>
      <point x="203" y="392" type="line"/>
      <point x="203" y="575" type="line"/>
      <point x="271" y="575" type="line" smooth="yes"/>
      <point x="317" y="575"/>
      <point x="337" y="571"/>
      <point x="356" y="557" type="curve" smooth="yes"/>
      <point x="374" y="544"/>
      <point x="385" y="520"/>
      <point x="385" y="490" type="curve" smooth="yes"/>
      <point x="385" y="457"/>
      <point x="372" y="428"/>
      <point x="349" y="412" type="curve" smooth="yes"/>
      <point x="330" y="398"/>
      <point x="300" y="392"/>
      <point x="251" y="392" type="curve" smooth="yes"/>
    </contour>
    <contour>
      <point x="203" y="92" type="line"/>
      <point x="203" y="306" type="line"/>
      <point x="262" y="306" type="line" smooth="yes"/>
      <point x="311" y="306"/>
      <point x="332" y="304"/>
      <point x="350" y="297" type="curve" smooth="yes"/>
      <point x="389" y="283"/>
      <point x="411" y="249" name="hr02"/>
      <point x="411" y="202" type="curve" smooth="yes"/>
      <point x="411" y="129"/>
      <point x="364" y="92"/>
      <point x="271" y="92" type="curve" smooth="yes"/>
    </contour>
  </outline>
</glyph>
<glyph name="D" format="2">
  <advance width="697"/>
  <unicode hex="0044"/>
  <outline>
    <contour>
      <point x="85" y="667" type="line"/>
      <point x="85" y="0" type="line"/>
      <point x="322" y="0" type="line" smooth="yes"/>
      <point x="399" y="0"/>
      <point x="470" y="17"/>
      <point x="516" y="47" type="curve" smooth="yes"/>
      <point x="603" y="103"/>
      <point x="652" y="211"/>
      <point x="652" y="347" type="curve" smooth="yes"/>
      <point x="652" y="466"/>
      <point x="614" y="558"/>
      <point x="542" y="612" type="curve" smooth="yes"/>
      <point x="492" y="650"/>
      <point x="426" y="667"/>
      <point x="326" y="667" type="curve" smooth="yes"/>
    </contour>
    <contour>
      <point x="205" y="573" type="line"/>
      <point x="309" y="573" type="line" smooth="yes"/>
      <point x="384" y="573"/>
      <point x="413" y="567"/>
      <point x="446" y="544" type="curve" smooth="yes"/>
      <point x="496" y="509"/>
      <point x="524" y="436"/>
      <point x="524" y="343" type="curve" smooth="yes"/>
      <point x="524" y="253"/>
      <point x="499" y="180"/>
      <point x="453" y="139" type="curve" smooth="yes"/>
      <point x="421" y="109"/>
      <point x="372" y="94"/>
      <point x="310" y="94" type="curve" smooth="yes"/>
      <point x="205" y="94" type="line"/>
    </contour>
  </outline>
</glyph>
<glyph name="F" format="2">
  <advance width="471"/>
  <unicode hex="0046"/>
  <outline>
    <contour>
      <point x="205" y="377" type="line"/>
      <point x="205" y="573" type="line"/>
      <point x="450" y="573" type="line"/>
      <point x="450" y="667" type="line"/>
      <point x="85" y="667" type="line"/>
      <point x="85" y="0" type="line"/>
      <point x="205" y="0" type="line"/>
      <point x="205" y="286" type="line"/>
      <point x="434" y="286" type="line"/>
      <point x="434" y="377" type="line"/>
    </contour>
  </outline>
</glyph>
<glyph name="G" format="2">
  <advance width="693"/>
  <unicode hex="0047"/>
  <outline>
    <contour>
      <point x="354" y="337" type="line"/>
      <point x="354" y="244" type="line"/>
      <point x="512" y="244" type="line"/>
      <point x="512" y="97" type="line"/>
      <point x="473" y="83"/>
      <point x="444" y="78"/>
      <point x="401" y="78" type="curve" smooth="yes"/>
      <point x="333" y="78"/>
      <point x="270" y="100"/>
      <point x="235" y="137" type="curve" smooth="yes"/>
      <point x="196" y="177"/>
      <point x="174" y="246"/>
      <point x="174" y="326" type="curve" smooth="yes"/>
      <point x="174" y="486"/>
      <point x="256" y="588"/>
      <point x="385" y="588" type="curve" smooth="yes"/>
      <point x="422" y="588"/>
      <point x="456" y="579"/>
      <point x="485" y="562" type="curve" smooth="yes"/>
      <point x="511" y="546"/>
      <point x="524" y="530"/>
      <point x="543" y="490" type="curve"/>
      <point x="643" y="548" type="line"/>
      <point x="611" y="597"/>
      <point x="593" y="617"/>
      <point x="564" y="637" type="curve" smooth="yes"/>
      <point x="522" y="666"/>
      <point x="460" y="682"/>
      <point x="390" y="682" type="curve" smooth="yes"/>
      <point x="176" y="682"/>
      <point x="45" y="547"/>
      <point x="45" y="329" type="curve" smooth="yes"/>
      <point x="45" y="215"/>
      <point x="81" y="119"/>
      <point x="145" y="63" type="curve" smooth="yes"/>
      <point x="201" y="14"/>
      <point x="288" y="-14"/>
      <point x="383" y="-14" type="curve" smooth="yes"/>
      <point x="461" y="-14"/>
      <point x="535" y="-2"/>
      <point x="631" y="25" type="curve"/>
      <point x="631" y="337" type="line"/>
    </contour>
  </outline>
</glyph>
<glyph name="H" format="2">
  <advance width="708"/>
  <unicode hex="0048"/>
  <outline>
    <contour>
      <point x="623" y="667" type="line"/>
      <point x="503" y="667" type="line"/>
      <point x="503" y="385" type="line"/>
      <point x="205" y="385" type="line"/>
      <point x="205" y="667" type="line"/>
      <point x="85" y="667" type="line"/>
      <point x="85" y="0" type="line"/>
      <point x="205" y="0" type="line"/>
      <point x="205" y="290" type="line"/>
      <point x="503" y="290" type="line"/>
      <point x="503" y="0" type="line"/>
      <point x="623" y="0" type="line"/>
    </contour>
  </outline>
</glyph>
<glyph name="I" format="2">
  <advance width="290"/>
  <unicode hex="0049"/>
  <outline>
    <contour>
      <point x="205" y="667" type="line"/>
      <point x="85" y="667" type="line"/>
      <point x="85" y="0" type="line"/>
      <point x="205" y="0" type="line"/>
    </contour>
  </outline>
</glyph>
<glyph name="J" format="2">
  <advance width="427"/>
  <unicode hex="004A"/>
  <outline>
    <contour>
      <point x="349" y="667" type="line"/>
      <point x="229" y="667" type="line"/>
      <point x="229" y="220" type="line" smooth="yes"/>
      <point x="229" y="170"/>
      <point x="227" y="150"/>
      <point x="220" y="132" type="curve" smooth="yes"/>
      <point x="208" y="101"/>
      <point x="181" y="84"/>
      <point x="146" y="84" type="curve" smooth="yes"/>
      <point x="104" y="84"/>
      <point x="80" y="104"/>
      <point x="65" y="151" type="curve"/>
      <point x="-38" y="102" type="line"/>
      <point x="-19" y="59"/>
      <point x="-8" y="41"/>
      <point x="10" y="25" type="curve" smooth="yes"/>
      <point x="37" y="0"/>
      <point x="82" y="-14"/>
      <point x="136" y="-14" type="curve" smooth="yes"/>
      <point x="209" y="-14"/>
      <point x="270" y="11"/>
      <point x="308" y="55" type="curve" smooth="yes"/>
      <point x="339" y="91"/>
      <point x="349" y="132"/>
      <point x="349" y="220" type="curve" smooth="yes"/>
    </contour>
  </outline>
</glyph>
<glyph name="K" format="2">
  <advance width="601"/>
  <unicode hex="004B"/>
  <outline>
    <contour>
      <point x="204" y="667" type="line"/>
      <point x="85" y="667" type="line"/>
      <point x="85" y="0" type="line"/>
      <point x="204" y="0" type="line"/>
      <point x="204" y="312" type="line"/>
      <point x="471" y="0" type="line"/>
      <point x="628" y="0" type="line"/>
      <point x="324" y="357" type="line"/>
      <point x="594" y="667" type="line"/>
      <point x="457" y="667" type="line"/>
      <point x="204" y="376" type="line"/>
    </contour>
  </outline>
</glyph>
<glyph name="L" format="2">
  <advance width="466"/>
  <unicode hex="004C"/>
  <outline>
    <contour>
      <point x="205" y="667" type="line"/>
      <point x="85" y="667" type="line"/>
      <point x="85" y="0" type="line"/>
      <point x="464" y="0" type="line"/>
      <point x="464" y="94" type="line"/>
      <point x="205" y="94" type="line"/>
    </contour>
  </outline>
</glyph>
<glyph name="M" format="2">
  <advance width="890"/>
  <unicode hex="004D"/>
  <outline>
    <contour>
      <point x="805" y="667" type="line"/>
      <point x="665" y="667" type="line"/>
      <point x="445" y="177" type="line"/>
      <point x="226" y="667" type="line"/>
      <point x="85" y="667" type="line"/>
      <point x="85" y="0" type="line"/>
      <point x="201" y="0" type="line"/>
      <point x="201" y="462" type="line"/>
      <point x="401" y="0" type="line"/>
      <point x="490" y="0" type="line"/>
      <point x="689" y="462" type="line"/>
      <point x="689" y="0" type="line"/>
      <point x="805" y="0" type="line"/>
    </contour>
  </outline>
</glyph>
<glyph name="N" format="2">
  <advance width="752"/>
  <unicode hex="004E"/>
  <outline>
    <contour>
      <point x="667" y="667" type="line"/>
      <point x="549" y="667" type="line"/>
      <point x="549" y="187" type="line"/>
      <point x="200" y="667" type="line"/>
      <point x="85" y="667" type="line"/>
      <point x="85" y="0" type="line"/>
      <point x="203" y="0" type="line"/>
      <point x="203" y="476" type="line"/>
      <point x="549" y="0" type="line"/>
      <point x="667" y="0" type="line"/>
    </contour>
  </outline>
</glyph>
<glyph name="O" format="2">
  <advance width="749"/>
  <unicode hex="004F"/>
  <outline>
    <contour>
      <point x="374" y="682" type="curve" smooth="yes"/>
      <point x="283" y="682"/>
      <point x="207" y="657"/>
      <point x="149" y="606" type="curve" smooth="yes"/>
      <point x="79" y="546"/>
      <point x="45" y="458"/>
      <point x="45" y="340" type="curve" smooth="yes"/>
      <point x="45" y="210"/>
      <point x="77" y="125"/>
      <point x="149" y="62" type="curve" smooth="yes"/>
      <point x="207" y="12"/>
      <point x="283" y="-14"/>
      <point x="375" y="-14" type="curve" smooth="yes"/>
      <point x="465" y="-14"/>
      <point x="541" y="12"/>
      <point x="599" y="62" type="curve" smooth="yes"/>
      <point x="670" y="124"/>
      <point x="703" y="211"/>
      <point x="703" y="334" type="curve" smooth="yes"/>
      <point x="703" y="457"/>
      <point x="670" y="545"/>
      <point x="599" y="606" type="curve" smooth="yes"/>
      <point x="540" y="657"/>
      <point x="466" y="682"/>
    </contour>
    <contour>
      <point x="374" y="588" type="curve" smooth="yes"/>
      <point x="496" y="588"/>
      <point x="573" y="490"/>
      <point x="573" y="334" type="curve" smooth="yes"/>
      <point x="573" y="178"/>
      <point x="496" y="80"/>
      <point x="374" y="80" type="curve" smooth="yes"/>
      <point x="251" y="80"/>
      <point x="175" y="178"/>
      <point x="175" y="338" type="curve" smooth="yes"/>
      <point x="175" y="490"/>
      <point x="253" y="588"/>
    </contour>
  </outline>
</glyph>
<glyph name="P" format="2">
  <advance width="532"/>
  <unicode hex="0050"/>
  <outline>
    <contour>
      <point x="85" y="0" type="line"/>
      <point x="205" y="0" type="line"/>
      <point x="205" y="274" type="line"/>
      <point x="258" y="274" type="line" smooth="yes"/>
      <point x="317" y="274"/>
      <point x="377" y="285"/>
      <point x="413" y="304" type="curve" smooth="yes"/>
      <point x="478" y="337"/>
      <point x="516" y="403"/>
      <point x="516" y="482" type="curve" smooth="yes"/>
      <point x="516" y="545"/>
      <point x="492" y="598"/>
      <point x="448" y="631" type="curve" smooth="yes"/>
      <point x="412" y="658"/>
      <point x="375" y="667"/>
      <point x="297" y="667" type="curve" smooth="yes"/>
      <point x="85" y="667" type="line"/>
    </contour>
    <contour>
      <point x="205" y="369" type="line"/>
      <point x="205" y="573" type="line"/>
      <point x="270" y="573" type="line" smooth="yes"/>
      <point x="313" y="573"/>
      <point x="331" y="570"/>
      <point x="348" y="560" type="curve" smooth="yes"/>
      <point x="374" y="545"/>
      <point x="389" y="514"/>
      <point x="389" y="475" type="curve" smooth="yes"/>
      <point x="389" y="403"/>
      <point x="346" y="369"/>
      <point x="257" y="369" type="curve" smooth="yes"/>
    </contour>
  </outline>
</glyph>
<glyph name="Q" format="2">
  <advance width="749"/>
  <unicode hex="0051"/>
  <outline>
    <contour>
      <point x="869" y="-88" type="line"/>
      <point x="506" y="8" type="line"/>
      <point x="562" y="33"/>
      <point x="587" y="49"/>
      <point x="615" y="76" type="curve" smooth="yes"/>
      <point x="674" y="134"/>
      <point x="704" y="221"/>
      <point x="704" y="334" type="curve" smooth="yes"/>
      <point x="704" y="455"/>
      <point x="673" y="540"/>
      <point x="607" y="601" type="curve" smooth="yes"/>
      <point x="548" y="654"/>
      <point x="470" y="682"/>
      <point x="376" y="682" type="curve" smooth="yes"/>
      <point x="278" y="682"/>
      <point x="195" y="652"/>
      <point x="137" y="595" type="curve" smooth="yes"/>
      <point x="74" y="534"/>
      <point x="45" y="451"/>
      <point x="45" y="334" type="curve" smooth="yes"/>
      <point x="45" y="139"/>
      <point x="134" y="25"/>
      <point x="312" y="-9" type="curve"/>
      <point x="778" y="-171" type="line"/>
    </contour>
    <contour>
      <point x="374" y="588" type="curve" smooth="yes"/>
      <point x="496" y="588"/>
      <point x="573" y="490"/>
      <point x="573" y="334" type="curve" smooth="yes"/>
      <point x="573" y="178"/>
      <point x="497" y="80"/>
      <point x="374" y="80" type="curve" smooth="yes"/>
      <point x="250" y="80"/>
      <point x="175" y="177"/>
      <point x="175" y="338" type="curve" smooth="yes"/>
      <point x="175" y="490"/>
      <point x="253" y="588"/>
    </contour>
  </outline>
</glyph>
<glyph name="R" format="2">
  <advance width="597"/>
  <unicode hex="0052"/>
  <outline>
    <contour>
      <point x="85" y="0" type="line"/>
      <point x="204" y="0" type="line"/>
      <point x="204" y="284" type="line"/>
      <point x="273" y="284" type="line"/>
      <point x="439" y="0" type="line"/>
      <point x="580" y="0" type="line"/>
      <point x="392" y="304" type="line"/>
      <point x="432" y="323"/>
      <point x="450" y="335"/>
      <point x="470" y="357" type="curve" smooth="yes"/>
      <point x="501" y="392"/>
      <point x="518" y="439"/>
      <point x="518" y="489" type="curve" smooth="yes"/>
      <point x="518" y="559"/>
      <point x="484" y="619"/>
      <point x="430" y="646" type="curve" smooth="yes"/>
      <point x="396" y="662"/>
      <point x="363" y="667"/>
      <point x="281" y="667" type="curve" smooth="yes"/>
      <point x="85" y="667" type="line"/>
    </contour>
    <contour>
      <point x="204" y="375" type="line"/>
      <point x="204" y="572" type="line"/>
      <point x="251" y="572" type="line" smooth="yes"/>
      <point x="314" y="572"/>
      <point x="319" y="572"/>
      <point x="335" y="567" type="curve" smooth="yes"/>
      <point x="371" y="557"/>
      <point x="391" y="527"/>
      <point x="391" y="483" type="curve" smooth="yes"/>
      <point x="391" y="431"/>
      <point x="367" y="396"/>
      <point x="321" y="382" type="curve"/>
      <point x="304" y="376"/>
      <point x="291" y="375"/>
      <point x="256" y="375" type="curve" smooth="yes"/>
    </contour>
  </outline>
</glyph>
<glyph name="S" format="2">
  <advance width="523"/>
  <unicode hex="0053"/>
  <outline>
    <contour>
      <point x="470" y="573" type="line"/>
      <point x="432" y="648"/>
      <point x="370" y="682"/>
      <point x="272" y="682" type="curve" smooth="yes"/>
      <point x="145" y="682"/>
      <point x="55" y="604"/>
      <point x="55" y="494" type="curve" smooth="yes"/>
      <point x="55" y="449"/>
      <point x="73" y="403"/>
      <point x="104" y="371" type="curve" smooth="yes"/>
      <point x="129" y="345"/>
      <point x="162" y="325"/>
      <point x="223" y="297" type="curve" smooth="yes"/>
      <point x="273" y="274"/>
      <point x="273" y="274"/>
      <point x="285" y="267" type="curve" smooth="yes"/>
      <point x="334" y="240"/>
      <point x="351" y="217"/>
      <point x="351" y="176" type="curve" smooth="yes"/>
      <point x="351" y="118"/>
      <point x="309" y="79"/>
      <point x="246" y="79" type="curve" smooth="yes"/>
      <point x="186" y="79"/>
      <point x="142" y="112"/>
      <point x="119" y="173" type="curve"/>
      <point x="19" y="111" type="line"/>
      <point x="40" y="68"/>
      <point x="56" y="49"/>
      <point x="89" y="27" type="curve" smooth="yes"/>
      <point x="131" y="-1"/>
      <point x="180" y="-14"/>
      <point x="243" y="-14" type="curve" smooth="yes"/>
      <point x="386" y="-14"/>
      <point x="480" y="68"/>
      <point x="480" y="193" type="curve" smooth="yes"/>
      <point x="480" y="244"/>
      <point x="461" y="290"/>
      <point x="428" y="320" type="curve" smooth="yes"/>
      <point x="402" y="343"/>
      <point x="371" y="361"/>
      <point x="304" y="393" type="curve" smooth="yes"/>
      <point x="229" y="428"/>
      <point x="229" y="428"/>
      <point x="212" y="439" type="curve"/>
      <point x="190" y="455"/>
      <point x="177" y="479"/>
      <point x="177" y="507" type="curve" smooth="yes"/>
      <point x="177" y="556"/>
      <point x="216" y="594"/>
      <point x="268" y="594" type="curve" smooth="yes"/>
      <point x="320" y="594"/>
      <point x="353" y="569"/>
      <point x="375" y="514" type="curve"/>
    </contour>
  </outline>
</glyph>
<glyph name="T" format="2">
  <advance width="466"/>
  <unicode hex="0054"/>
  <outline>
    <contour>
      <point x="292" y="574" type="line"/>
      <point x="481" y="574" type="line"/>
      <point x="481" y="667" type="line"/>
      <point x="-15" y="667" type="line"/>
      <point x="-15" y="574" type="line"/>
      <point x="172" y="574" type="line"/>
      <point x="172" y="0" type="line"/>
      <point x="292" y="0" type="line"/>
    </contour>
  </outline>
</glyph>
<glyph name="V" format="2">
  <advance width="601"/>
  <unicode hex="0056"/>
  <outline>
    <contour>
      <point x="124" y="667" type="line"/>
      <point x="-5" y="667" type="line"/>
      <point x="238" y="0" type="line"/>
      <point x="345" y="0" type="line"/>
      <point x="621" y="667" type="line"/>
      <point x="504" y="667" type="line"/>
      <point x="301" y="169" type="line"/>
    </contour>
  </outline>
</glyph>
<glyph name="W" format="2">
  <advance width="931"/>
  <unicode hex="0057"/>
  <outline>
    <contour>
      <point x="128" y="667" type="line"/>
      <point x="6" y="667" type="line"/>
      <point x="194" y="0" type="line"/>
      <point x="298" y="0" type="line"/>
      <point x="460" y="468" type="line"/>
      <point x="600" y="0" type="line"/>
      <point x="703" y="0" type="line"/>
      <point x="930" y="667" type="line"/>
      <point x="817" y="667" type="line"/>
      <point x="653" y="192" type="line"/>
      <point x="515" y="667" type="line"/>
      <point x="422" y="667" type="line"/>
      <point x="261" y="195" type="line"/>
    </contour>
  </outline>
</glyph>
<glyph name="X" format="2">
  <advance width="563"/>
  <unicode hex="0058"/>
  <outline>
    <contour>
      <point x="414" y="667" type="line"/>
      <point x="286" y="450" type="line"/>
      <point x="152" y="667" type="line"/>
      <point x="9" y="667" type="line"/>
      <point x="210" y="344" type="line"/>
      <point x="-3" y="0" type="line"/>
      <point x="133" y="0" type="line"/>
      <point x="277" y="241" type="line"/>
      <point x="422" y="0" type="line"/>
      <point x="567" y="0" type="line"/>
      <point x="349" y="352" type="line"/>
      <point x="544" y="667" type="line"/>
    </contour>
  </outline>
</glyph>
<glyph name="Y" format="2">
  <advance width="523"/>
  <unicode hex="0059"/>
  <outline>
    <contour>
      <point x="427" y="667" type="line"/>
      <point x="269" y="397" type="line"/>
      <point x="106" y="667" type="line"/>
      <point x="-31" y="667" type="line"/>
      <point x="202" y="284" type="line"/>
      <point x="202" y="0" type="line"/>
      <point x="322" y="0" type="line"/>
      <point x="322" y="287" type="line"/>
      <point x="551" y="667" type="line"/>
    </contour>
  </outline>
</glyph>
<glyph name="Z" format="2">
  <advance width="520"/>
  <unicode hex="005A"/>
  <outline>
    <contour>
      <point x="36" y="667" type="line"/>
      <point x="36" y="573" type="line"/>
      <point x="349" y="573" type="line"/>
      <point x="2" y="90" type="line"/>
      <point x="2" y="0" type="line"/>
      <point x="528" y="0" type="line"/>
      <point x="528" y="95" type="line"/>
      <point x="148" y="95" type="line"/>
      <point x="491" y="573" type="line"/>
      <point x="491" y="667" type="line"/>
    </contour>
  </outline>
</glyph>
<glyph name="bracketleft" format="2">
  <advance width="287"/>
  <unicode hex="005B"/>
  <outline>
    <contour>
      <point x="159" y="-161" type="line" name="hr02"/>
      <point x="159" y="641" type="line"/>
      <point x="255" y="652" type="line" name="hr01"/>
      <point x="255" y="700" type="line"/>
      <point x="71" y="700" type="line"/>
      <point x="71" y="-218" type="line"/>
      <point x="255" y="-218" type="line"/>
      <point x="255" y="-170" type="line"/>
    </contour>
  </outline>
</glyph>
<glyph name="backslash" format="2">
  <advance width="416"/>
  <unicode hex="005C"/>
  <outline>
    <contour>
      <point x="34" y="700" type="line"/>
      <point x="378" y="-228" type="line"/>
      <point x="435" y="-219" type="line"/>
      <point x="92" y="710" type="line"/>
    </contour>
  </outline>
</glyph>
<glyph name="bracketright" format="2">
  <advance width="287"/>
  <unicode hex="005D"/>
  <outline>
    <contour>
      <point x="128" y="-159" type="line"/>
      <point x="32" y="-170" type="line" name="hr01"/>
      <point x="32" y="-218" type="line"/>
      <point x="216" y="-218" type="line"/>
      <point x="216" y="700" type="line"/>
      <point x="32" y="700" type="line"/>
      <point x="32" y="652" type="line"/>
      <point x="128" y="643" type="line" name="hr02"/>
    </contour>
  </outline>
</glyph>
<glyph name="asciicircum" format="2">
  <advance width="440"/>
  <unicode hex="005E"/>
  <outline>
    <contour>
      <point x="106" y="435" type="line"/>
      <point x="218" y="623" type="line"/>
      <point x="334" y="435" type="line"/>
      <point x="391" y="452" type="line"/>
      <point x="238" y="698" type="line"/>
      <point x="194" y="698" type="line"/>
      <point x="50" y="452" type="line"/>
    </contour>
  </outline>
</glyph>
<glyph name="underscore" format="2">
  <advance width="563"/>
  <unicode hex="005F"/>
  <outline>
    <contour>
      <point x="0" y="-59" type="line"/>
      <point x="0" y="-115" type="line"/>
      <point x="563" y="-115" type="line"/>
      <point x="563" y="-59" type="line"/>
    </contour>
  </outline>
</glyph>
<glyph name="grave" format="2">
  <advance width="500"/>
  <unicode hex="0060"/>
  <outline>
    <contour>
      <point x="165" y="706" type="line"/>
      <point x="67" y="675" type="line"/>
      <point x="266" y="526" type="line"/>
      <point x="310" y="535" type="line"/>
    </contour>
  </outline>
</glyph>
<glyph name="a" format="2">
  <advance width="561"/>
  <unicode hex="0061"/>
  <outline>
    <contour>
      <point x="493" y="448" type="line"/>
      <point x="382" y="448" type="line"/>
      <point x="382" y="394" type="line"/>
      <point x="340" y="443"/>
      <point x="309" y="459"/>
      <point x="252" y="459" type="curve" smooth="yes"/>
      <point x="125" y="459"/>
      <point x="42" y="366"/>
      <point x="42" y="223" type="curve" smooth="yes"/>
      <point x="42" y="151"/>
      <point x="61" y="94"/>
      <point x="99" y="52" type="curve" smooth="yes"/>
      <point x="135" y="12"/>
      <point x="188" y="-11"/>
      <point x="242" y="-11" type="curve" smooth="yes"/>
      <point x="300" y="-11"/>
      <point x="342" y="8"/>
      <point x="382" y="51" type="curve"/>
      <point x="382" y="0" type="line"/>
      <point x="493" y="0" type="line"/>
    </contour>
    <contour>
      <point x="273" y="373" type="curve" smooth="yes"/>
      <point x="341" y="373"/>
      <point x="385" y="314" name="hr02"/>
      <point x="385" y="224" type="curve" smooth="yes"/>
      <point x="385" y="133"/>
      <point x="341" y="75"/>
      <point x="273" y="75" type="curve" smooth="yes"/>
      <point x="204" y="75"/>
      <point x="161" y="133"/>
      <point x="161" y="225" type="curve" smooth="yes"/>
      <point x="161" y="314"/>
      <point x="206" y="373"/>
    </contour>
  </outline>
</glyph>
<glyph name="b" format="2">
  <advance width="562"/>
  <unicode hex="0062"/>
  <outline>
    <contour>
      <point x="179" y="700" type="line"/>
      <point x="68" y="700" type="line"/>
      <point x="68" y="0" type="line"/>
      <point x="144" y="0" type="line"/>
      <point x="179" y="50" type="line"/>
      <point x="223" y="7"/>
      <point x="263" y="-11"/>
      <point x="318" y="-11" type="curve" smooth="yes"/>
      <point x="437" y="-11"/>
      <point x="520" y="86"/>
      <point x="520" y="226" type="curve" smooth="yes"/>
      <point x="520" y="296"/>
      <point x="501" y="354"/>
      <point x="464" y="395" type="curve" smooth="yes"/>
      <point x="428" y="434"/>
      <point x="372" y="459"/>
      <point x="319" y="459" type="curve" smooth="yes"/>
      <point x="264" y="459"/>
      <point x="223" y="441"/>
      <point x="179" y="398" type="curve"/>
    </contour>
    <contour>
      <point x="289" y="373" type="curve" smooth="yes"/>
      <point x="357" y="373"/>
      <point x="401" y="315"/>
      <point x="401" y="224" type="curve" smooth="yes"/>
      <point x="401" y="134"/>
      <point x="357" y="75"/>
      <point x="289" y="75" type="curve" smooth="yes"/>
      <point x="220" y="75"/>
      <point x="176" y="134"/>
      <point x="176" y="225" type="curve" smooth="yes"/>
      <point x="176" y="313"/>
      <point x="222" y="373"/>
    </contour>
  </outline>
</glyph>
<glyph name="c" format="2">
  <advance width="472"/>
  <unicode hex="0063"/>
  <outline>
    <contour>
      <point x="458" y="323" type="line"/>
      <point x="449" y="368"/>
      <point x="438" y="390"/>
      <point x="414" y="412" type="curve" smooth="yes"/>
      <point x="381" y="443"/>
      <point x="330" y="459"/>
      <point x="269" y="459" type="curve" smooth="yes"/>
      <point x="128" y="459"/>
      <point x="42" y="370"/>
      <point x="42" y="223" type="curve" smooth="yes"/>
      <point x="42" y="79"/>
      <point x="127" y="-11"/>
      <point x="263" y="-11" type="curve" smooth="yes"/>
      <point x="317" y="-11"/>
      <point x="363" y="2"/>
      <point x="399" y="26" type="curve" smooth="yes"/>
      <point x="429" y="47"/>
      <point x="444" y="71"/>
      <point x="461" y="122" type="curve"/>
      <point x="354" y="151" type="line"/>
      <point x="337" y="90"/>
      <point x="315" y="69"/>
      <point x="268" y="69" type="curve" smooth="yes"/>
      <point x="202" y="69"/>
      <point x="161" y="128"/>
      <point x="161" y="222" type="curve" smooth="yes"/>
      <point x="161" y="320"/>
      <point x="204" y="380"/>
      <point x="275" y="380" type="curve" smooth="yes"/>
      <point x="327" y="380"/>
      <point x="352" y="351"/>
      <point x="355" y="288" type="curve"/>
    </contour>
  </outline>
</glyph>
<glyph name="d" format="2">
  <advance width="561"/>
  <unicode hex="0064"/>
  <outline>
    <contour>
      <point x="493" y="700" type="line"/>
      <point x="382" y="700" type="line"/>
      <point x="382" y="399" type="line"/>
      <point x="343" y="441"/>
      <point x="303" y="459"/>
      <point x="247" y="459" type="curve" smooth="yes"/>
      <point x="191" y="459"/>
      <point x="136" y="435"/>
      <point x="99" y="394" type="curve" smooth="yes"/>
      <point x="61" y="352"/>
      <point x="42" y="295"/>
      <point x="42" y="223" type="curve" smooth="yes"/>
      <point x="42" y="151"/>
      <point x="61" y="94"/>
      <point x="99" y="52" type="curve" smooth="yes"/>
      <point x="135" y="12"/>
      <point x="188" y="-11"/>
      <point x="243" y="-11" type="curve" smooth="yes"/>
      <point x="298" y="-11"/>
      <point x="338" y="7"/>
      <point x="382" y="49" type="curve"/>
      <point x="382" y="0" type="line"/>
      <point x="493" y="0" type="line"/>
    </contour>
    <contour>
      <point x="273" y="373" type="curve" smooth="yes"/>
      <point x="341" y="373"/>
      <point x="385" y="315" name="hr02"/>
      <point x="385" y="224" type="curve" smooth="yes"/>
      <point x="385" y="133"/>
      <point x="341" y="75"/>
      <point x="273" y="75" type="curve" smooth="yes"/>
      <point x="204" y="75"/>
      <point x="161" y="133"/>
      <point x="161" y="225" type="curve" smooth="yes"/>
      <point x="161" y="314"/>
      <point x="206" y="373"/>
    </contour>
  </outline>
</glyph>
<glyph name="f" format="2">
  <advance width="306"/>
  <unicode hex="0066"/>
  <outline>
    <contour>
      <point x="305" y="448" type="line"/>
      <point x="189" y="448" type="line"/>
      <point x="189" y="501" type="line" smooth="yes"/>
      <point x="189" y="574"/>
      <point x="213" y="610"/>
      <point x="262" y="610" type="curve" smooth="yes"/>
      <point x="276" y="610"/>
      <point x="285" y="607"/>
      <point x="303" y="598" type="curve"/>
      <point x="326" y="684" type="line"/>
      <point x="289" y="696"/>
      <point x="270" y="700"/>
      <point x="240" y="700" type="curve" smooth="yes"/>
      <point x="131" y="700"/>
      <point x="78" y="633"/>
      <point x="78" y="495" type="curve" smooth="yes"/>
      <point x="78" y="448" type="line"/>
      <point x="18" y="448" type="line"/>
      <point x="18" y="357" type="line"/>
      <point x="78" y="357" type="line"/>
      <point x="78" y="0" type="line"/>
      <point x="189" y="0" type="line"/>
      <point x="189" y="357" type="line"/>
      <point x="305" y="357" type="line"/>
    </contour>
  </outline>
</glyph>
<glyph name="g" format="2">
  <advance width="561"/>
  <unicode hex="0067"/>
  <outline>
    <contour>
      <point x="493" y="448" type="line" name="hr02"/>
      <point x="382" y="448" type="line"/>
      <point x="382" y="396" type="line"/>
      <point x="343" y="441"/>
      <point x="303" y="459" name="hr01"/>
      <point x="246" y="459" type="curve" smooth="yes"/>
      <point x="191" y="459"/>
      <point x="135" y="434"/>
      <point x="98" y="394" type="curve" smooth="yes"/>
      <point x="61" y="352"/>
      <point x="42" y="295"/>
      <point x="42" y="223" type="curve" smooth="yes"/>
      <point x="42" y="151"/>
      <point x="61" y="94"/>
      <point x="99" y="52" type="curve" smooth="yes"/>
      <point x="135" y="12"/>
      <point x="188" y="-11"/>
      <point x="242" y="-11" type="curve" smooth="yes"/>
      <point x="298" y="-11"/>
      <point x="339" y="7"/>
      <point x="382" y="51" type="curve"/>
      <point x="382" y="12" type="line" smooth="yes"/>
      <point x="382" y="-33"/>
      <point x="376" y="-63"/>
      <point x="363" y="-87" type="curve" smooth="yes"/>
      <point x="343" y="-123"/>
      <point x="308" y="-144"/>
      <point x="267" y="-144" type="curve" smooth="yes"/>
      <point x="214" y="-144"/>
      <point x="179" y="-113"/>
      <point x="161" y="-51" type="curve"/>
      <point x="59" y="-97" type="line"/>
      <point x="81" y="-146"/>
      <point x="95" y="-167"/>
      <point x="121" y="-187" type="curve" smooth="yes"/>
      <point x="156" y="-214"/>
      <point x="203" y="-228"/>
      <point x="258" y="-228" type="curve" smooth="yes"/>
      <point x="404" y="-228"/>
      <point x="493" y="-141"/>
      <point x="493" y="2" type="curve" smooth="yes"/>
    </contour>
    <contour>
      <point x="273" y="373" type="curve" smooth="yes" name="hr03"/>
      <point x="341" y="373"/>
      <point x="385" y="315"/>
      <point x="385" y="223" type="curve" smooth="yes"/>
      <point x="385" y="133"/>
      <point x="341" y="75"/>
      <point x="273" y="75" type="curve" smooth="yes"/>
      <point x="204" y="75"/>
      <point x="161" y="133"/>
      <point x="161" y="225" type="curve" smooth="yes"/>
      <point x="161" y="314"/>
      <point x="206" y="373"/>
    </contour>
  </outline>
</glyph>
<glyph name="h" format="2">
  <advance width="548"/>
  <unicode hex="0068"/>
  <outline>
    <contour>
      <point x="179" y="700" type="line"/>
      <point x="68" y="700" type="line"/>
      <point x="68" y="0" type="line"/>
      <point x="179" y="0" type="line"/>
      <point x="179" y="252" type="line" smooth="yes"/>
      <point x="179" y="287"/>
      <point x="184" y="309"/>
      <point x="197" y="327" type="curve" smooth="yes"/>
      <point x="214" y="350"/>
      <point x="248" y="365"/>
      <point x="283" y="365" type="curve" smooth="yes"/>
      <point x="343" y="365"/>
      <point x="369" y="332"/>
      <point x="369" y="258" type="curve" smooth="yes"/>
      <point x="369" y="0" type="line"/>
      <point x="480" y="0" type="line"/>
      <point x="480" y="284" type="line" smooth="yes"/>
      <point x="480" y="341"/>
      <point x="473" y="374"/>
      <point x="453" y="400" type="curve"/>
      <point x="426" y="438"/>
      <point x="378" y="459"/>
      <point x="321" y="459" type="curve" smooth="yes"/>
      <point x="263" y="459"/>
      <point x="226" y="442"/>
      <point x="179" y="392" type="curve"/>
    </contour>
  </outline>
</glyph>
<glyph name="i" format="2">
  <advance width="248"/>
  <unicode hex="0069"/>
  <outline>
    <contour>
      <point x="179" y="448" type="line"/>
      <point x="68" y="448" type="line"/>
      <point x="68" y="0" type="line"/>
      <point x="179" y="0" type="line"/>
    </contour>
    <contour>
      <point x="120" y="676" type="curve" smooth="yes"/>
      <point x="83" y="676"/>
      <point x="54" y="647"/>
      <point x="54" y="610" type="curve" smooth="yes"/>
      <point x="54" y="572"/>
      <point x="83" y="543"/>
      <point x="121" y="543" type="curve" smooth="yes"/>
      <point x="158" y="543"/>
      <point x="187" y="572"/>
      <point x="187" y="610" type="curve" smooth="yes"/>
      <point x="187" y="647"/>
      <point x="158" y="676"/>
    </contour>
  </outline>
</glyph>
<glyph name="j" format="2">
  <advance width="248"/>
  <unicode hex="006A"/>
  <outline>
    <contour>
      <point x="180" y="448" type="line"/>
      <point x="69" y="448" type="line"/>
      <point x="69" y="-24" type="line" smooth="yes"/>
      <point x="69" y="-101"/>
      <point x="42" y="-134"/>
      <point x="-23" y="-134" type="curve" smooth="yes"/>
      <point x="-31" y="-134"/>
      <point x="-38" y="-134"/>
      <point x="-58" y="-133" type="curve"/>
      <point x="-39" y="-215" type="line"/>
      <point x="-17" y="-217"/>
      <point x="-9" y="-217"/>
      <point x="3" y="-217" type="curve" smooth="yes"/>
      <point x="51" y="-217"/>
      <point x="95" y="-205"/>
      <point x="124" y="-182" type="curve"/>
      <point x="166" y="-151"/>
      <point x="180" y="-111"/>
      <point x="180" y="-23" type="curve" smooth="yes"/>
    </contour>
    <contour>
      <point x="121" y="676" type="curve" smooth="yes"/>
      <point x="84" y="676"/>
      <point x="56" y="648" name="hr01"/>
      <point x="56" y="612" type="curve" smooth="yes"/>
      <point x="56" y="574"/>
      <point x="83" y="546"/>
      <point x="121" y="546" type="curve" smooth="yes"/>
      <point x="158" y="546"/>
      <point x="186" y="574"/>
      <point x="186" y="611" type="curve" smooth="yes"/>
      <point x="186" y="648"/>
      <point x="158" y="676"/>
    </contour>
  </outline>
</glyph>
<glyph name="k" format="2">
  <advance width="484"/>
  <unicode hex="006B"/>
  <outline>
    <contour>
      <point x="179" y="700" type="line"/>
      <point x="68" y="700" type="line"/>
      <point x="68" y="0" type="line"/>
      <point x="179" y="0" type="line"/>
      <point x="179" y="220" type="line"/>
      <point x="345" y="0" type="line"/>
      <point x="488" y="0" type="line"/>
      <point x="290" y="251" type="line"/>
      <point x="447" y="448" type="line"/>
      <point x="324" y="448" type="line"/>
      <point x="179" y="258" type="line"/>
    </contour>
  </outline>
</glyph>
<glyph name="l" format="2">
  <advance width="248"/>
  <unicode hex="006C"/>
  <outline>
    <contour>
      <point x="179" y="700" type="line"/>
      <point x="68" y="700" type="line"/>
      <point x="68" y="0" type="line"/>
      <point x="179" y="0" type="line"/>
    </contour>
  </outline>
</glyph>
<glyph name="m" format="2">
  <advance width="825"/>
  <unicode hex="006D"/>
  <outline>
    <contour>
      <point x="68" y="448" type="line"/>
      <point x="68" y="0" type="line"/>
      <point x="179" y="0" type="line"/>
      <point x="179" y="253" type="line" smooth="yes"/>
      <point x="179" y="322"/>
      <point x="216" y="365"/>
      <point x="275" y="365" type="curve" smooth="yes"/>
      <point x="331" y="365"/>
      <point x="358" y="333"/>
      <point x="358" y="266" type="curve" smooth="yes"/>
      <point x="358" y="0" type="line"/>
      <point x="469" y="0" type="line"/>
      <point x="469" y="259" type="line" smooth="yes"/>
      <point x="469" y="328"/>
      <point x="501" y="365"/>
      <point x="562" y="365" type="curve" smooth="yes"/>
      <point x="620" y="365"/>
      <point x="646" y="334"/>
      <point x="646" y="265" type="curve" smooth="yes"/>
      <point x="646" y="0" type="line"/>
      <point x="757" y="0" type="line"/>
      <point x="757" y="300" type="line" smooth="yes"/>
      <point x="757" y="399"/>
      <point x="698" y="459"/>
      <point x="600" y="459" type="curve" smooth="yes"/>
      <point x="538" y="459"/>
      <point x="495" y="440"/>
      <point x="448" y="390" type="curve"/>
      <point x="413" y="441"/>
      <point x="378" y="459"/>
      <point x="315" y="459" type="curve" smooth="yes"/>
      <point x="258" y="459"/>
      <point x="224" y="444"/>
      <point x="179" y="398" type="curve"/>
      <point x="179" y="448" type="line"/>
    </contour>
  </outline>
</glyph>
<glyph name="n" format="2">
  <advance width="548"/>
  <unicode hex="006E"/>
  <outline>
    <contour>
      <point x="179" y="448" type="line"/>
      <point x="68" y="448" type="line"/>
      <point x="68" y="0" type="line"/>
      <point x="179" y="0" type="line"/>
      <point x="179" y="252" type="line" smooth="yes"/>
      <point x="179" y="287"/>
      <point x="184" y="309"/>
      <point x="197" y="327" type="curve" smooth="yes"/>
      <point x="214" y="350"/>
      <point x="248" y="365"/>
      <point x="283" y="365" type="curve" smooth="yes"/>
      <point x="343" y="365"/>
      <point x="369" y="332"/>
      <point x="369" y="258" type="curve" smooth="yes"/>
      <point x="369" y="0" type="line"/>
      <point x="480" y="0" type="line"/>
      <point x="480" y="284" type="line" smooth="yes"/>
      <point x="480" y="341"/>
      <point x="473" y="374"/>
      <point x="453" y="400" type="curve"/>
      <point x="426" y="438"/>
      <point x="378" y="459"/>
      <point x="321" y="459" type="curve" smooth="yes"/>
      <point x="263" y="459"/>
      <point x="227" y="442"/>
      <point x="179" y="392" type="curve"/>
    </contour>
  </outline>
</glyph>
<glyph name="o" format="2">
  <advance width="545"/>
  <unicode hex="006F"/>
  <outline>
    <contour>
      <point x="273" y="459" type="curve" smooth="yes"/>
      <point x="128" y="459"/>
      <point x="42" y="372"/>
      <point x="42" y="225" type="curve" smooth="yes"/>
      <point x="42" y="73"/>
      <point x="123" y="-11"/>
      <point x="272" y="-11" type="curve" smooth="yes"/>
      <point x="350" y="-11"/>
      <point x="406" y="10"/>
      <point x="446" y="55" type="curve" smooth="yes"/>
      <point x="484" y="97"/>
      <point x="504" y="156"/>
      <point x="504" y="226" type="curve" smooth="yes"/>
      <point x="504" y="374"/>
      <point x="420" y="459"/>
    </contour>
    <contour>
      <point x="273" y="373" type="curve" smooth="yes"/>
      <point x="341" y="373"/>
      <point x="385" y="314"/>
      <point x="385" y="224" type="curve" smooth="yes"/>
      <point x="385" y="134"/>
      <point x="341" y="75"/>
      <point x="273" y="75" type="curve" smooth="yes"/>
      <point x="204" y="75"/>
      <point x="161" y="133"/>
      <point x="161" y="226" type="curve" smooth="yes"/>
      <point x="161" y="315"/>
      <point x="205" y="373"/>
    </contour>
  </outline>
</glyph>
<glyph name="p" format="2">
  <advance width="562"/>
  <unicode hex="0070"/>
  <outline>
    <contour>
      <point x="179" y="448" type="line" name="hr02"/>
      <point x="68" y="448" type="line"/>
      <point x="68" y="-218" type="line"/>
      <point x="179" y="-218" type="line"/>
      <point x="179" y="50" type="line"/>
      <point x="223" y="7"/>
      <point x="263" y="-11"/>
      <point x="318" y="-11" type="curve" smooth="yes"/>
      <point x="437" y="-11"/>
      <point x="520" y="86"/>
      <point x="520" y="226" type="curve" smooth="yes"/>
      <point x="520" y="364"/>
      <point x="438" y="459" name="hr01"/>
      <point x="318" y="459" type="curve" smooth="yes"/>
      <point x="261" y="459"/>
      <point x="221" y="441"/>
      <point x="179" y="395" type="curve"/>
    </contour>
    <contour>
      <point x="289" y="373" type="curve" smooth="yes" name="hr03"/>
      <point x="357" y="373"/>
      <point x="401" y="315"/>
      <point x="401" y="224" type="curve" smooth="yes"/>
      <point x="401" y="134"/>
      <point x="357" y="75"/>
      <point x="289" y="75" type="curve" smooth="yes"/>
      <point x="221" y="75"/>
      <point x="176" y="134"/>
      <point x="176" y="225" type="curve" smooth="yes"/>
      <point x="176" y="313"/>
      <point x="222" y="373"/>
    </contour>
  </outline>
</glyph>
<glyph name="q" format="2">
  <advance width="561"/>
  <unicode hex="0071"/>
  <outline>
    <contour>
      <point x="382" y="-218" type="line"/>
      <point x="493" y="-218" type="line"/>
      <point x="493" y="448" type="line"/>
      <point x="420" y="448" type="line"/>
      <point x="382" y="399" type="line"/>
      <point x="343" y="441"/>
      <point x="304" y="459"/>
      <point x="247" y="459" type="curve" smooth="yes"/>
      <point x="191" y="459"/>
      <point x="136" y="435"/>
      <point x="99" y="394" type="curve" smooth="yes"/>
      <point x="61" y="352"/>
      <point x="42" y="295"/>
      <point x="42" y="223" type="curve" smooth="yes"/>
      <point x="42" y="151"/>
      <point x="61" y="94"/>
      <point x="99" y="52" type="curve" smooth="yes"/>
      <point x="135" y="12"/>
      <point x="188" y="-11"/>
      <point x="243" y="-11" type="curve" smooth="yes"/>
      <point x="298" y="-11"/>
      <point x="338" y="7"/>
      <point x="382" y="49" type="curve"/>
    </contour>
    <contour>
      <point x="273" y="373" type="curve" smooth="yes"/>
      <point x="341" y="373"/>
      <point x="385" y="314" name="hr01"/>
      <point x="385" y="224" type="curve" smooth="yes"/>
      <point x="385" y="133"/>
      <point x="341" y="75"/>
      <point x="273" y="75" type="curve" smooth="yes"/>
      <point x="204" y="75"/>
      <point x="161" y="133"/>
      <point x="161" y="225" type="curve" smooth="yes"/>
      <point x="161" y="314"/>
      <point x="206" y="373"/>
    </contour>
  </outline>
</glyph>
<glyph name="r" format="2">
  <advance width="372"/>
  <unicode hex="0072"/>
  <outline>
    <contour>
      <point x="68" y="448" type="line"/>
      <point x="68" y="0" type="line"/>
      <point x="179" y="0" type="line"/>
      <point x="179" y="220" type="line" smooth="yes"/>
      <point x="179" y="296"/>
      <point x="224" y="359"/>
      <point x="278" y="359" type="curve" smooth="yes"/>
      <point x="305" y="359"/>
      <point x="320" y="352"/>
      <point x="344" y="328" type="curve"/>
      <point x="386" y="427" type="line"/>
      <point x="352" y="452"/>
      <point x="333" y="459"/>
      <point x="303" y="459" type="curve" smooth="yes"/>
      <point x="253" y="459"/>
      <point x="218" y="437"/>
      <point x="177" y="380" type="curve" name="hr01"/>
      <point x="177" y="448" type="line"/>
    </contour>
  </outline>
</glyph>
<glyph name="s" format="2">
  <advance width="445"/>
  <unicode hex="0073"/>
  <outline>
    <contour>
      <point x="403" y="370" type="line"/>
      <point x="375" y="431"/>
      <point x="323" y="459"/>
      <point x="236" y="459" type="curve" smooth="yes"/>
      <point x="125" y="459"/>
      <point x="56" y="407"/>
      <point x="56" y="323" type="curve" smooth="yes"/>
      <point x="56" y="276"/>
      <point x="85" y="235"/>
      <point x="130" y="216" type="curve" smooth="yes"/>
      <point x="148" y="209"/>
      <point x="163" y="204"/>
      <point x="230" y="186" type="curve" smooth="yes"/>
      <point x="276" y="173"/>
      <point x="291" y="160"/>
      <point x="291" y="132" type="curve" smooth="yes"/>
      <point x="291" y="95"/>
      <point x="260" y="69"/>
      <point x="216" y="69" type="curve" smooth="yes"/>
      <point x="168" y="69"/>
      <point x="138" y="94"/>
      <point x="121" y="148" type="curve"/>
      <point x="20" y="114" type="line"/>
      <point x="51" y="25"/>
      <point x="104" y="-11"/>
      <point x="205" y="-11" type="curve" smooth="yes"/>
      <point x="325" y="-11"/>
      <point x="406" y="50"/>
      <point x="406" y="141" type="curve" smooth="yes"/>
      <point x="406" y="210"/>
      <point x="365" y="250"/>
      <point x="273" y="270" type="curve" smooth="yes"/>
      <point x="229" y="280"/>
      <point x="229" y="280"/>
      <point x="220" y="282" type="curve" smooth="yes"/>
      <point x="182" y="292"/>
      <point x="167" y="306"/>
      <point x="167" y="332" type="curve" smooth="yes"/>
      <point x="167" y="362"/>
      <point x="194" y="382"/>
      <point x="233" y="382" type="curve" smooth="yes"/>
      <point x="274" y="382"/>
      <point x="295" y="367"/>
      <point x="307" y="328" type="curve"/>
    </contour>
  </outline>
</glyph>
<glyph name="t" format="2">
  <advance width="334"/>
  <unicode hex="0074"/>
  <outline>
    <contour>
      <point x="193" y="601" type="line"/>
      <point x="82" y="560" type="line"/>
      <point x="82" y="448" type="line"/>
      <point x="13" y="448" type="line"/>
      <point x="13" y="358" type="line"/>
      <point x="82" y="358" type="line"/>
      <point x="82" y="182" type="line" smooth="yes"/>
      <point x="82" y="120"/>
      <point x="88" y="83"/>
      <point x="101" y="56" type="curve" smooth="yes"/>
      <point x="121" y="15"/>
      <point x="165" y="-7"/>
      <point x="228" y="-7" type="curve" smooth="yes"/>
      <point x="249" y="-7"/>
      <point x="266" y="-5"/>
      <point x="302" y="2" type="curve"/>
      <point x="318" y="91" type="line"/>
      <point x="300" y="86"/>
      <point x="290" y="84"/>
      <point x="279" y="84" type="curve" smooth="yes"/>
      <point x="255" y="84"/>
      <point x="233" y="90"/>
      <point x="219" y="100" type="curve" smooth="yes"/>
      <point x="199" y="115"/>
      <point x="193" y="135"/>
      <point x="193" y="193" type="curve" smooth="yes"/>
      <point x="193" y="358" type="line"/>
      <point x="308" y="358" type="line"/>
      <point x="308" y="448" type="line"/>
      <point x="193" y="448" type="line"/>
    </contour>
  </outline>
</glyph>
<glyph name="u" format="2">
  <advance width="548"/>
  <unicode hex="0075"/>
  <outline>
    <contour>
      <point x="369" y="0" type="line"/>
      <point x="480" y="0" type="line"/>
      <point x="480" y="448" type="line"/>
      <point x="369" y="448" type="line"/>
      <point x="369" y="196" type="line" smooth="yes"/>
      <point x="369" y="162"/>
      <point x="365" y="143"/>
      <point x="353" y="125" type="curve" smooth="yes"/>
      <point x="336" y="99"/>
      <point x="303" y="83"/>
      <point x="268" y="83" type="curve" smooth="yes"/>
      <point x="209" y="83"/>
      <point x="179" y="120"/>
      <point x="179" y="196" type="curve" smooth="yes"/>
      <point x="179" y="448" type="line"/>
      <point x="68" y="448" type="line"/>
      <point x="68" y="176" type="line" smooth="yes"/>
      <point x="68" y="114"/>
      <point x="75" y="81"/>
      <point x="92" y="54" type="curve" smooth="yes"/>
      <point x="119" y="13"/>
      <point x="169" y="-11"/>
      <point x="228" y="-11" type="curve" smooth="yes"/>
      <point x="285" y="-11"/>
      <point x="320" y="6"/>
      <point x="369" y="55" type="curve"/>
    </contour>
  </outline>
</glyph>
<glyph name="v" format="2">
  <advance width="454"/>
  <unicode hex="0076"/>
  <outline>
    <contour>
      <point x="172" y="0" type="line"/>
      <point x="276" y="0" type="line"/>
      <point x="460" y="448" type="line"/>
      <point x="354" y="448" type="line"/>
      <point x="235" y="153" type="line"/>
      <point x="124" y="448" type="line"/>
      <point x="7" y="448" type="line"/>
    </contour>
  </outline>
</glyph>
<glyph name="w" format="2">
  <advance width="722"/>
  <unicode hex="0077"/>
  <outline>
    <contour>
      <point x="714" y="448" type="line"/>
      <point x="607" y="448" type="line"/>
      <point x="510" y="154" type="line"/>
      <point x="420" y="448" type="line"/>
      <point x="321" y="448" type="line"/>
      <point x="221" y="153" type="line"/>
      <point x="135" y="448" type="line"/>
      <point x="19" y="448" type="line"/>
      <point x="152" y="0" type="line"/>
      <point x="263" y="0" type="line"/>
      <point x="362" y="296" type="line"/>
      <point x="450" y="0" type="line"/>
      <point x="559" y="0" type="line"/>
    </contour>
  </outline>
</glyph>
<glyph name="x" format="2">
  <advance width="442"/>
  <unicode hex="0078"/>
  <outline>
    <contour>
      <point x="424" y="448" type="line"/>
      <point x="306" y="448" type="line"/>
      <point x="226" y="325" type="line"/>
      <point x="154" y="448" type="line"/>
      <point x="27" y="448" type="line"/>
      <point x="159" y="240" type="line"/>
      <point x="-10" y="0" type="line"/>
      <point x="114" y="0" type="line"/>
      <point x="215" y="160" type="line"/>
      <point x="309" y="0" type="line"/>
      <point x="437" y="0" type="line"/>
      <point x="284" y="243" type="line"/>
    </contour>
  </outline>
</glyph>
<glyph name="y" format="2">
  <advance width="455"/>
  <unicode hex="0079"/>
  <outline>
    <contour>
      <point x="465" y="448" type="line"/>
      <point x="356" y="448" type="line"/>
      <point x="234" y="150" type="line"/>
      <point x="126" y="448" type="line"/>
      <point x="4" y="448" type="line"/>
      <point x="170" y="18" type="line"/>
      <point x="138" y="-55" type="line" smooth="yes"/>
      <point x="116" y="-106"/>
      <point x="77" y="-134"/>
      <point x="29" y="-134" type="curve" smooth="yes"/>
      <point x="12" y="-134"/>
      <point x="-2" y="-131"/>
      <point x="-32" y="-122" type="curve"/>
      <point x="-13" y="-217" type="line"/>
      <point x="17" y="-223"/>
      <point x="32" y="-225"/>
      <point x="50" y="-225" type="curve" smooth="yes"/>
      <point x="149" y="-225"/>
      <point x="195" y="-179"/>
      <point x="270" y="-4" type="curve" smooth="yes"/>
    </contour>
  </outline>
</glyph>
<glyph name="z" format="2">
  <advance width="446"/>
  <unicode hex="007A"/>
  <outline>
    <contour>
      <point x="43" y="448" type="line"/>
      <point x="43" y="358" type="line"/>
      <point x="275" y="358" type="line"/>
      <point x="17" y="82" type="line"/>
      <point x="17" y="0" type="line"/>
      <point x="428" y="0" type="line"/>
      <point x="428" y="90" type="line"/>
      <point x="164" y="90" type="line"/>
      <point x="416" y="361" type="line"/>
      <point x="416" y="448" type="line"/>
    </contour>
  </outline>
</glyph>
<glyph name="braceleft" format="2">
  <advance width="280"/>
  <unicode hex="007B"/>
  <outline>
    <contour>
      <point x="260" y="696" type="line"/>
      <point x="230" y="696" type="line" smooth="yes"/>
      <point x="176" y="696"/>
      <point x="144" y="686"/>
      <point x="122" y="662" type="curve" smooth="yes"/>
      <point x="97" y="634"/>
      <point x="90" y="604"/>
      <point x="90" y="528" type="curve" smooth="yes"/>
      <point x="90" y="445" type="line" smooth="yes"/>
      <point x="90" y="351"/>
      <point x="71" y="320"/>
      <point x="11" y="317" type="curve"/>
      <point x="11" y="294" type="line"/>
      <point x="77" y="290"/>
      <point x="90" y="272"/>
      <point x="90" y="191" type="curve" smooth="yes"/>
      <point x="90" y="42" type="line" smooth="yes"/>
      <point x="90" y="-44"/>
      <point x="138" y="-87"/>
      <point x="234" y="-87" type="curve" smooth="yes"/>
      <point x="242" y="-87"/>
      <point x="242" y="-87"/>
      <point x="260" y="-86" type="curve"/>
      <point x="260" y="-63" type="line"/>
      <point x="193" y="-54"/>
      <point x="174" y="-27"/>
      <point x="174" y="57" type="curve" smooth="yes"/>
      <point x="174" y="172" type="line" smooth="yes"/>
      <point x="174" y="257"/>
      <point x="152" y="290"/>
      <point x="85" y="307" type="curve"/>
      <point x="161" y="338"/>
      <point x="174" y="361"/>
      <point x="174" y="462" type="curve" smooth="yes"/>
      <point x="174" y="528" type="line" smooth="yes"/>
      <point x="174" y="594"/>
      <point x="179" y="619"/>
      <point x="199" y="642" type="curve" smooth="yes"/>
      <point x="214" y="661"/>
      <point x="231" y="669"/>
      <point x="260" y="672" type="curve"/>
    </contour>
  </outline>
</glyph>
<glyph name="bar" format="2">
  <advance width="563"/>
  <unicode hex="007C"/>
  <outline>
    <contour>
      <point x="253" y="667" type="line"/>
      <point x="253" y="-167" type="line"/>
      <point x="311" y="-167" type="line"/>
      <point x="311" y="667" type="line"/>
    </contour>
  </outline>
</glyph>
<glyph name="braceright" format="2">
  <advance width="280"/>
  <unicode hex="007D"/>
  <outline>
    <contour>
      <point x="20" y="672" type="line"/>
      <point x="47" y="670"/>
      <point x="61" y="663"/>
      <point x="77" y="647" type="curve" smooth="yes"/>
      <point x="100" y="624"/>
      <point x="106" y="598"/>
      <point x="106" y="528" type="curve" smooth="yes"/>
      <point x="106" y="462" type="line" smooth="yes"/>
      <point x="106" y="361"/>
      <point x="119" y="338"/>
      <point x="195" y="307" type="curve"/>
      <point x="127" y="289"/>
      <point x="106" y="257"/>
      <point x="106" y="172" type="curve" smooth="yes"/>
      <point x="106" y="57" type="line" smooth="yes"/>
      <point x="106" y="-27"/>
      <point x="87" y="-54"/>
      <point x="20" y="-63" type="curve"/>
      <point x="20" y="-86" type="line"/>
      <point x="37" y="-87"/>
      <point x="38" y="-87"/>
      <point x="46" y="-87" type="curve" smooth="yes"/>
      <point x="142" y="-87"/>
      <point x="190" y="-44"/>
      <point x="190" y="42" type="curve" smooth="yes"/>
      <point x="190" y="191" type="line" smooth="yes"/>
      <point x="190" y="272"/>
      <point x="203" y="290"/>
      <point x="269" y="294" type="curve"/>
      <point x="269" y="317" type="line"/>
      <point x="209" y="320"/>
      <point x="190" y="351"/>
      <point x="190" y="445" type="curve" smooth="yes"/>
      <point x="190" y="528" type="line" smooth="yes"/>
      <point x="190" y="605"/>
      <point x="183" y="634"/>
      <point x="158" y="662" type="curve" smooth="yes"/>
      <point x="136" y="686"/>
      <point x="103" y="696"/>
      <point x="50" y="696" type="curve" smooth="yes"/>
      <point x="20" y="696" type="line"/>
    </contour>
  </outline>
</glyph>
<glyph name="asciitilde" format="2">
  <advance width="483"/>
  <unicode hex="007E"/>
  <outline>
    <contour>
      <point x="45" y="590" type="line"/>
      <point x="76" y="619"/>
      <point x="106" y="633"/>
      <point x="137" y="633" type="curve" smooth="yes"/>
      <point x="154" y="633"/>
      <point x="176" y="628"/>
      <point x="223" y="611" type="curve" smooth="yes"/>
      <point x="274" y="593"/>
      <point x="295" y="588" name="hr01"/>
      <point x="321" y="588" type="curve" smooth="yes"/>
      <point x="366" y="588"/>
      <point x="407" y="608"/>
      <point x="447" y="648" type="curve"/>
      <point x="435" y="702" type="line"/>
      <point x="397" y="664"/>
      <point x="366" y="649"/>
      <point x="329" y="649" type="curve" smooth="yes"/>
      <point x="307" y="649"/>
      <point x="284" y="655"/>
      <point x="239" y="671" type="curve" smooth="yes"/>
      <point x="193" y="688"/>
      <point x="170" y="694" name="hr02"/>
      <point x="147" y="694" type="curve" smooth="yes"/>
      <point x="108" y="694"/>
      <point x="72" y="678"/>
      <point x="28" y="641" type="curve"/>
    </contour>
  </outline>
</glyph>
<glyph name="exclamdown" format="2">
  <advance width="267"/>
  <unicode hex="00A1"/>
  <outline>
    <contour>
      <point x="190" y="-145" type="line"/>
      <point x="190" y="35" type="line"/>
      <point x="170" y="315" type="line"/>
      <point x="99" y="315" type="line"/>
      <point x="79" y="35" type="line"/>
      <point x="79" y="-145" type="line"/>
    </contour>
    <contour>
      <point x="133" y="537" type="curve" smooth="yes"/>
      <point x="95" y="537"/>
      <point x="65" y="507" name="hr01"/>
      <point x="65" y="469" type="curve" smooth="yes"/>
      <point x="65" y="431"/>
      <point x="95" y="401"/>
      <point x="133" y="401" type="curve" smooth="yes"/>
      <point x="171" y="401"/>
      <point x="201" y="431"/>
      <point x="201" y="468" type="curve" smooth="yes"/>
      <point x="201" y="507"/>
      <point x="172" y="537"/>
    </contour>
  </outline>
</glyph>
<glyph name="cent" format="2">
  <advance width="548"/>
  <unicode hex="00A2"/>
  <outline>
    <contour>
      <point x="393" y="248" type="line"/>
      <point x="369" y="198"/>
      <point x="351" y="184"/>
      <point x="312" y="180" type="curve"/>
      <point x="312" y="493" type="line"/>
      <point x="354" y="491"/>
      <point x="373" y="475"/>
      <point x="393" y="424" type="curve"/>
      <point x="484" y="459" type="line"/>
      <point x="455" y="533"/>
      <point x="407" y="563"/>
      <point x="312" y="564" type="curve"/>
      <point x="312" y="632" type="line"/>
      <point x="269" y="632" type="line"/>
      <point x="269" y="564" type="line"/>
      <point x="215" y="560"/>
      <point x="185" y="550"/>
      <point x="153" y="525" type="curve" smooth="yes"/>
      <point x="99" y="484"/>
      <point x="70" y="417"/>
      <point x="70" y="333" type="curve" smooth="yes"/>
      <point x="70" y="260"/>
      <point x="91" y="200"/>
      <point x="130" y="160" type="curve" smooth="yes"/>
      <point x="166" y="123"/>
      <point x="205" y="107"/>
      <point x="269" y="103" type="curve"/>
      <point x="269" y="15" type="line"/>
      <point x="312" y="15" type="line"/>
      <point x="312" y="103" type="line"/>
      <point x="394" y="107"/>
      <point x="451" y="142"/>
      <point x="483" y="210" type="curve"/>
    </contour>
    <contour>
      <point x="269" y="181" type="line"/>
      <point x="206" y="198"/>
      <point x="179" y="243"/>
      <point x="179" y="332" type="curve" smooth="yes"/>
      <point x="179" y="429"/>
      <point x="209" y="481"/>
      <point x="269" y="491" type="curve"/>
    </contour>
  </outline>
</glyph>
<glyph name="sterling" format="2">
  <advance width="563"/>
  <unicode hex="00A3"/>
  <outline>
    <contour>
      <point x="281" y="392" type="line"/>
      <point x="287" y="445" type="line" smooth="yes"/>
      <point x="298" y="547"/>
      <point x="333" y="592"/>
      <point x="402" y="592" type="curve" smooth="yes"/>
      <point x="439" y="592"/>
      <point x="465" y="581"/>
      <point x="500" y="549" type="curve"/>
      <point x="517" y="641" type="line"/>
      <point x="470" y="668"/>
      <point x="432" y="679"/>
      <point x="383" y="679" type="curve" smooth="yes"/>
      <point x="320" y="679"/>
      <point x="265" y="654"/>
      <point x="229" y="609" type="curve" smooth="yes"/>
      <point x="201" y="574"/>
      <point x="185" y="526"/>
      <point x="178" y="453" type="curve" smooth="yes"/>
      <point x="172" y="392" type="line"/>
      <point x="84" y="392" type="line"/>
      <point x="84" y="306" type="line"/>
      <point x="164" y="306" type="line"/>
      <point x="152" y="142"/>
      <point x="123" y="93"/>
      <point x="36" y="90" type="curve"/>
      <point x="36" y="0" type="line"/>
      <point x="507" y="0" type="line"/>
      <point x="507" y="92" type="line" name="hr01"/>
      <point x="196" y="92" type="line"/>
      <point x="241" y="130"/>
      <point x="258" y="179"/>
      <point x="274" y="306" type="curve"/>
      <point x="445" y="306" type="line"/>
      <point x="445" y="392" type="line"/>
    </contour>
  </outline>
</glyph>
<glyph name="currency" format="2">
  <advance width="517"/>
  <unicode hex="00A4"/>
  <outline>
    <contour>
      <point x="23" y="421" type="line"/>
      <point x="124" y="323" type="line"/>
      <point x="103" y="293"/>
      <point x="95" y="267"/>
      <point x="95" y="234" type="curve" smooth="yes"/>
      <point x="95" y="201"/>
      <point x="103" y="175"/>
      <point x="124" y="141" type="curve"/>
      <point x="23" y="42" type="line"/>
      <point x="63" y="-1" type="line"/>
      <point x="163" y="101" type="line"/>
      <point x="198" y="79"/>
      <point x="224" y="71"/>
      <point x="259" y="71" type="curve" smooth="yes"/>
      <point x="293" y="71"/>
      <point x="318" y="79"/>
      <point x="348" y="100" type="curve"/>
      <point x="447" y="-2" type="line"/>
      <point x="488" y="38" type="line"/>
      <point x="388" y="140" type="line"/>
      <point x="409" y="170"/>
      <point x="417" y="197"/>
      <point x="417" y="231" type="curve" smooth="yes"/>
      <point x="417" y="265"/>
      <point x="409" y="292"/>
      <point x="388" y="323" type="curve"/>
      <point x="485" y="421" type="line"/>
      <point x="445" y="461" type="line"/>
      <point x="347" y="364" type="line"/>
      <point x="313" y="384"/>
      <point x="288" y="392"/>
      <point x="256" y="392" type="curve" smooth="yes"/>
      <point x="224" y="392"/>
      <point x="200" y="384"/>
      <point x="164" y="363" type="curve"/>
      <point x="65" y="463" type="line"/>
    </contour>
    <contour>
      <point x="257" y="342" type="curve" smooth="yes"/>
      <point x="318" y="342"/>
      <point x="367" y="293"/>
      <point x="367" y="232" type="curve" smooth="yes"/>
      <point x="367" y="170"/>
      <point x="319" y="121"/>
      <point x="258" y="121" type="curve" smooth="yes"/>
      <point x="195" y="121"/>
      <point x="146" y="171"/>
      <point x="146" y="234" type="curve" smooth="yes"/>
      <point x="146" y="293"/>
      <point x="196" y="342"/>
    </contour>
  </outline>
</glyph>
<glyph name="yen" format="2">
  <advance width="582"/>
  <unicode hex="00A5"/>
  <outline>
    <contour>
      <point x="447" y="667" type="line"/>
      <point x="294" y="407" type="line"/>
      <point x="145" y="667" type="line"/>
      <point x="7" y="667" type="line"/>
      <point x="145" y="435" type="line"/>
      <point x="38" y="435" type="line"/>
      <point x="38" y="382" type="line"/>
      <point x="177" y="382" type="line"/>
      <point x="210" y="327" type="line"/>
      <point x="219" y="300" type="line"/>
      <point x="38" y="300" type="line"/>
      <point x="38" y="246" type="line"/>
      <point x="229" y="246" type="line"/>
      <point x="229" y="0" type="line"/>
      <point x="343" y="0" type="line"/>
      <point x="343" y="246" type="line"/>
      <point x="543" y="246" type="line"/>
      <point x="543" y="300" type="line"/>
      <point x="349" y="300" type="line"/>
      <point x="357" y="324" type="line"/>
      <point x="392" y="382" type="line"/>
      <point x="543" y="382" type="line"/>
      <point x="543" y="435" type="line"/>
      <point x="424" y="435" type="line"/>
      <point x="565" y="667" type="line"/>
    </contour>
  </outline>
</glyph>
<glyph name="brokenbar" format="2">
  <advance width="563"/>
  <unicode hex="00A6"/>
  <outline>
    <contour>
      <point x="226" y="667" type="line"/>
      <point x="226" y="324" type="line"/>
      <point x="337" y="324" type="line"/>
      <point x="337" y="667" type="line"/>
    </contour>
    <contour>
      <point x="226" y="153" type="line"/>
      <point x="226" y="-167" type="line"/>
      <point x="337" y="-167" type="line"/>
      <point x="337" y="153" type="line"/>
    </contour>
  </outline>
</glyph>
<glyph name="section" format="2">
  <advance width="563"/>
  <unicode hex="00A7"/>
  <outline>
    <contour>
      <point x="496" y="563" type="line"/>
      <point x="479" y="608"/>
      <point x="463" y="630"/>
      <point x="430" y="650" type="curve" smooth="yes"/>
      <point x="395" y="671"/>
      <point x="351" y="682"/>
      <point x="299" y="682" type="curve" smooth="yes"/>
      <point x="230" y="682"/>
      <point x="177" y="662"/>
      <point x="140" y="622" type="curve" smooth="yes"/>
      <point x="112" y="592"/>
      <point x="96" y="550"/>
      <point x="96" y="508" type="curve" smooth="yes"/>
      <point x="96" y="480"/>
      <point x="101" y="461"/>
      <point x="118" y="423" type="curve"/>
      <point x="73" y="382"/>
      <point x="54" y="343" name="hr01"/>
      <point x="54" y="290" type="curve" smooth="yes"/>
      <point x="54" y="234"/>
      <point x="81" y="182"/>
      <point x="125" y="152" type="curve" smooth="yes"/>
      <point x="149" y="136"/>
      <point x="214" y="110"/>
      <point x="293" y="85" type="curve" smooth="yes"/>
      <point x="361" y="64"/>
      <point x="375" y="51"/>
      <point x="375" y="9" type="curve" smooth="yes"/>
      <point x="375" y="-48"/>
      <point x="331" y="-87"/>
      <point x="266" y="-87" type="curve" smooth="yes"/>
      <point x="193" y="-87"/>
      <point x="153" y="-48"/>
      <point x="138" y="38" type="curve"/>
      <point x="36" y="-4" type="line"/>
      <point x="47" y="-52"/>
      <point x="58" y="-77"/>
      <point x="82" y="-105" type="curve" smooth="yes"/>
      <point x="120" y="-149"/>
      <point x="188" y="-175"/>
      <point x="267" y="-175" type="curve" smooth="yes"/>
      <point x="397" y="-175"/>
      <point x="492" y="-91"/>
      <point x="492" y="24" type="curve" smooth="yes"/>
      <point x="492" y="66"/>
      <point x="482" y="91"/>
      <point x="451" y="130" type="curve"/>
      <point x="493" y="175"/>
      <point x="511" y="214" name="hr02"/>
      <point x="511" y="260" type="curve" smooth="yes"/>
      <point x="511" y="295"/>
      <point x="496" y="330"/>
      <point x="471" y="352" type="curve" smooth="yes"/>
      <point x="444" y="377"/>
      <point x="413" y="392"/>
      <point x="339" y="416" type="curve" smooth="yes"/>
      <point x="276" y="436"/>
      <point x="264" y="441"/>
      <point x="243" y="453" type="curve" smooth="yes"/>
      <point x="217" y="469"/>
      <point x="204" y="492"/>
      <point x="204" y="522" type="curve" smooth="yes"/>
      <point x="204" y="572"/>
      <point x="238" y="602"/>
      <point x="295" y="602" type="curve" smooth="yes"/>
      <point x="354" y="602"/>
      <point x="385" y="575"/>
      <point x="402" y="510" type="curve"/>
    </contour>
    <contour>
      <point x="174" y="367" type="curve"/>
      <point x="210" y="350"/>
      <point x="224" y="345"/>
      <point x="275" y="327" type="curve" smooth="yes"/>
      <point x="346" y="303"/>
      <point x="358" y="298"/>
      <point x="377" y="286" type="curve" smooth="yes"/>
      <point x="396" y="273"/>
      <point x="409" y="251"/>
      <point x="409" y="231" type="curve" smooth="yes"/>
      <point x="409" y="210"/>
      <point x="399" y="189"/>
      <point x="377" y="165" type="curve"/>
      <point x="361" y="172"/>
      <point x="347" y="177"/>
      <point x="342" y="179" type="curve" smooth="yes"/>
      <point x="338" y="181"/>
      <point x="312" y="190"/>
      <point x="273" y="203" type="curve" smooth="yes"/>
      <point x="222" y="221"/>
      <point x="200" y="230"/>
      <point x="184" y="243" type="curve" smooth="yes"/>
      <point x="165" y="257"/>
      <point x="151" y="286" name="hr03"/>
      <point x="151" y="310" type="curve" smooth="yes"/>
      <point x="151" y="330"/>
      <point x="157" y="346"/>
    </contour>
  </outline>
</glyph>
<glyph name="dieresis" format="2">
  <advance width="500"/>
  <unicode hex="00A8"/>
  <outline>
    <contour>
      <point x="146" y="672" type="curve" smooth="yes"/>
      <point x="110" y="672"/>
      <point x="83" y="645"/>
      <point x="83" y="611" type="curve" smooth="yes"/>
      <point x="83" y="575"/>
      <point x="110" y="548"/>
      <point x="145" y="548" type="curve" smooth="yes"/>
      <point x="180" y="548"/>
      <point x="207" y="575"/>
      <point x="207" y="610" type="curve" smooth="yes"/>
      <point x="207" y="645"/>
      <point x="180" y="672"/>
    </contour>
    <contour>
      <point x="341" y="672" type="curve" smooth="yes"/>
      <point x="306" y="672"/>
      <point x="279" y="645"/>
      <point x="279" y="611" type="curve" smooth="yes"/>
      <point x="279" y="575"/>
      <point x="305" y="548"/>
      <point x="340" y="548" type="curve" smooth="yes"/>
      <point x="375" y="548"/>
      <point x="403" y="575"/>
      <point x="403" y="610" type="curve" smooth="yes"/>
      <point x="403" y="645"/>
      <point x="376" y="672"/>
    </contour>
  </outline>
</glyph>
<glyph name="copyright" format="2">
  <advance width="759"/>
  <unicode hex="00A9"/>
  <outline>
    <contour>
      <point x="549" y="453" type="line"/>
      <point x="503" y="521"/>
      <point x="471" y="538"/>
      <point x="392" y="538" type="curve" smooth="yes"/>
      <point x="265" y="538"/>
      <point x="183" y="458"/>
      <point x="183" y="334" type="curve" smooth="yes"/>
      <point x="183" y="206"/>
      <point x="258" y="132"/>
      <point x="388" y="132" type="curve" smooth="yes"/>
      <point x="467" y="132"/>
      <point x="505" y="151"/>
      <point x="549" y="216" type="curve"/>
      <point x="482" y="257" type="line"/>
      <point x="462" y="212"/>
      <point x="437" y="195"/>
      <point x="389" y="195" type="curve" smooth="yes"/>
      <point x="313" y="195"/>
      <point x="269" y="245"/>
      <point x="269" y="331" type="curve" smooth="yes"/>
      <point x="269" y="421"/>
      <point x="315" y="475"/>
      <point x="389" y="475" type="curve" smooth="yes"/>
      <point x="439" y="475"/>
      <point x="465" y="458"/>
      <point x="482" y="412" type="curve"/>
    </contour>
    <contour>
      <point x="385" y="681" type="curve" smooth="yes"/>
      <point x="188" y="681"/>
      <point x="33" y="527"/>
      <point x="33" y="333" type="curve" smooth="yes"/>
      <point x="33" y="142"/>
      <point x="189" y="-14"/>
      <point x="380" y="-14" type="curve" smooth="yes"/>
      <point x="571" y="-14"/>
      <point x="726" y="142"/>
      <point x="726" y="333" type="curve" smooth="yes"/>
      <point x="726" y="523"/>
      <point x="571" y="681"/>
    </contour>
    <contour>
      <point x="384" y="621" type="curve" smooth="yes"/>
      <point x="535" y="621"/>
      <point x="661" y="490"/>
      <point x="661" y="333" type="curve" smooth="yes"/>
      <point x="661" y="175"/>
      <point x="535" y="46"/>
      <point x="380" y="46" type="curve" smooth="yes"/>
      <point x="225" y="46"/>
      <point x="98" y="175"/>
      <point x="98" y="333" type="curve" smooth="yes"/>
      <point x="98" y="494"/>
      <point x="224" y="621"/>
    </contour>
  </outline>
</glyph>
<glyph name="ordfeminine" format="2">
  <advance width="357"/>
  <unicode hex="00AA"/>
  <outline>
    <contour>
      <point x="308" y="667" type="line"/>
      <point x="230" y="667" type="line"/>
      <point x="230" y="641" type="line"/>
      <point x="209" y="664"/>
      <point x="184" y="674" name="hr01"/>
      <point x="152" y="674" type="curve" smooth="yes"/>
      <point x="76" y="674"/>
      <point x="24" y="617"/>
      <point x="24" y="533" type="curve" smooth="yes"/>
      <point x="24" y="451"/>
      <point x="75" y="394"/>
      <point x="149" y="394" type="curve" smooth="yes"/>
      <point x="181" y="394"/>
      <point x="208" y="404"/>
      <point x="230" y="425" type="curve"/>
      <point x="235" y="400" type="line"/>
      <point x="308" y="400" type="line"/>
    </contour>
    <contour>
      <point x="167" y="618" type="curve" smooth="yes"/>
      <point x="207" y="618"/>
      <point x="232" y="585"/>
      <point x="232" y="534" type="curve" smooth="yes"/>
      <point x="232" y="483"/>
      <point x="207" y="450"/>
      <point x="167" y="450" type="curve" smooth="yes"/>
      <point x="127" y="450"/>
      <point x="102" y="483"/>
      <point x="102" y="535" type="curve" smooth="yes"/>
      <point x="102" y="585"/>
      <point x="128" y="618"/>
    </contour>
  </outline>
</glyph>
<glyph name="guillemotleft" format="2">
  <advance width="426"/>
  <unicode hex="00AB"/>
  <outline>
    <contour>
      <point x="380" y="0" type="line"/>
      <point x="312" y="225" type="line"/>
      <point x="376" y="448" type="line"/>
      <point x="324" y="448" type="line"/>
      <point x="205" y="225" type="line"/>
      <point x="324" y="0" type="line"/>
    </contour>
    <contour>
      <point x="214" y="0" type="line"/>
      <point x="146" y="225" type="line"/>
      <point x="210" y="448" type="line"/>
      <point x="158" y="448" type="line"/>
      <point x="39" y="225" type="line"/>
      <point x="158" y="0" type="line"/>
    </contour>
  </outline>
</glyph>
<glyph name="logicalnot" format="2">
  <advance width="575"/>
  <unicode hex="00AC"/>
  <outline>
    <contour>
      <point x="27" y="330" type="line"/>
      <point x="27" y="273" type="line"/>
      <point x="472" y="273" type="line"/>
      <point x="472" y="50" type="line"/>
      <point x="532" y="50" type="line"/>
      <point x="532" y="330" type="line"/>
    </contour>
  </outline>
</glyph>
<glyph name="softhyphen" format="2">
  <advance width="230"/>
  <unicode hex="00AD"/>
  <outline>
    <contour>
      <point x="0" y="279" type="line"/>
      <point x="0" y="202" type="line"/>
      <point x="230" y="202" type="line"/>
      <point x="230" y="279" type="line"/>
    </contour>
  </outline>
</glyph>
<glyph name="registered" format="2">
  <advance width="759"/>
  <unicode hex="00AE"/>
  <outline>
    <contour>
      <point x="251" y="139" type="line"/>
      <point x="331" y="139" type="line"/>
      <point x="331" y="301" type="line"/>
      <point x="364" y="301" type="line"/>
      <point x="454" y="139" type="line"/>
      <point x="545" y="139" type="line"/>
      <point x="442" y="315" type="line"/>
      <point x="495" y="343"/>
      <point x="517" y="375"/>
      <point x="517" y="422" type="curve" smooth="yes"/>
      <point x="517" y="464"/>
      <point x="495" y="500"/>
      <point x="461" y="516" type="curve" smooth="yes"/>
      <point x="440" y="525"/>
      <point x="421" y="528"/>
      <point x="371" y="528" type="curve" smooth="yes"/>
      <point x="251" y="528" type="line"/>
    </contour>
    <contour>
      <point x="331" y="363" type="line"/>
      <point x="331" y="464" type="line"/>
      <point x="354" y="464" type="line" smooth="yes"/>
      <point x="391" y="464"/>
      <point x="393" y="464"/>
      <point x="403" y="461" type="curve" smooth="yes"/>
      <point x="423" y="456"/>
      <point x="433" y="441"/>
      <point x="433" y="419" type="curve" smooth="yes"/>
      <point x="433" y="380"/>
      <point x="410" y="363"/>
      <point x="357" y="363" type="curve" smooth="yes"/>
    </contour>
    <contour>
      <point x="385" y="681" type="curve" smooth="yes"/>
      <point x="188" y="681"/>
      <point x="33" y="527"/>
      <point x="33" y="333" type="curve" smooth="yes"/>
      <point x="33" y="142"/>
      <point x="189" y="-14"/>
      <point x="380" y="-14" type="curve" smooth="yes"/>
      <point x="571" y="-14"/>
      <point x="726" y="142"/>
      <point x="726" y="333" type="curve" smooth="yes"/>
      <point x="726" y="523"/>
      <point x="571" y="681"/>
    </contour>
    <contour>
      <point x="384" y="621" type="curve" smooth="yes"/>
      <point x="535" y="621"/>
      <point x="661" y="490"/>
      <point x="661" y="333" type="curve" smooth="yes"/>
      <point x="661" y="175"/>
      <point x="535" y="46"/>
      <point x="380" y="46" type="curve" smooth="yes"/>
      <point x="225" y="46"/>
      <point x="98" y="175"/>
      <point x="98" y="333" type="curve" smooth="yes"/>
      <point x="98" y="494"/>
      <point x="224" y="621"/>
    </contour>
  </outline>
</glyph>
<glyph name="macron" format="2">
  <advance width="500"/>
  <unicode hex="00AF"/>
  <unicode hex="02C9"/>
  <outline>
    <contour>
      <point x="114" y="640" type="line"/>
      <point x="114" y="583" type="line"/>
      <point x="386" y="583" type="line"/>
      <point x="386" y="640" type="line"/>
    </contour>
  </outline>
</glyph>
<glyph name="degree" format="2">
  <advance width="360"/>
  <unicode hex="00B0"/>
  <outline>
    <contour>
      <point x="180" y="674" type="curve" smooth="yes"/>
      <point x="99" y="674"/>
      <point x="31" y="608"/>
      <point x="31" y="530" type="curve" smooth="yes"/>
      <point x="31" y="447"/>
      <point x="97" y="381"/>
      <point x="180" y="381" type="curve" smooth="yes"/>
      <point x="262" y="381"/>
      <point x="329" y="447"/>
      <point x="329" y="528" type="curve" smooth="yes"/>
      <point x="329" y="608"/>
      <point x="262" y="674"/>
    </contour>
    <contour>
      <point x="180" y="610" type="curve" smooth="yes"/>
      <point x="226" y="610"/>
      <point x="264" y="573"/>
      <point x="264" y="528" type="curve" smooth="yes"/>
      <point x="264" y="483"/>
      <point x="226" y="445"/>
      <point x="180" y="445" type="curve" smooth="yes"/>
      <point x="133" y="445"/>
      <point x="96" y="482"/>
      <point x="96" y="529" type="curve" smooth="yes"/>
      <point x="96" y="573"/>
      <point x="134" y="610"/>
    </contour>
  </outline>
</glyph>
<glyph name="plusminus" format="2">
  <advance width="561"/>
  <unicode hex="00B1"/>
  <outline>
    <contour>
      <point x="27" y="371" type="line"/>
      <point x="27" y="317" type="line"/>
      <point x="253" y="317" type="line"/>
      <point x="253" y="91" type="line"/>
      <point x="308" y="91" type="line"/>
      <point x="308" y="317" type="line"/>
      <point x="535" y="317" type="line"/>
      <point x="535" y="371" type="line"/>
      <point x="308" y="371" type="line"/>
      <point x="308" y="594" type="line"/>
      <point x="253" y="594" type="line"/>
      <point x="253" y="371" type="line"/>
    </contour>
    <contour>
      <point x="27" y="54" type="line"/>
      <point x="27" y="0" type="line"/>
      <point x="535" y="0" type="line"/>
      <point x="535" y="54" type="line"/>
    </contour>
  </outline>
</glyph>
<glyph name="twosuperior" format="2">
  <advance width="362"/>
  <unicode hex="00B2"/>
  <outline>
    <contour>
      <point x="312" y="330" type="line"/>
      <point x="146" y="330" type="line"/>
      <point x="267" y="449"/>
      <point x="301" y="501"/>
      <point x="301" y="567" type="curve" smooth="yes"/>
      <point x="301" y="637"/>
      <point x="255" y="675"/>
      <point x="171" y="675" type="curve" smooth="yes"/>
      <point x="102" y="675"/>
      <point x="70" y="651"/>
      <point x="45" y="577" type="curve"/>
      <point x="114" y="539" type="line"/>
      <point x="121" y="592"/>
      <point x="136" y="611"/>
      <point x="171" y="611" type="curve" smooth="yes"/>
      <point x="203" y="611"/>
      <point x="222" y="591"/>
      <point x="222" y="559" type="curve" smooth="yes"/>
      <point x="222" y="498"/>
      <point x="181" y="443"/>
      <point x="43" y="322" type="curve"/>
      <point x="43" y="267" type="line"/>
      <point x="312" y="267" type="line"/>
    </contour>
  </outline>
</glyph>
<glyph name="threesuperior" format="2">
  <advance width="362"/>
  <unicode hex="00B3"/>
  <outline>
    <contour>
      <point x="125" y="446" type="line"/>
      <point x="138" y="448"/>
      <point x="153" y="450"/>
      <point x="159" y="450" type="curve" smooth="yes"/>
      <point x="203" y="450"/>
      <point x="230" y="426"/>
      <point x="230" y="388" type="curve" smooth="yes"/>
      <point x="230" y="348"/>
      <point x="203" y="321"/>
      <point x="164" y="321" type="curve" smooth="yes"/>
      <point x="130" y="321"/>
      <point x="110" y="336"/>
      <point x="94" y="375" type="curve"/>
      <point x="26" y="341" type="line"/>
      <point x="63" y="277"/>
      <point x="94" y="258"/>
      <point x="161" y="258" type="curve" smooth="yes"/>
      <point x="251" y="258"/>
      <point x="311" y="311"/>
      <point x="311" y="391" type="curve" smooth="yes"/>
      <point x="311" y="439"/>
      <point x="285" y="472"/>
      <point x="238" y="485" type="curve"/>
      <point x="273" y="506"/>
      <point x="292" y="537" name="hr01"/>
      <point x="292" y="575" type="curve" smooth="yes"/>
      <point x="292" y="637"/>
      <point x="243" y="675"/>
      <point x="165" y="675" type="curve" smooth="yes"/>
      <point x="100" y="675"/>
      <point x="67" y="653"/>
      <point x="45" y="594" type="curve"/>
      <point x="113" y="564" type="line"/>
      <point x="123" y="601"/>
      <point x="138" y="615"/>
      <point x="166" y="615" type="curve" smooth="yes"/>
      <point x="195" y="615"/>
      <point x="212" y="598"/>
      <point x="212" y="568" type="curve" smooth="yes"/>
      <point x="212" y="532"/>
      <point x="184" y="509"/>
      <point x="139" y="509" type="curve" smooth="yes"/>
      <point x="125" y="509" type="line"/>
    </contour>
  </outline>
</glyph>
<glyph name="micro" format="2">
  <advance width="503"/>
  <unicode hex="00B5"/>
  <outline>
    <contour>
      <point x="65" y="446" type="line"/>
      <point x="70" y="64" type="line"/>
      <point x="70" y="-10"/>
      <point x="65" y="-107"/>
      <point x="58" y="-180" type="curve"/>
      <point x="147" y="-180" type="line"/>
      <point x="143" y="30" type="line"/>
      <point x="175" y="3"/>
      <point x="200" y="-7"/>
      <point x="237" y="-7" type="curve" smooth="yes"/>
      <point x="281" y="-7"/>
      <point x="308" y="6"/>
      <point x="349" y="45" type="curve"/>
      <point x="349" y="0" type="line"/>
      <point x="436" y="0" type="line"/>
      <point x="436" y="446" type="line"/>
      <point x="347" y="446" type="line"/>
      <point x="347" y="213" type="line" smooth="yes"/>
      <point x="347" y="150"/>
      <point x="343" y="130"/>
      <point x="325" y="109" type="curve" smooth="yes"/>
      <point x="306" y="87"/>
      <point x="276" y="75"/>
      <point x="243" y="75" type="curve" smooth="yes"/>
      <point x="214" y="75"/>
      <point x="190" y="85"/>
      <point x="174" y="104" type="curve" smooth="yes"/>
      <point x="156" y="126"/>
      <point x="153" y="142"/>
      <point x="153" y="208" type="curve" smooth="yes"/>
      <point x="153" y="446" type="line"/>
    </contour>
  </outline>
</glyph>
<glyph name="paragraph" format="2">
  <advance width="507"/>
  <unicode hex="00B6"/>
  <outline>
    <contour>
      <point x="360" y="620" type="line"/>
      <point x="360" y="-86" type="line"/>
      <point x="408" y="-86" type="line"/>
      <point x="408" y="626" type="line"/>
      <point x="491" y="634" type="line"/>
      <point x="491" y="667" type="line"/>
      <point x="228" y="667" type="line" smooth="yes"/>
      <point x="159" y="667"/>
      <point x="122" y="660"/>
      <point x="91" y="640" type="curve" smooth="yes"/>
      <point x="49" y="612"/>
      <point x="23" y="559"/>
      <point x="23" y="500" type="curve" smooth="yes"/>
      <point x="23" y="435"/>
      <point x="53" y="380"/>
      <point x="107" y="345" type="curve" smooth="yes"/>
      <point x="145" y="321"/>
      <point x="175" y="311"/>
      <point x="242" y="303" type="curve"/>
      <point x="242" y="-86" type="line"/>
      <point x="290" y="-86" type="line"/>
      <point x="290" y="611" type="line"/>
    </contour>
  </outline>
</glyph>
<glyph name="periodcentered" format="2">
  <advance width="260"/>
  <unicode hex="00B7"/>
  <unicode hex="2219"/>
  <outline>
    <contour>
      <point x="131" y="319" type="curve" smooth="yes"/>
      <point x="90" y="319"/>
      <point x="56" y="286"/>
      <point x="56" y="245" type="curve" smooth="yes"/>
      <point x="56" y="202"/>
      <point x="89" y="169"/>
      <point x="131" y="169" type="curve" smooth="yes"/>
      <point x="173" y="169"/>
      <point x="206" y="202"/>
      <point x="206" y="244" type="curve" smooth="yes"/>
      <point x="206" y="286"/>
      <point x="173" y="319"/>
    </contour>
  </outline>
</glyph>
<glyph name="cedilla" format="2">
  <advance width="500"/>
  <unicode hex="00B8"/>
  <outline>
    <contour>
      <point x="206" y="-61" type="line"/>
      <point x="231" y="-80"/>
      <point x="242" y="-95"/>
      <point x="242" y="-113" type="curve" smooth="yes"/>
      <point x="242" y="-142"/>
      <point x="227" y="-158"/>
      <point x="183" y="-174" type="curve"/>
      <point x="213" y="-195" type="line"/>
      <point x="260" y="-174"/>
      <point x="273" y="-166"/>
      <point x="287" y="-151" type="curve" smooth="yes"/>
      <point x="305" y="-132"/>
      <point x="316" y="-107"/>
      <point x="316" y="-87" type="curve" smooth="yes"/>
      <point x="316" y="-60"/>
      <point x="307" y="-42"/>
      <point x="276" y="-11" type="curve"/>
    </contour>
  </outline>
</glyph>
<glyph name="onesuperior" format="2">
  <advance width="362"/>
  <unicode hex="00B9"/>
  <outline>
    <contour>
      <point x="257" y="667" type="line"/>
      <point x="200" y="667" type="line"/>
      <point x="178" y="622"/>
      <point x="150" y="608"/>
      <point x="70" y="602" type="curve"/>
      <point x="70" y="554" type="line"/>
      <point x="179" y="560" type="line"/>
      <point x="179" y="267" type="line"/>
      <point x="257" y="267" type="line"/>
    </contour>
  </outline>
</glyph>
<glyph name="ordmasculine" format="2">
  <advance width="357"/>
  <unicode hex="00BA"/>
  <outline>
    <contour>
      <point x="179" y="673" type="curve" smooth="yes"/>
      <point x="90" y="673"/>
      <point x="36" y="621"/>
      <point x="36" y="534" type="curve" smooth="yes"/>
      <point x="36" y="443"/>
      <point x="87" y="393"/>
      <point x="179" y="393" type="curve" smooth="yes"/>
      <point x="269" y="393"/>
      <point x="322" y="445"/>
      <point x="322" y="534" type="curve" smooth="yes"/>
      <point x="322" y="622"/>
      <point x="270" y="673"/>
    </contour>
    <contour>
      <point x="179" y="617" type="curve" smooth="yes"/>
      <point x="218" y="617"/>
      <point x="244" y="584"/>
      <point x="244" y="533" type="curve" smooth="yes"/>
      <point x="244" y="482"/>
      <point x="218" y="449"/>
      <point x="179" y="449" type="curve" smooth="yes"/>
      <point x="139" y="449"/>
      <point x="114" y="482"/>
      <point x="114" y="534" type="curve" smooth="yes"/>
      <point x="114" y="584"/>
      <point x="140" y="617"/>
    </contour>
  </outline>
</glyph>
<glyph name="guillemotright" format="2">
  <advance width="426"/>
  <unicode hex="00BB"/>
  <outline>
    <contour>
      <point x="46" y="448" type="line"/>
      <point x="114" y="223" type="line"/>
      <point x="50" y="0" type="line"/>
      <point x="102" y="0" type="line"/>
      <point x="221" y="223" type="line"/>
      <point x="102" y="448" type="line"/>
    </contour>
    <contour>
      <point x="212" y="448" type="line"/>
      <point x="280" y="223" type="line"/>
      <point x="216" y="0" type="line"/>
      <point x="268" y="0" type="line"/>
      <point x="387" y="223" type="line"/>
      <point x="268" y="448" type="line"/>
    </contour>
  </outline>
</glyph>
<glyph name="onequarter" format="2">
  <advance width="864"/>
  <unicode hex="00BC"/>
  <outline>
    <contour>
      <point x="257" y="667" type="line"/>
      <point x="200" y="667" type="line"/>
      <point x="178" y="622"/>
      <point x="150" y="608"/>
      <point x="70" y="602" type="curve"/>
      <point x="70" y="554" type="line"/>
      <point x="179" y="560" type="line"/>
      <point x="179" y="267" type="line"/>
      <point x="257" y="267" type="line"/>
    </contour>
    <contour>
      <point x="686" y="676" type="line"/>
      <point x="632" y="685" type="line"/>
      <point x="182" y="-8" type="line"/>
      <point x="238" y="-17" type="line"/>
    </contour>
    <contour>
      <point x="783" y="400" type="line"/>
      <point x="700" y="400" type="line"/>
      <point x="530" y="143" type="line"/>
      <point x="530" y="85" type="line"/>
      <point x="710" y="85" type="line"/>
      <point x="710" y="0" type="line"/>
      <point x="783" y="0" type="line"/>
      <point x="783" y="85" type="line"/>
      <point x="838" y="85" type="line"/>
      <point x="838" y="145" type="line"/>
      <point x="783" y="145" type="line"/>
    </contour>
    <contour>
      <point x="710" y="319" type="line"/>
      <point x="710" y="145" type="line"/>
      <point x="603" y="145" type="line"/>
    </contour>
  </outline>
</glyph>
<glyph name="onehalf" format="2">
  <advance width="864"/>
  <unicode hex="00BD"/>
  <outline>
    <contour>
      <point x="257" y="667" type="line"/>
      <point x="200" y="667" type="line"/>
      <point x="178" y="622"/>
      <point x="150" y="608"/>
      <point x="70" y="602" type="curve"/>
      <point x="70" y="554" type="line"/>
      <point x="179" y="560" type="line"/>
      <point x="179" y="267" type="line"/>
      <point x="257" y="267" type="line"/>
    </contour>
    <contour>
      <point x="686" y="676" type="line"/>
      <point x="632" y="685" type="line"/>
      <point x="182" y="-8" type="line"/>
      <point x="238" y="-17" type="line"/>
    </contour>
    <contour>
      <point x="814" y="63" type="line"/>
      <point x="648" y="63" type="line"/>
      <point x="769" y="182"/>
      <point x="803" y="234"/>
      <point x="803" y="300" type="curve" smooth="yes"/>
      <point x="803" y="370"/>
      <point x="757" y="408"/>
      <point x="673" y="408" type="curve" smooth="yes"/>
      <point x="604" y="408"/>
      <point x="572" y="384"/>
      <point x="547" y="310" type="curve"/>
      <point x="616" y="272" type="line"/>
      <point x="623" y="325"/>
      <point x="638" y="344"/>
      <point x="673" y="344" type="curve" smooth="yes"/>
      <point x="705" y="344"/>
      <point x="724" y="324"/>
      <point x="724" y="292" type="curve" smooth="yes"/>
      <point x="724" y="231"/>
      <point x="683" y="176"/>
      <point x="545" y="55" type="curve"/>
      <point x="545" y="0" type="line"/>
      <point x="814" y="0" type="line"/>
    </contour>
  </outline>
</glyph>
<glyph name="threequarters" format="2">
  <advance width="864"/>
  <unicode hex="00BE"/>
  <outline>
    <contour>
      <point x="125" y="446" type="line"/>
      <point x="138" y="448"/>
      <point x="153" y="450"/>
      <point x="159" y="450" type="curve" smooth="yes"/>
      <point x="203" y="450"/>
      <point x="230" y="426"/>
      <point x="230" y="388" type="curve" smooth="yes"/>
      <point x="230" y="348"/>
      <point x="203" y="321"/>
      <point x="164" y="321" type="curve" smooth="yes"/>
      <point x="130" y="321"/>
      <point x="110" y="336"/>
      <point x="94" y="375" type="curve"/>
      <point x="26" y="341" type="line"/>
      <point x="63" y="277"/>
      <point x="94" y="258"/>
      <point x="161" y="258" type="curve" smooth="yes"/>
      <point x="251" y="258"/>
      <point x="311" y="311"/>
      <point x="311" y="391" type="curve" smooth="yes"/>
      <point x="311" y="439"/>
      <point x="285" y="472"/>
      <point x="238" y="485" type="curve"/>
      <point x="273" y="506"/>
      <point x="292" y="537" name="hr01"/>
      <point x="292" y="575" type="curve" smooth="yes"/>
      <point x="292" y="637"/>
      <point x="243" y="675"/>
      <point x="165" y="675" type="curve" smooth="yes"/>
      <point x="100" y="675"/>
      <point x="67" y="653"/>
      <point x="45" y="594" type="curve"/>
      <point x="113" y="564" type="line"/>
      <point x="123" y="601"/>
      <point x="138" y="615"/>
      <point x="166" y="615" type="curve" smooth="yes"/>
      <point x="195" y="615"/>
      <point x="212" y="598"/>
      <point x="212" y="568" type="curve" smooth="yes"/>
      <point x="212" y="532"/>
      <point x="184" y="509"/>
      <point x="139" y="509" type="curve" smooth="yes"/>
      <point x="125" y="509" type="line"/>
    </contour>
    <contour>
      <point x="686" y="676" type="line"/>
      <point x="631" y="685" type="line" name="hr02"/>
      <point x="181" y="-8" type="line"/>
      <point x="238" y="-17" type="line"/>
    </contour>
    <contour>
      <point x="783" y="400" type="line"/>
      <point x="700" y="400" type="line"/>
      <point x="529" y="143" type="line"/>
      <point x="529" y="85" type="line"/>
      <point x="710" y="85" type="line"/>
      <point x="710" y="0" type="line"/>
      <point x="783" y="0" type="line"/>
      <point x="783" y="85" type="line"/>
      <point x="838" y="85" type="line"/>
      <point x="838" y="145" type="line"/>
      <point x="783" y="145" type="line"/>
    </contour>
    <contour>
      <point x="710" y="319" type="line"/>
      <point x="710" y="145" type="line"/>
      <point x="602" y="145" type="line"/>
    </contour>
  </outline>
</glyph>
<glyph name="questiondown" format="2">
  <advance width="395"/>
  <unicode hex="00BF"/>
  <outline>
    <contour>
      <point x="276" y="18" type="line"/>
      <point x="271" y="-35"/>
      <point x="246" y="-64"/>
      <point x="204" y="-64" type="curve" smooth="yes"/>
      <point x="165" y="-64"/>
      <point x="137" y="-35"/>
      <point x="137" y="5" type="curve" smooth="yes"/>
      <point x="137" y="44"/>
      <point x="156" y="75"/>
      <point x="207" y="119" type="curve" smooth="yes"/>
      <point x="275" y="179"/>
      <point x="293" y="209"/>
      <point x="293" y="262" type="curve" smooth="yes"/>
      <point x="293" y="285"/>
      <point x="288" y="299"/>
      <point x="272" y="328" type="curve"/>
      <point x="162" y="328" type="line"/>
      <point x="177" y="303"/>
      <point x="183" y="283"/>
      <point x="183" y="260" type="curve" smooth="yes"/>
      <point x="183" y="234"/>
      <point x="171" y="211"/>
      <point x="138" y="180" type="curve" smooth="yes"/>
      <point x="76" y="119"/>
      <point x="76" y="119"/>
      <point x="61" y="98" type="curve" smooth="yes"/>
      <point x="42" y="69"/>
      <point x="30" y="28"/>
      <point x="30" y="-6" type="curve" smooth="yes"/>
      <point x="30" y="-49"/>
      <point x="47" y="-91"/>
      <point x="76" y="-119" type="curve" smooth="yes"/>
      <point x="104" y="-145"/>
      <point x="143" y="-158"/>
      <point x="198" y="-158" type="curve" smooth="yes"/>
      <point x="294" y="-158"/>
      <point x="348" y="-118"/>
      <point x="375" y="-24" type="curve"/>
    </contour>
    <contour>
      <point x="219" y="537" type="curve" smooth="yes"/>
      <point x="181" y="537"/>
      <point x="151" y="507" name="hr01"/>
      <point x="151" y="469" type="curve" smooth="yes"/>
      <point x="151" y="431"/>
      <point x="181" y="401"/>
      <point x="219" y="401" type="curve" smooth="yes"/>
      <point x="257" y="401"/>
      <point x="287" y="431"/>
      <point x="287" y="468" type="curve" smooth="yes"/>
      <point x="287" y="507"/>
      <point x="257" y="537"/>
    </contour>
  </outline>
</glyph>
<glyph name="Agrave" format="2">
  <advance width="620"/>
  <unicode hex="00C0"/>
  <outline>
    <contour>
      <point x="374" y="667" type="line"/>
      <point x="249" y="667" type="line"/>
      <point x="-9" y="0" type="line"/>
      <point x="111" y="0" type="line"/>
      <point x="176" y="179" type="line"/>
      <point x="430" y="179" type="line"/>
      <point x="495" y="0" type="line"/>
      <point x="621" y="0" type="line"/>
    </contour>
    <contour>
      <point x="400" y="267" type="line"/>
      <point x="209" y="267" type="line"/>
      <point x="306" y="530" type="line"/>
    </contour>
    <contour>
      <point x="228" y="894" type="line"/>
      <point x="131" y="863" type="line"/>
      <point x="329" y="714" type="line"/>
      <point x="374" y="722" type="line"/>
    </contour>
  </outline>
</glyph>
<glyph name="Aacute" format="2">
  <advance width="620"/>
  <unicode hex="00C1"/>
  <outline>
    <contour>
      <point x="374" y="667" type="line"/>
      <point x="249" y="667" type="line"/>
      <point x="-9" y="0" type="line"/>
      <point x="111" y="0" type="line"/>
      <point x="176" y="179" type="line"/>
      <point x="430" y="179" type="line"/>
      <point x="495" y="0" type="line"/>
      <point x="621" y="0" type="line"/>
    </contour>
    <contour>
      <point x="400" y="267" type="line"/>
      <point x="209" y="267" type="line"/>
      <point x="306" y="530" type="line"/>
    </contour>
    <contour>
      <point x="418" y="892" type="line"/>
      <point x="275" y="724" type="line"/>
      <point x="320" y="716" type="line"/>
      <point x="517" y="867" type="line"/>
    </contour>
  </outline>
</glyph>
<glyph name="Acircumflex" format="2">
  <advance width="620"/>
  <unicode hex="00C2"/>
  <outline>
    <contour>
      <point x="374" y="667" type="line"/>
      <point x="249" y="667" type="line"/>
      <point x="-9" y="0" type="line"/>
      <point x="111" y="0" type="line"/>
      <point x="176" y="179" type="line"/>
      <point x="430" y="179" type="line"/>
      <point x="495" y="0" type="line"/>
      <point x="621" y="0" type="line"/>
    </contour>
    <contour>
      <point x="400" y="267" type="line"/>
      <point x="209" y="267" type="line"/>
      <point x="306" y="530" type="line"/>
    </contour>
    <contour>
      <point x="343" y="891" type="line"/>
      <point x="277" y="891" type="line"/>
      <point x="133" y="729" type="line"/>
      <point x="173" y="720" type="line"/>
      <point x="310" y="831" type="line"/>
      <point x="448" y="722" type="line"/>
      <point x="486" y="732" type="line"/>
    </contour>
  </outline>
</glyph>
<glyph name="Atilde" format="2">
  <advance width="620"/>
  <unicode hex="00C3"/>
  <outline>
    <contour>
      <point x="374" y="667" type="line"/>
      <point x="249" y="667" type="line"/>
      <point x="-9" y="0" type="line"/>
      <point x="111" y="0" type="line"/>
      <point x="176" y="179" type="line"/>
      <point x="430" y="179" type="line"/>
      <point x="495" y="0" type="line"/>
      <point x="621" y="0" type="line"/>
    </contour>
    <contour>
      <point x="400" y="267" type="line"/>
      <point x="209" y="267" type="line"/>
      <point x="306" y="530" type="line"/>
    </contour>
    <contour>
      <point x="466" y="847" type="line"/>
      <point x="445" y="820"/>
      <point x="423" y="806"/>
      <point x="401" y="806" type="curve" smooth="yes"/>
      <point x="388" y="806"/>
      <point x="375" y="810"/>
      <point x="333" y="827" type="curve" smooth="yes"/>
      <point x="286" y="847"/>
      <point x="272" y="851" name="hr01"/>
      <point x="253" y="851" type="curve" smooth="yes"/>
      <point x="221" y="851"/>
      <point x="202" y="837"/>
      <point x="161" y="786" type="curve" smooth="yes"/>
      <point x="155" y="779"/>
      <point x="150" y="773"/>
      <point x="145" y="767" type="curve"/>
      <point x="166" y="749" type="line"/>
      <point x="203" y="789"/>
      <point x="210" y="794"/>
      <point x="234" y="794" type="curve" smooth="yes"/>
      <point x="249" y="794"/>
      <point x="270" y="788"/>
      <point x="309" y="772" type="curve" smooth="yes"/>
      <point x="370" y="747"/>
      <point x="372" y="746" name="hr02"/>
      <point x="387" y="746" type="curve" smooth="yes"/>
      <point x="418" y="746"/>
      <point x="440" y="764"/>
      <point x="487" y="828" type="curve"/>
    </contour>
  </outline>
</glyph>
<glyph name="Adieresis" format="2">
  <advance width="620"/>
  <unicode hex="00C4"/>
  <outline>
    <contour>
      <point x="374" y="667" type="line"/>
      <point x="249" y="667" type="line"/>
      <point x="-9" y="0" type="line"/>
      <point x="111" y="0" type="line"/>
      <point x="176" y="179" type="line"/>
      <point x="430" y="179" type="line"/>
      <point x="495" y="0" type="line"/>
      <point x="621" y="0" type="line"/>
    </contour>
    <contour>
      <point x="400" y="267" type="line"/>
      <point x="209" y="267" type="line"/>
      <point x="306" y="530" type="line"/>
    </contour>
    <contour>
      <point x="199" y="865" type="curve" smooth="yes"/>
      <point x="163" y="865"/>
      <point x="136" y="838"/>
      <point x="136" y="804" type="curve" smooth="yes"/>
      <point x="136" y="768"/>
      <point x="163" y="741"/>
      <point x="198" y="741" type="curve" smooth="yes"/>
      <point x="233" y="741"/>
      <point x="260" y="768"/>
      <point x="260" y="803" type="curve" smooth="yes"/>
      <point x="260" y="838"/>
      <point x="233" y="865"/>
    </contour>
    <contour>
      <point x="414" y="865" type="curve" smooth="yes"/>
      <point x="379" y="865"/>
      <point x="352" y="838"/>
      <point x="352" y="804" type="curve" smooth="yes"/>
      <point x="352" y="768"/>
      <point x="378" y="741"/>
      <point x="413" y="741" type="curve" smooth="yes"/>
      <point x="448" y="741"/>
      <point x="476" y="768"/>
      <point x="476" y="803" type="curve" smooth="yes"/>
      <point x="476" y="838"/>
      <point x="449" y="865"/>
    </contour>
  </outline>
</glyph>
<glyph name="Aring" format="2">
  <advance width="620"/>
  <unicode hex="00C5"/>
  <outline>
    <contour>
      <point x="374" y="667" type="line"/>
      <point x="249" y="667" type="line"/>
      <point x="-9" y="0" type="line"/>
      <point x="111" y="0" type="line"/>
      <point x="176" y="179" type="line"/>
      <point x="430" y="179" type="line"/>
      <point x="495" y="0" type="line"/>
      <point x="621" y="0" type="line"/>
    </contour>
    <contour>
      <point x="400" y="267" type="line"/>
      <point x="209" y="267" type="line"/>
      <point x="306" y="530" type="line"/>
    </contour>
    <contour>
      <point x="310" y="903" type="curve" smooth="yes"/>
      <point x="247" y="903"/>
      <point x="200" y="861"/>
      <point x="200" y="805" type="curve" smooth="yes"/>
      <point x="200" y="747"/>
      <point x="246" y="705"/>
      <point x="310" y="705" type="curve" smooth="yes"/>
      <point x="373" y="705"/>
      <point x="419" y="747"/>
      <point x="419" y="804" type="curve" smooth="yes"/>
      <point x="419" y="861"/>
      <point x="373" y="903"/>
    </contour>
    <contour>
      <point x="310" y="860" type="curve" smooth="yes"/>
      <point x="343" y="860"/>
      <point x="368" y="835"/>
      <point x="368" y="804" type="curve" smooth="yes"/>
      <point x="368" y="773"/>
      <point x="343" y="748"/>
      <point x="311" y="748" type="curve" smooth="yes"/>
      <point x="278" y="748"/>
      <point x="253" y="772"/>
      <point x="253" y="805" type="curve" smooth="yes"/>
      <point x="253" y="835"/>
      <point x="278" y="860"/>
    </contour>
  </outline>
</glyph>
<glyph name="AE" format="2">
  <advance width="799"/>
  <unicode hex="00C6"/>
  <outline>
    <contour>
      <point x="489" y="573" type="line"/>
      <point x="728" y="573" type="line"/>
      <point x="728" y="667" type="line"/>
      <point x="326" y="667" type="line"/>
      <point x="-37" y="0" type="line"/>
      <point x="95" y="0" type="line"/>
      <point x="182" y="168" type="line"/>
      <point x="378" y="168" type="line"/>
      <point x="378" y="0" type="line"/>
      <point x="765" y="0" type="line"/>
      <point x="765" y="94" type="line"/>
      <point x="489" y="94" type="line"/>
      <point x="489" y="292" type="line"/>
      <point x="728" y="292" type="line"/>
      <point x="728" y="383" type="line"/>
      <point x="489" y="383" type="line"/>
    </contour>
    <contour>
      <point x="378" y="555" type="line"/>
      <point x="378" y="256" type="line"/>
      <point x="225" y="256" type="line"/>
    </contour>
  </outline>
</glyph>
<glyph name="Eacute" format="2">
  <advance width="526"/>
  <unicode hex="00C9"/>
  <outline>
    <contour>
      <point x="205" y="384" type="line"/>
      <point x="205" y="573" type="line"/>
      <point x="454" y="573" type="line"/>
      <point x="454" y="667" type="line"/>
      <point x="85" y="667" type="line"/>
      <point x="85" y="0" type="line"/>
      <point x="491" y="0" type="line"/>
      <point x="491" y="94" type="line"/>
      <point x="205" y="94" type="line"/>
      <point x="205" y="293" type="line"/>
      <point x="454" y="293" type="line"/>
      <point x="454" y="384" type="line"/>
    </contour>
    <contour>
      <point x="348" y="892" type="line"/>
      <point x="205" y="724" type="line"/>
      <point x="250" y="716" type="line"/>
      <point x="447" y="867" type="line"/>
    </contour>
  </outline>
</glyph>
<glyph name="Ecircumflex" format="2">
  <advance width="526"/>
  <unicode hex="00CA"/>
  <outline>
    <contour>
      <point x="205" y="384" type="line"/>
      <point x="205" y="573" type="line"/>
      <point x="454" y="573" type="line"/>
      <point x="454" y="667" type="line"/>
      <point x="85" y="667" type="line"/>
      <point x="85" y="0" type="line"/>
      <point x="491" y="0" type="line"/>
      <point x="491" y="94" type="line"/>
      <point x="205" y="94" type="line"/>
      <point x="205" y="293" type="line"/>
      <point x="454" y="293" type="line"/>
      <point x="454" y="384" type="line"/>
    </contour>
    <contour>
      <point x="307" y="891" type="line"/>
      <point x="241" y="891" type="line"/>
      <point x="97" y="729" type="line"/>
      <point x="137" y="720" type="line"/>
      <point x="274" y="831" type="line"/>
      <point x="412" y="722" type="line"/>
      <point x="450" y="732" type="line"/>
    </contour>
  </outline>
</glyph>
<glyph name="Edieresis" format="2">
  <advance width="526"/>
  <unicode hex="00CB"/>
  <outline>
    <contour>
      <point x="205" y="384" type="line"/>
      <point x="205" y="573" type="line"/>
      <point x="454" y="573" type="line"/>
      <point x="454" y="667" type="line"/>
      <point x="85" y="667" type="line"/>
      <point x="85" y="0" type="line"/>
      <point x="491" y="0" type="line"/>
      <point x="491" y="94" type="line"/>
      <point x="205" y="94" type="line"/>
      <point x="205" y="293" type="line"/>
      <point x="454" y="293" type="line"/>
      <point x="454" y="384" type="line"/>
    </contour>
    <contour>
      <point x="164" y="865" type="curve" smooth="yes"/>
      <point x="128" y="865"/>
      <point x="101" y="838"/>
      <point x="101" y="804" type="curve" smooth="yes"/>
      <point x="101" y="768"/>
      <point x="128" y="741"/>
      <point x="163" y="741" type="curve" smooth="yes"/>
      <point x="198" y="741"/>
      <point x="225" y="768"/>
      <point x="225" y="803" type="curve" smooth="yes"/>
      <point x="225" y="838"/>
      <point x="198" y="865"/>
    </contour>
    <contour>
      <point x="379" y="865" type="curve" smooth="yes"/>
      <point x="344" y="865"/>
      <point x="317" y="838"/>
      <point x="317" y="804" type="curve" smooth="yes"/>
      <point x="317" y="768"/>
      <point x="343" y="741"/>
      <point x="378" y="741" type="curve" smooth="yes"/>
      <point x="413" y="741"/>
      <point x="441" y="768"/>
      <point x="441" y="803" type="curve" smooth="yes"/>
      <point x="441" y="838"/>
      <point x="414" y="865"/>
    </contour>
  </outline>
</glyph>
<glyph name="Igrave" format="2">
  <advance width="290"/>
  <unicode hex="00CC"/>
  <outline>
    <contour>
      <point x="205" y="667" type="line"/>
      <point x="85" y="667" type="line"/>
      <point x="85" y="0" type="line"/>
      <point x="205" y="0" type="line"/>
    </contour>
    <contour>
      <point x="83" y="894" type="line"/>
      <point x="-14" y="863" type="line"/>
      <point x="164" y="714" type="line"/>
      <point x="209" y="722" type="line"/>
    </contour>
  </outline>
</glyph>
<glyph name="Iacute" format="2">
  <advance width="290"/>
  <unicode hex="00CD"/>
  <outline>
    <contour>
      <point x="201" y="667" type="line"/>
      <point x="81" y="667" type="line"/>
      <point x="81" y="0" type="line"/>
      <point x="201" y="0" type="line"/>
    </contour>
    <contour>
      <point x="225" y="892" type="line"/>
      <point x="102" y="724" type="line"/>
      <point x="147" y="716" type="line"/>
      <point x="324" y="867" type="line"/>
    </contour>
  </outline>
</glyph>
<glyph name="Icircumflex" format="2">
  <advance width="290"/>
  <unicode hex="00CE"/>
  <outline>
    <contour>
      <point x="205" y="667" type="line"/>
      <point x="85" y="667" type="line"/>
      <point x="85" y="0" type="line"/>
      <point x="205" y="0" type="line"/>
    </contour>
    <contour>
      <point x="179" y="891" type="line"/>
      <point x="113" y="891" type="line"/>
      <point x="-11" y="729" type="line"/>
      <point x="29" y="720" type="line"/>
      <point x="146" y="831" type="line"/>
      <point x="264" y="722" type="line"/>
      <point x="302" y="732" type="line"/>
    </contour>
  </outline>
</glyph>
<glyph name="Idieresis" format="2">
  <advance width="290"/>
  <unicode hex="00CF"/>
  <outline>
    <contour>
      <point x="205" y="667" type="line"/>
      <point x="85" y="667" type="line"/>
      <point x="85" y="0" type="line"/>
      <point x="205" y="0" type="line"/>
    </contour>
    <contour>
      <point x="61" y="865" type="curve" smooth="yes"/>
      <point x="25" y="865"/>
      <point x="-2" y="838" name="hr01"/>
      <point x="-2" y="804" type="curve" smooth="yes"/>
      <point x="-2" y="768"/>
      <point x="25" y="741"/>
      <point x="60" y="741" type="curve" smooth="yes"/>
      <point x="95" y="741"/>
      <point x="122" y="768"/>
      <point x="122" y="803" type="curve" smooth="yes"/>
      <point x="122" y="838"/>
      <point x="95" y="865"/>
    </contour>
    <contour>
      <point x="230" y="865" type="curve" smooth="yes"/>
      <point x="195" y="865"/>
      <point x="168" y="838"/>
      <point x="168" y="804" type="curve" smooth="yes"/>
      <point x="168" y="768"/>
      <point x="194" y="741"/>
      <point x="229" y="741" type="curve" smooth="yes"/>
      <point x="264" y="741"/>
      <point x="292" y="768"/>
      <point x="292" y="803" type="curve" smooth="yes"/>
      <point x="292" y="838"/>
      <point x="265" y="865"/>
    </contour>
  </outline>
</glyph>
<glyph name="Eth" format="2">
  <advance width="697"/>
  <unicode hex="00D0"/>
  <outline>
    <contour>
      <point x="85" y="376" type="line"/>
      <point x="12" y="376" type="line"/>
      <point x="12" y="309" type="line"/>
      <point x="85" y="309" type="line"/>
      <point x="85" y="0" type="line"/>
      <point x="322" y="0" type="line" smooth="yes"/>
      <point x="399" y="0"/>
      <point x="470" y="17"/>
      <point x="516" y="47" type="curve" smooth="yes"/>
      <point x="603" y="103"/>
      <point x="652" y="211"/>
      <point x="652" y="346" type="curve" smooth="yes"/>
      <point x="652" y="466"/>
      <point x="614" y="558"/>
      <point x="542" y="612" type="curve" smooth="yes"/>
      <point x="493" y="650"/>
      <point x="425" y="667"/>
      <point x="327" y="667" type="curve" smooth="yes"/>
      <point x="85" y="667" type="line"/>
    </contour>
    <contour>
      <point x="205" y="376" type="line"/>
      <point x="205" y="573" type="line"/>
      <point x="309" y="573" type="line" smooth="yes"/>
      <point x="384" y="573"/>
      <point x="413" y="567"/>
      <point x="446" y="544" type="curve" smooth="yes"/>
      <point x="496" y="508"/>
      <point x="524" y="436"/>
      <point x="524" y="342" type="curve" smooth="yes"/>
      <point x="524" y="253"/>
      <point x="499" y="179"/>
      <point x="454" y="138" type="curve" smooth="yes"/>
      <point x="421" y="109"/>
      <point x="372" y="94"/>
      <point x="310" y="94" type="curve" smooth="yes"/>
      <point x="205" y="94" type="line"/>
      <point x="205" y="309" type="line"/>
      <point x="366" y="309" type="line"/>
      <point x="366" y="376" type="line"/>
    </contour>
  </outline>
</glyph>
<glyph name="Ntilde" format="2">
  <advance width="752"/>
  <unicode hex="00D1"/>
  <outline>
    <contour>
      <point x="667" y="667" type="line"/>
      <point x="549" y="667" type="line"/>
      <point x="549" y="187" type="line"/>
      <point x="200" y="667" type="line"/>
      <point x="85" y="667" type="line"/>
      <point x="85" y="0" type="line"/>
      <point x="203" y="0" type="line"/>
      <point x="203" y="476" type="line"/>
      <point x="549" y="0" type="line"/>
      <point x="667" y="0" type="line"/>
    </contour>
    <contour>
      <point x="536" y="847" type="line"/>
      <point x="515" y="820"/>
      <point x="493" y="806"/>
      <point x="471" y="806" type="curve" smooth="yes"/>
      <point x="458" y="806"/>
      <point x="445" y="810"/>
      <point x="403" y="827" type="curve" smooth="yes"/>
      <point x="356" y="847"/>
      <point x="342" y="851" name="hr01"/>
      <point x="323" y="851" type="curve" smooth="yes"/>
      <point x="291" y="851"/>
      <point x="272" y="837"/>
      <point x="231" y="786" type="curve" smooth="yes"/>
      <point x="225" y="779"/>
      <point x="220" y="773"/>
      <point x="215" y="767" type="curve"/>
      <point x="236" y="749" type="line"/>
      <point x="273" y="789"/>
      <point x="280" y="794"/>
      <point x="304" y="794" type="curve" smooth="yes"/>
      <point x="319" y="794"/>
      <point x="340" y="788"/>
      <point x="379" y="772" type="curve" smooth="yes"/>
      <point x="440" y="747"/>
      <point x="442" y="746" name="hr02"/>
      <point x="457" y="746" type="curve" smooth="yes"/>
      <point x="488" y="746"/>
      <point x="510" y="764"/>
      <point x="557" y="828" type="curve"/>
    </contour>
  </outline>
</glyph>
<glyph name="Ograve" format="2">
  <advance width="749"/>
  <unicode hex="00D2"/>
  <outline>
    <contour>
      <point x="374" y="682" type="curve" smooth="yes"/>
      <point x="283" y="682"/>
      <point x="207" y="657"/>
      <point x="149" y="606" type="curve" smooth="yes"/>
      <point x="79" y="546"/>
      <point x="45" y="458"/>
      <point x="45" y="340" type="curve" smooth="yes"/>
      <point x="45" y="210"/>
      <point x="77" y="125"/>
      <point x="149" y="62" type="curve" smooth="yes"/>
      <point x="207" y="12"/>
      <point x="283" y="-14"/>
      <point x="375" y="-14" type="curve" smooth="yes"/>
      <point x="465" y="-14"/>
      <point x="541" y="12"/>
      <point x="599" y="62" type="curve" smooth="yes"/>
      <point x="670" y="124"/>
      <point x="703" y="211"/>
      <point x="703" y="334" type="curve" smooth="yes"/>
      <point x="703" y="457"/>
      <point x="670" y="545"/>
      <point x="599" y="606" type="curve" smooth="yes"/>
      <point x="540" y="657"/>
      <point x="466" y="682"/>
    </contour>
    <contour>
      <point x="374" y="588" type="curve" smooth="yes"/>
      <point x="496" y="588"/>
      <point x="573" y="490"/>
      <point x="573" y="334" type="curve" smooth="yes"/>
      <point x="573" y="178"/>
      <point x="496" y="80"/>
      <point x="374" y="80" type="curve" smooth="yes"/>
      <point x="251" y="80"/>
      <point x="175" y="178"/>
      <point x="175" y="338" type="curve" smooth="yes"/>
      <point x="175" y="490"/>
      <point x="253" y="588"/>
    </contour>
    <contour>
      <point x="296" y="894" type="line"/>
      <point x="199" y="863" type="line"/>
      <point x="397" y="714" type="line"/>
      <point x="442" y="722" type="line"/>
    </contour>
  </outline>
</glyph>
<glyph name="Ocircumflex" format="2">
  <advance width="749"/>
  <unicode hex="00D4"/>
  <outline>
    <contour>
      <point x="374" y="682" type="curve" smooth="yes"/>
      <point x="283" y="682"/>
      <point x="207" y="657"/>
      <point x="149" y="606" type="curve" smooth="yes"/>
      <point x="79" y="546"/>
      <point x="45" y="458"/>
      <point x="45" y="340" type="curve" smooth="yes"/>
      <point x="45" y="210"/>
      <point x="77" y="125"/>
      <point x="149" y="62" type="curve" smooth="yes"/>
      <point x="207" y="12"/>
      <point x="283" y="-14"/>
      <point x="375" y="-14" type="curve" smooth="yes"/>
      <point x="465" y="-14"/>
      <point x="541" y="12"/>
      <point x="599" y="62" type="curve" smooth="yes"/>
      <point x="670" y="124"/>
      <point x="703" y="211"/>
      <point x="703" y="334" type="curve" smooth="yes"/>
      <point x="703" y="457"/>
      <point x="670" y="545"/>
      <point x="599" y="606" type="curve" smooth="yes"/>
      <point x="540" y="657"/>
      <point x="466" y="682"/>
    </contour>
    <contour>
      <point x="374" y="588" type="curve" smooth="yes"/>
      <point x="496" y="588"/>
      <point x="573" y="490"/>
      <point x="573" y="334" type="curve" smooth="yes"/>
      <point x="573" y="178"/>
      <point x="496" y="80"/>
      <point x="374" y="80" type="curve" smooth="yes"/>
      <point x="251" y="80"/>
      <point x="175" y="178"/>
      <point x="175" y="338" type="curve" smooth="yes"/>
      <point x="175" y="490"/>
      <point x="253" y="588"/>
    </contour>
    <contour>
      <point x="408" y="891" type="line"/>
      <point x="342" y="891" type="line"/>
      <point x="198" y="729" type="line"/>
      <point x="238" y="720" type="line"/>
      <point x="375" y="831" type="line"/>
      <point x="513" y="722" type="line"/>
      <point x="551" y="732" type="line"/>
    </contour>
  </outline>
</glyph>
<glyph name="Otilde" format="2">
  <advance width="749"/>
  <unicode hex="00D5"/>
  <outline>
    <contour>
      <point x="374" y="682" type="curve" smooth="yes"/>
      <point x="283" y="682"/>
      <point x="207" y="657"/>
      <point x="149" y="606" type="curve" smooth="yes"/>
      <point x="79" y="546"/>
      <point x="45" y="458"/>
      <point x="45" y="340" type="curve" smooth="yes"/>
      <point x="45" y="210"/>
      <point x="77" y="125"/>
      <point x="149" y="62" type="curve" smooth="yes"/>
      <point x="207" y="12"/>
      <point x="283" y="-14"/>
      <point x="375" y="-14" type="curve" smooth="yes"/>
      <point x="465" y="-14"/>
      <point x="541" y="12"/>
      <point x="599" y="62" type="curve" smooth="yes"/>
      <point x="670" y="124"/>
      <point x="703" y="211"/>
      <point x="703" y="334" type="curve" smooth="yes"/>
      <point x="703" y="457"/>
      <point x="670" y="545"/>
      <point x="599" y="606" type="curve" smooth="yes"/>
      <point x="540" y="657"/>
      <point x="466" y="682"/>
    </contour>
    <contour>
      <point x="374" y="588" type="curve" smooth="yes"/>
      <point x="496" y="588"/>
      <point x="573" y="490"/>
      <point x="573" y="334" type="curve" smooth="yes"/>
      <point x="573" y="178"/>
      <point x="496" y="80"/>
      <point x="374" y="80" type="curve" smooth="yes"/>
      <point x="251" y="80"/>
      <point x="175" y="178"/>
      <point x="175" y="338" type="curve" smooth="yes"/>
      <point x="175" y="490"/>
      <point x="253" y="588"/>
    </contour>
    <contour>
      <point x="531" y="847" type="line"/>
      <point x="510" y="820"/>
      <point x="488" y="806"/>
      <point x="466" y="806" type="curve" smooth="yes"/>
      <point x="453" y="806"/>
      <point x="440" y="810"/>
      <point x="398" y="827" type="curve" smooth="yes"/>
      <point x="351" y="847"/>
      <point x="337" y="851"/>
      <point x="318" y="851" type="curve" smooth="yes"/>
      <point x="286" y="851" name="hr01"/>
      <point x="267" y="837"/>
      <point x="226" y="786" type="curve" smooth="yes"/>
      <point x="220" y="779"/>
      <point x="215" y="773"/>
      <point x="210" y="767" type="curve"/>
      <point x="231" y="749" type="line"/>
      <point x="268" y="789"/>
      <point x="275" y="794"/>
      <point x="299" y="794" type="curve" smooth="yes"/>
      <point x="314" y="794"/>
      <point x="335" y="788"/>
      <point x="374" y="772" type="curve" smooth="yes"/>
      <point x="435" y="747"/>
      <point x="437" y="746"/>
      <point x="452" y="746" type="curve" smooth="yes"/>
      <point x="483" y="746" name="hr02"/>
      <point x="505" y="764"/>
      <point x="552" y="828" type="curve"/>
    </contour>
  </outline>
</glyph>
<glyph name="Odieresis" format="2">
  <advance width="749"/>
  <unicode hex="00D6"/>
  <outline>
    <contour>
      <point x="374" y="682" type="curve" smooth="yes"/>
      <point x="283" y="682"/>
      <point x="207" y="657"/>
      <point x="149" y="606" type="curve" smooth="yes"/>
      <point x="79" y="546"/>
      <point x="45" y="458"/>
      <point x="45" y="340" type="curve" smooth="yes"/>
      <point x="45" y="210"/>
      <point x="77" y="125"/>
      <point x="149" y="62" type="curve" smooth="yes"/>
      <point x="207" y="12"/>
      <point x="283" y="-14"/>
      <point x="375" y="-14" type="curve" smooth="yes"/>
      <point x="465" y="-14"/>
      <point x="541" y="12"/>
      <point x="599" y="62" type="curve" smooth="yes"/>
      <point x="670" y="124"/>
      <point x="703" y="211"/>
      <point x="703" y="334" type="curve" smooth="yes"/>
      <point x="703" y="457"/>
      <point x="670" y="545"/>
      <point x="599" y="606" type="curve" smooth="yes"/>
      <point x="540" y="657"/>
      <point x="466" y="682"/>
    </contour>
    <contour>
      <point x="374" y="588" type="curve" smooth="yes"/>
      <point x="496" y="588"/>
      <point x="573" y="490"/>
      <point x="573" y="334" type="curve" smooth="yes"/>
      <point x="573" y="178"/>
      <point x="496" y="80"/>
      <point x="374" y="80" type="curve" smooth="yes"/>
      <point x="251" y="80"/>
      <point x="175" y="178"/>
      <point x="175" y="338" type="curve" smooth="yes"/>
      <point x="175" y="490"/>
      <point x="253" y="588"/>
    </contour>
    <contour>
      <point x="267" y="865" type="curve" smooth="yes"/>
      <point x="231" y="865"/>
      <point x="204" y="838"/>
      <point x="204" y="804" type="curve" smooth="yes"/>
      <point x="204" y="768"/>
      <point x="231" y="741"/>
      <point x="266" y="741" type="curve" smooth="yes"/>
      <point x="301" y="741"/>
      <point x="328" y="768"/>
      <point x="328" y="803" type="curve" smooth="yes"/>
      <point x="328" y="838"/>
      <point x="301" y="865"/>
    </contour>
    <contour>
      <point x="482" y="865" type="curve" smooth="yes"/>
      <point x="447" y="865"/>
      <point x="420" y="838"/>
      <point x="420" y="804" type="curve" smooth="yes"/>
      <point x="420" y="768"/>
      <point x="446" y="741"/>
      <point x="481" y="741" type="curve" smooth="yes"/>
      <point x="516" y="741"/>
      <point x="544" y="768"/>
      <point x="544" y="803" type="curve" smooth="yes"/>
      <point x="544" y="838"/>
      <point x="517" y="865"/>
    </contour>
  </outline>
</glyph>
<glyph name="multiply" format="2">
  <advance width="544"/>
  <unicode hex="00D7"/>
  <outline>
    <contour>
      <point x="43" y="186" type="line"/>
      <point x="116" y="112" type="line"/>
      <point x="269" y="266" type="line"/>
      <point x="421" y="113" type="line"/>
      <point x="499" y="191" type="line"/>
      <point x="346" y="343" type="line"/>
      <point x="500" y="496" type="line"/>
      <point x="427" y="570" type="line"/>
      <point x="274" y="416" type="line"/>
      <point x="122" y="569" type="line"/>
      <point x="44" y="490" type="line"/>
      <point x="197" y="339" type="line"/>
    </contour>
  </outline>
</glyph>
<glyph name="Oslash" format="2">
  <advance width="749"/>
  <unicode hex="00D8"/>
  <outline>
    <contour>
      <point x="640" y="696" type="line"/>
      <point x="576" y="625" type="line"/>
      <point x="502" y="668"/>
      <point x="453" y="682"/>
      <point x="372" y="682" type="curve" smooth="yes"/>
      <point x="283" y="682"/>
      <point x="207" y="656"/>
      <point x="149" y="605" type="curve" smooth="yes"/>
      <point x="78" y="544"/>
      <point x="45" y="457"/>
      <point x="45" y="334" type="curve" smooth="yes"/>
      <point x="45" y="226"/>
      <point x="63" y="166"/>
      <point x="122" y="84" type="curve"/>
      <point x="66" y="13" type="line"/>
      <point x="114" y="-30" type="line"/>
      <point x="173" y="42" type="line"/>
      <point x="241" y="2"/>
      <point x="297" y="-14"/>
      <point x="377" y="-14" type="curve" smooth="yes"/>
      <point x="466" y="-14"/>
      <point x="543" y="12"/>
      <point x="600" y="62" type="curve" smooth="yes"/>
      <point x="670" y="123"/>
      <point x="704" y="211"/>
      <point x="704" y="333" type="curve" smooth="yes"/>
      <point x="704" y="441"/>
      <point x="680" y="516"/>
      <point x="625" y="580" type="curve"/>
      <point x="688" y="655" type="line"/>
    </contour>
    <contour>
      <point x="543" y="481" type="line"/>
      <point x="565" y="431"/>
      <point x="574" y="389"/>
      <point x="574" y="332" type="curve" smooth="yes"/>
      <point x="574" y="178"/>
      <point x="497" y="80"/>
      <point x="375" y="80" type="curve" smooth="yes"/>
      <point x="324" y="80"/>
      <point x="291" y="92"/>
      <point x="244" y="129" type="curve"/>
    </contour>
    <contour>
      <point x="206" y="185" type="line"/>
      <point x="185" y="228"/>
      <point x="175" y="279"/>
      <point x="175" y="339" type="curve" smooth="yes"/>
      <point x="175" y="489"/>
      <point x="254" y="588"/>
      <point x="372" y="588" type="curve" smooth="yes"/>
      <point x="425" y="588"/>
      <point x="458" y="575"/>
      <point x="502" y="539" type="curve"/>
    </contour>
  </outline>
</glyph>
<glyph name="Ugrave" format="2">
  <advance width="698"/>
  <unicode hex="00D9"/>
  <outline>
    <contour>
      <point x="78" y="667" type="line"/>
      <point x="78" y="274" type="line" smooth="yes"/>
      <point x="78" y="182"/>
      <point x="85" y="142"/>
      <point x="108" y="100" type="curve" smooth="yes"/>
      <point x="148" y="26"/>
      <point x="233" y="-14"/>
      <point x="348" y="-14" type="curve" smooth="yes"/>
      <point x="455" y="-14"/>
      <point x="536" y="20"/>
      <point x="580" y="85" type="curve" smooth="yes"/>
      <point x="610" y="129"/>
      <point x="619" y="172"/>
      <point x="619" y="274" type="curve" smooth="yes"/>
      <point x="619" y="667" type="line"/>
      <point x="499" y="667" type="line"/>
      <point x="499" y="273" type="line" smooth="yes"/>
      <point x="499" y="202"/>
      <point x="495" y="173"/>
      <point x="482" y="147" type="curve" smooth="yes"/>
      <point x="460" y="105"/>
      <point x="410" y="80"/>
      <point x="349" y="80" type="curve" smooth="yes"/>
      <point x="292" y="80"/>
      <point x="244" y="101"/>
      <point x="221" y="137" type="curve" smooth="yes"/>
      <point x="203" y="165"/>
      <point x="198" y="194"/>
      <point x="198" y="273" type="curve" smooth="yes"/>
      <point x="198" y="667" type="line"/>
    </contour>
    <contour>
      <point x="280" y="894" type="line"/>
      <point x="183" y="863" type="line"/>
      <point x="381" y="714" type="line"/>
      <point x="426" y="722" type="line"/>
    </contour>
  </outline>
</glyph>
<glyph name="Uacute" format="2">
  <advance width="698"/>
  <unicode hex="00DA"/>
  <outline>
    <contour>
      <point x="78" y="667" type="line"/>
      <point x="78" y="274" type="line" smooth="yes"/>
      <point x="78" y="182"/>
      <point x="85" y="142"/>
      <point x="108" y="100" type="curve" smooth="yes"/>
      <point x="148" y="26"/>
      <point x="233" y="-14"/>
      <point x="348" y="-14" type="curve" smooth="yes"/>
      <point x="455" y="-14"/>
      <point x="536" y="20"/>
      <point x="580" y="85" type="curve" smooth="yes"/>
      <point x="610" y="129"/>
      <point x="619" y="172"/>
      <point x="619" y="274" type="curve" smooth="yes"/>
      <point x="619" y="667" type="line"/>
      <point x="499" y="667" type="line"/>
      <point x="499" y="273" type="line" smooth="yes"/>
      <point x="499" y="202"/>
      <point x="495" y="173"/>
      <point x="482" y="147" type="curve" smooth="yes"/>
      <point x="460" y="105"/>
      <point x="410" y="80"/>
      <point x="349" y="80" type="curve" smooth="yes"/>
      <point x="292" y="80"/>
      <point x="244" y="101"/>
      <point x="221" y="137" type="curve" smooth="yes"/>
      <point x="203" y="165"/>
      <point x="198" y="194"/>
      <point x="198" y="273" type="curve" smooth="yes"/>
      <point x="198" y="667" type="line"/>
    </contour>
    <contour>
      <point x="431" y="892" type="line"/>
      <point x="288" y="724" type="line"/>
      <point x="333" y="716" type="line"/>
      <point x="530" y="867" type="line"/>
    </contour>
  </outline>
</glyph>
<glyph name="Ucircumflex" format="2">
  <advance width="698"/>
  <unicode hex="00DB"/>
  <outline>
    <contour>
      <point x="78" y="667" type="line"/>
      <point x="78" y="274" type="line" smooth="yes"/>
      <point x="78" y="182"/>
      <point x="85" y="142"/>
      <point x="108" y="100" type="curve" smooth="yes"/>
      <point x="148" y="26"/>
      <point x="233" y="-14"/>
      <point x="348" y="-14" type="curve" smooth="yes"/>
      <point x="455" y="-14"/>
      <point x="536" y="20"/>
      <point x="580" y="85" type="curve" smooth="yes"/>
      <point x="610" y="129"/>
      <point x="619" y="172"/>
      <point x="619" y="274" type="curve" smooth="yes"/>
      <point x="619" y="667" type="line"/>
      <point x="499" y="667" type="line"/>
      <point x="499" y="273" type="line" smooth="yes"/>
      <point x="499" y="202"/>
      <point x="495" y="173"/>
      <point x="482" y="147" type="curve" smooth="yes"/>
      <point x="460" y="105"/>
      <point x="410" y="80"/>
      <point x="349" y="80" type="curve" smooth="yes"/>
      <point x="292" y="80"/>
      <point x="244" y="101"/>
      <point x="221" y="137" type="curve" smooth="yes"/>
      <point x="203" y="165"/>
      <point x="198" y="194"/>
      <point x="198" y="273" type="curve" smooth="yes"/>
      <point x="198" y="667" type="line"/>
    </contour>
    <contour>
      <point x="382" y="891" type="line"/>
      <point x="316" y="891" type="line"/>
      <point x="172" y="729" type="line"/>
      <point x="212" y="720" type="line"/>
      <point x="349" y="831" type="line"/>
      <point x="487" y="722" type="line"/>
      <point x="525" y="732" type="line"/>
    </contour>
  </outline>
</glyph>
<glyph name="Udieresis" format="2">
  <advance width="698"/>
  <unicode hex="00DC"/>
  <outline>
    <contour>
      <point x="78" y="667" type="line"/>
      <point x="78" y="274" type="line" smooth="yes"/>
      <point x="78" y="182"/>
      <point x="85" y="142"/>
      <point x="108" y="100" type="curve" smooth="yes"/>
      <point x="148" y="26"/>
      <point x="233" y="-14"/>
      <point x="348" y="-14" type="curve" smooth="yes"/>
      <point x="455" y="-14"/>
      <point x="536" y="20"/>
      <point x="580" y="85" type="curve" smooth="yes"/>
      <point x="610" y="129"/>
      <point x="619" y="172"/>
      <point x="619" y="274" type="curve" smooth="yes"/>
      <point x="619" y="667" type="line"/>
      <point x="499" y="667" type="line"/>
      <point x="499" y="273" type="line" smooth="yes"/>
      <point x="499" y="202"/>
      <point x="495" y="173"/>
      <point x="482" y="147" type="curve" smooth="yes"/>
      <point x="460" y="105"/>
      <point x="410" y="80"/>
      <point x="349" y="80" type="curve" smooth="yes"/>
      <point x="292" y="80"/>
      <point x="244" y="101"/>
      <point x="221" y="137" type="curve" smooth="yes"/>
      <point x="203" y="165"/>
      <point x="198" y="194"/>
      <point x="198" y="273" type="curve" smooth="yes"/>
      <point x="198" y="667" type="line"/>
    </contour>
    <contour>
      <point x="242" y="865" type="curve" smooth="yes"/>
      <point x="206" y="865"/>
      <point x="179" y="838" name="hr01"/>
      <point x="179" y="804" type="curve" smooth="yes"/>
      <point x="179" y="768"/>
      <point x="206" y="741"/>
      <point x="241" y="741" type="curve" smooth="yes"/>
      <point x="276" y="741"/>
      <point x="303" y="768"/>
      <point x="303" y="803" type="curve" smooth="yes"/>
      <point x="303" y="838"/>
      <point x="276" y="865"/>
    </contour>
    <contour>
      <point x="457" y="865" type="curve" smooth="yes"/>
      <point x="422" y="865"/>
      <point x="395" y="838"/>
      <point x="395" y="804" type="curve" smooth="yes"/>
      <point x="395" y="768"/>
      <point x="421" y="741"/>
      <point x="456" y="741" type="curve" smooth="yes"/>
      <point x="491" y="741"/>
      <point x="519" y="768"/>
      <point x="519" y="803" type="curve" smooth="yes"/>
      <point x="519" y="838"/>
      <point x="492" y="865"/>
    </contour>
  </outline>
</glyph>
<glyph name="Thorn" format="2">
  <advance width="531"/>
  <unicode hex="00DE"/>
  <outline>
    <contour>
      <point x="81" y="0" type="line"/>
      <point x="200" y="0" type="line"/>
      <point x="200" y="193" type="line"/>
      <point x="262" y="193" type="line" smooth="yes"/>
      <point x="315" y="193"/>
      <point x="378" y="204"/>
      <point x="411" y="220" type="curve" smooth="yes"/>
      <point x="482" y="254"/>
      <point x="522" y="318"/>
      <point x="522" y="400" type="curve" smooth="yes"/>
      <point x="522" y="473"/>
      <point x="493" y="527"/>
      <point x="440" y="556" type="curve" smooth="yes"/>
      <point x="403" y="576"/>
      <point x="349" y="586"/>
      <point x="275" y="586" type="curve" smooth="yes"/>
      <point x="200" y="586" type="line"/>
      <point x="200" y="667" type="line"/>
      <point x="81" y="667" type="line"/>
    </contour>
    <contour>
      <point x="200" y="288" type="line"/>
      <point x="200" y="492" type="line"/>
      <point x="272" y="492" type="line" smooth="yes"/>
      <point x="359" y="492"/>
      <point x="395" y="464"/>
      <point x="395" y="395" type="curve" smooth="yes"/>
      <point x="395" y="322"/>
      <point x="351" y="288"/>
      <point x="256" y="288" type="curve" smooth="yes"/>
    </contour>
  </outline>
</glyph>
<glyph name="germandbls" format="2">
  <advance width="544"/>
  <unicode hex="00DF"/>
  <outline>
    <contour>
      <point x="70" y="0" type="line"/>
      <point x="182" y="0" type="line"/>
      <point x="182" y="495" type="line" smooth="yes"/>
      <point x="182" y="574"/>
      <point x="211" y="614"/>
      <point x="268" y="614" type="curve" smooth="yes"/>
      <point x="310" y="614"/>
      <point x="336" y="589"/>
      <point x="336" y="550" type="curve" smooth="yes"/>
      <point x="336" y="526"/>
      <point x="328" y="505"/>
      <point x="305" y="463" type="curve" smooth="yes"/>
      <point x="280" y="419"/>
      <point x="272" y="399" name="hr01"/>
      <point x="272" y="379" type="curve" smooth="yes"/>
      <point x="272" y="357"/>
      <point x="285" y="332"/>
      <point x="310" y="306" type="curve" smooth="yes"/>
      <point x="362" y="249"/>
      <point x="362" y="249"/>
      <point x="374" y="232" type="curve" smooth="yes"/>
      <point x="388" y="212"/>
      <point x="396" y="187"/>
      <point x="396" y="166" type="curve" smooth="yes"/>
      <point x="396" y="118"/>
      <point x="364" y="83"/>
      <point x="320" y="83" type="curve" smooth="yes"/>
      <point x="294" y="83"/>
      <point x="276" y="90"/>
      <point x="248" y="111" type="curve"/>
      <point x="225" y="14" type="line"/>
      <point x="264" y="-4"/>
      <point x="295" y="-11"/>
      <point x="334" y="-11" type="curve" smooth="yes"/>
      <point x="440" y="-11"/>
      <point x="520" y="65"/>
      <point x="520" y="165" type="curve" smooth="yes"/>
      <point x="520" y="224"/>
      <point x="501" y="257"/>
      <point x="421" y="343" type="curve" smooth="yes"/>
      <point x="394" y="371"/>
      <point x="384" y="389"/>
      <point x="384" y="407" type="curve" smooth="yes"/>
      <point x="384" y="419"/>
      <point x="388" y="432"/>
      <point x="399" y="454" type="curve" smooth="yes"/>
      <point x="426" y="510"/>
      <point x="432" y="529" name="hr02"/>
      <point x="432" y="565" type="curve" smooth="yes"/>
      <point x="432" y="649"/>
      <point x="369" y="702"/>
      <point x="267" y="702" type="curve" smooth="yes"/>
      <point x="141" y="702"/>
      <point x="70" y="629"/>
      <point x="70" y="500" type="curve" smooth="yes"/>
      <point x="70" y="448" type="line"/>
      <point x="6" y="448" type="line"/>
      <point x="6" y="358" type="line"/>
      <point x="70" y="358" type="line" name="hr04"/>
    </contour>
  </outline>
</glyph>
<glyph name="agrave" format="2">
  <advance width="561"/>
  <unicode hex="00E0"/>
  <outline>
    <contour>
      <point x="493" y="448" type="line"/>
      <point x="382" y="448" type="line"/>
      <point x="382" y="394" type="line"/>
      <point x="340" y="443"/>
      <point x="309" y="459"/>
      <point x="252" y="459" type="curve" smooth="yes"/>
      <point x="125" y="459"/>
      <point x="42" y="366"/>
      <point x="42" y="223" type="curve" smooth="yes"/>
      <point x="42" y="151"/>
      <point x="61" y="94"/>
      <point x="99" y="52" type="curve" smooth="yes"/>
      <point x="135" y="12"/>
      <point x="188" y="-11"/>
      <point x="242" y="-11" type="curve" smooth="yes"/>
      <point x="300" y="-11"/>
      <point x="342" y="8"/>
      <point x="382" y="51" type="curve"/>
      <point x="382" y="0" type="line"/>
      <point x="493" y="0" type="line"/>
    </contour>
    <contour>
      <point x="273" y="373" type="curve" smooth="yes"/>
      <point x="341" y="373"/>
      <point x="385" y="314" name="hr02"/>
      <point x="385" y="224" type="curve" smooth="yes"/>
      <point x="385" y="133"/>
      <point x="341" y="75"/>
      <point x="273" y="75" type="curve" smooth="yes"/>
      <point x="204" y="75"/>
      <point x="161" y="133"/>
      <point x="161" y="225" type="curve" smooth="yes"/>
      <point x="161" y="314"/>
      <point x="206" y="373"/>
    </contour>
    <contour>
      <point x="202" y="706" type="line"/>
      <point x="104" y="675" type="line"/>
      <point x="303" y="526" type="line"/>
      <point x="347" y="535" type="line"/>
    </contour>
  </outline>
</glyph>
<glyph name="aacute" format="2">
  <advance width="561"/>
  <unicode hex="00E1"/>
  <outline>
    <contour>
      <point x="493" y="448" type="line"/>
      <point x="382" y="448" type="line"/>
      <point x="382" y="394" type="line"/>
      <point x="340" y="443"/>
      <point x="309" y="459"/>
      <point x="252" y="459" type="curve" smooth="yes"/>
      <point x="125" y="459"/>
      <point x="42" y="366"/>
      <point x="42" y="223" type="curve" smooth="yes"/>
      <point x="42" y="151"/>
      <point x="61" y="94"/>
      <point x="99" y="52" type="curve" smooth="yes"/>
      <point x="135" y="12"/>
      <point x="188" y="-11"/>
      <point x="242" y="-11" type="curve" smooth="yes"/>
      <point x="300" y="-11"/>
      <point x="342" y="8"/>
      <point x="382" y="51" type="curve"/>
      <point x="382" y="0" type="line"/>
      <point x="493" y="0" type="line"/>
    </contour>
    <contour>
      <point x="273" y="373" type="curve" smooth="yes"/>
      <point x="341" y="373"/>
      <point x="385" y="314" name="hr02"/>
      <point x="385" y="224" type="curve" smooth="yes"/>
      <point x="385" y="133"/>
      <point x="341" y="75"/>
      <point x="273" y="75" type="curve" smooth="yes"/>
      <point x="204" y="75"/>
      <point x="161" y="133"/>
      <point x="161" y="225" type="curve" smooth="yes"/>
      <point x="161" y="314"/>
      <point x="206" y="373"/>
    </contour>
    <contour>
      <point x="356" y="704" type="line"/>
      <point x="213" y="535" type="line"/>
      <point x="258" y="527" type="line"/>
      <point x="455" y="678" type="line"/>
    </contour>
  </outline>
</glyph>
<glyph name="acircumflex" format="2">
  <advance width="561"/>
  <unicode hex="00E2"/>
  <outline>
    <contour>
      <point x="493" y="448" type="line"/>
      <point x="382" y="448" type="line"/>
      <point x="382" y="394" type="line"/>
      <point x="340" y="443"/>
      <point x="309" y="459"/>
      <point x="252" y="459" type="curve" smooth="yes"/>
      <point x="125" y="459"/>
      <point x="42" y="366"/>
      <point x="42" y="223" type="curve" smooth="yes"/>
      <point x="42" y="151"/>
      <point x="61" y="94"/>
      <point x="99" y="52" type="curve" smooth="yes"/>
      <point x="135" y="12"/>
      <point x="188" y="-11"/>
      <point x="242" y="-11" type="curve" smooth="yes"/>
      <point x="300" y="-11"/>
      <point x="342" y="8"/>
      <point x="382" y="51" type="curve"/>
      <point x="382" y="0" type="line"/>
      <point x="493" y="0" type="line"/>
    </contour>
    <contour>
      <point x="273" y="373" type="curve" smooth="yes"/>
      <point x="341" y="373"/>
      <point x="385" y="314" name="hr02"/>
      <point x="385" y="224" type="curve" smooth="yes"/>
      <point x="385" y="133"/>
      <point x="341" y="75"/>
      <point x="273" y="75" type="curve" smooth="yes"/>
      <point x="204" y="75"/>
      <point x="161" y="133"/>
      <point x="161" y="225" type="curve" smooth="yes"/>
      <point x="161" y="314"/>
      <point x="206" y="373"/>
    </contour>
    <contour>
      <point x="315" y="700" type="line"/>
      <point x="249" y="700" type="line"/>
      <point x="115" y="537" type="line"/>
      <point x="155" y="527" type="line"/>
      <point x="282" y="639" type="line"/>
      <point x="410" y="529" type="line"/>
      <point x="448" y="540" type="line"/>
    </contour>
  </outline>
</glyph>
<glyph name="atilde" format="2">
  <advance width="561"/>
  <unicode hex="00E3"/>
  <outline>
    <contour>
      <point x="493" y="448" type="line"/>
      <point x="382" y="448" type="line"/>
      <point x="382" y="394" type="line"/>
      <point x="340" y="443"/>
      <point x="309" y="459"/>
      <point x="252" y="459" type="curve" smooth="yes"/>
      <point x="125" y="459"/>
      <point x="42" y="366"/>
      <point x="42" y="223" type="curve" smooth="yes"/>
      <point x="42" y="151"/>
      <point x="61" y="94"/>
      <point x="99" y="52" type="curve" smooth="yes"/>
      <point x="135" y="12"/>
      <point x="188" y="-11"/>
      <point x="242" y="-11" type="curve" smooth="yes"/>
      <point x="300" y="-11"/>
      <point x="342" y="8"/>
      <point x="382" y="51" type="curve"/>
      <point x="382" y="0" type="line"/>
      <point x="493" y="0" type="line"/>
    </contour>
    <contour>
      <point x="273" y="373" type="curve" smooth="yes"/>
      <point x="341" y="373"/>
      <point x="385" y="314" name="hr02"/>
      <point x="385" y="224" type="curve" smooth="yes"/>
      <point x="385" y="133"/>
      <point x="341" y="75"/>
      <point x="273" y="75" type="curve" smooth="yes"/>
      <point x="204" y="75"/>
      <point x="161" y="133"/>
      <point x="161" y="225" type="curve" smooth="yes"/>
      <point x="161" y="314"/>
      <point x="206" y="373"/>
    </contour>
    <contour>
      <point x="421" y="661" type="line"/>
      <point x="398" y="631"/>
      <point x="379" y="619"/>
      <point x="355" y="619" type="curve" smooth="yes"/>
      <point x="344" y="619"/>
      <point x="338" y="621"/>
      <point x="325" y="627" type="curve" smooth="yes"/>
      <point x="263" y="659"/>
      <point x="247" y="665"/>
      <point x="225" y="665" type="curve" smooth="yes"/>
      <point x="191" y="665"/>
      <point x="184" y="659"/>
      <point x="120" y="580" type="curve"/>
      <point x="141" y="563" type="line"/>
      <point x="174" y="599"/>
      <point x="186" y="608"/>
      <point x="206" y="608" type="curve" smooth="yes"/>
      <point x="219" y="608"/>
      <point x="241" y="603"/>
      <point x="252" y="597" type="curve" smooth="yes"/>
      <point x="308" y="568"/>
      <point x="329" y="559"/>
      <point x="345" y="559" type="curve" smooth="yes"/>
      <point x="375" y="559"/>
      <point x="395" y="576"/>
      <point x="442" y="642" type="curve"/>
    </contour>
  </outline>
</glyph>
<glyph name="adieresis" format="2">
  <advance width="561"/>
  <unicode hex="00E4"/>
  <outline>
    <contour>
      <point x="493" y="448" type="line"/>
      <point x="382" y="448" type="line"/>
      <point x="382" y="394" type="line"/>
      <point x="340" y="443"/>
      <point x="309" y="459"/>
      <point x="252" y="459" type="curve" smooth="yes"/>
      <point x="125" y="459"/>
      <point x="42" y="366"/>
      <point x="42" y="223" type="curve" smooth="yes"/>
      <point x="42" y="151"/>
      <point x="61" y="94"/>
      <point x="99" y="52" type="curve" smooth="yes"/>
      <point x="135" y="12"/>
      <point x="188" y="-11"/>
      <point x="242" y="-11" type="curve" smooth="yes"/>
      <point x="300" y="-11"/>
      <point x="342" y="8"/>
      <point x="382" y="51" type="curve"/>
      <point x="382" y="0" type="line"/>
      <point x="493" y="0" type="line"/>
    </contour>
    <contour>
      <point x="273" y="373" type="curve" smooth="yes"/>
      <point x="341" y="373"/>
      <point x="385" y="314" name="hr02"/>
      <point x="385" y="224" type="curve" smooth="yes"/>
      <point x="385" y="133"/>
      <point x="341" y="75"/>
      <point x="273" y="75" type="curve" smooth="yes"/>
      <point x="204" y="75"/>
      <point x="161" y="133"/>
      <point x="161" y="225" type="curve" smooth="yes"/>
      <point x="161" y="314"/>
      <point x="206" y="373"/>
    </contour>
    <contour>
      <point x="184" y="672" type="curve" smooth="yes"/>
      <point x="148" y="672"/>
      <point x="121" y="645"/>
      <point x="121" y="611" type="curve" smooth="yes"/>
      <point x="121" y="575"/>
      <point x="148" y="548"/>
      <point x="183" y="548" type="curve" smooth="yes"/>
      <point x="218" y="548"/>
      <point x="245" y="575"/>
      <point x="245" y="610" type="curve" smooth="yes"/>
      <point x="245" y="645"/>
      <point x="218" y="672"/>
    </contour>
    <contour>
      <point x="379" y="672" type="curve" smooth="yes"/>
      <point x="344" y="672"/>
      <point x="317" y="645"/>
      <point x="317" y="611" type="curve" smooth="yes"/>
      <point x="317" y="575"/>
      <point x="343" y="548"/>
      <point x="378" y="548" type="curve" smooth="yes"/>
      <point x="413" y="548"/>
      <point x="441" y="575"/>
      <point x="441" y="610" type="curve" smooth="yes"/>
      <point x="441" y="645"/>
      <point x="414" y="672"/>
    </contour>
  </outline>
</glyph>
<glyph name="aring" format="2">
  <advance width="561"/>
  <unicode hex="00E5"/>
  <outline>
    <contour>
      <point x="493" y="448" type="line" name="hr02"/>
      <point x="382" y="448" type="line"/>
      <point x="382" y="394" type="line"/>
      <point x="340" y="443"/>
      <point x="309" y="459" name="hr01"/>
      <point x="252" y="459" type="curve" smooth="yes"/>
      <point x="125" y="459"/>
      <point x="42" y="366"/>
      <point x="42" y="223" type="curve" smooth="yes"/>
      <point x="42" y="151"/>
      <point x="61" y="94"/>
      <point x="99" y="52" type="curve" smooth="yes"/>
      <point x="135" y="12"/>
      <point x="188" y="-11"/>
      <point x="242" y="-11" type="curve" smooth="yes"/>
      <point x="300" y="-11"/>
      <point x="342" y="8"/>
      <point x="382" y="51" type="curve"/>
      <point x="382" y="0" type="line"/>
      <point x="493" y="0" type="line"/>
    </contour>
    <contour>
      <point x="273" y="373" type="curve" smooth="yes" name="hr03"/>
      <point x="341" y="373"/>
      <point x="385" y="314"/>
      <point x="385" y="224" type="curve" smooth="yes"/>
      <point x="385" y="133"/>
      <point x="341" y="75"/>
      <point x="273" y="75" type="curve" smooth="yes"/>
      <point x="204" y="75"/>
      <point x="161" y="133"/>
      <point x="161" y="225" type="curve" smooth="yes"/>
      <point x="161" y="314"/>
      <point x="206" y="373"/>
    </contour>
    <contour>
      <point x="281" y="713" type="curve" smooth="yes"/>
      <point x="218" y="713"/>
      <point x="171" y="671"/>
      <point x="171" y="615" type="curve" smooth="yes"/>
      <point x="171" y="557"/>
      <point x="217" y="515"/>
      <point x="281" y="515" type="curve" smooth="yes"/>
      <point x="344" y="515"/>
      <point x="390" y="557"/>
      <point x="390" y="614" type="curve" smooth="yes"/>
      <point x="390" y="671"/>
      <point x="344" y="713"/>
    </contour>
    <contour>
      <point x="281" y="670" type="curve" smooth="yes"/>
      <point x="314" y="670"/>
      <point x="339" y="645"/>
      <point x="339" y="614" type="curve" smooth="yes"/>
      <point x="339" y="583"/>
      <point x="314" y="558"/>
      <point x="282" y="558" type="curve" smooth="yes"/>
      <point x="249" y="558"/>
      <point x="224" y="582"/>
      <point x="224" y="615" type="curve" smooth="yes"/>
      <point x="224" y="645"/>
      <point x="249" y="670"/>
    </contour>
  </outline>
</glyph>
<glyph name="ae" format="2">
  <advance width="744"/>
  <unicode hex="00E6"/>
  <outline>
    <contour>
      <point x="698" y="202" type="line"/>
      <point x="698" y="282"/>
      <point x="692" y="323"/>
      <point x="673" y="363" type="curve" smooth="yes"/>
      <point x="644" y="426"/>
      <point x="585" y="459"/>
      <point x="503" y="459" type="curve" smooth="yes"/>
      <point x="446" y="459"/>
      <point x="408" y="444"/>
      <point x="364" y="405" type="curve"/>
      <point x="326" y="445"/>
      <point x="293" y="459"/>
      <point x="232" y="459" type="curve" smooth="yes"/>
      <point x="187" y="459"/>
      <point x="145" y="448"/>
      <point x="115" y="427" type="curve" smooth="yes"/>
      <point x="87" y="408"/>
      <point x="72" y="387" name="hr01"/>
      <point x="56" y="343" type="curve"/>
      <point x="155" y="312" type="line"/>
      <point x="167" y="360"/>
      <point x="190" y="380" name="hr02"/>
      <point x="231" y="380" type="curve" smooth="yes"/>
      <point x="269" y="380"/>
      <point x="294" y="360"/>
      <point x="294" y="329" type="curve" smooth="yes"/>
      <point x="294" y="295"/>
      <point x="276" y="281"/>
      <point x="206" y="262" type="curve" smooth="yes"/>
      <point x="140" y="243"/>
      <point x="107" y="230"/>
      <point x="82" y="213" type="curve" smooth="yes"/>
      <point x="49" y="191"/>
      <point x="33" y="158"/>
      <point x="33" y="114" type="curve" smooth="yes"/>
      <point x="33" y="39"/>
      <point x="87" y="-11"/>
      <point x="168" y="-11" type="curve" smooth="yes"/>
      <point x="237" y="-11"/>
      <point x="278" y="9"/>
      <point x="331" y="68" type="curve"/>
      <point x="375" y="10"/>
      <point x="420" y="-11"/>
      <point x="498" y="-11" type="curve" smooth="yes"/>
      <point x="546" y="-11"/>
      <point x="592" y="1"/>
      <point x="628" y="22" type="curve" smooth="yes"/>
      <point x="657" y="39"/>
      <point x="673" y="58"/>
      <point x="697" y="101" type="curve"/>
      <point x="599" y="137" type="line"/>
      <point x="571" y="81"/>
      <point x="547" y="64"/>
      <point x="500" y="64" type="curve" smooth="yes"/>
      <point x="463" y="64"/>
      <point x="433" y="80"/>
      <point x="416" y="110" type="curve" smooth="yes"/>
      <point x="403" y="132"/>
      <point x="399" y="155"/>
      <point x="398" y="202" type="curve"/>
    </contour>
    <contour>
      <point x="401" y="273" type="line"/>
      <point x="408" y="350"/>
      <point x="440" y="387" name="hr03"/>
      <point x="500" y="387" type="curve" smooth="yes"/>
      <point x="560" y="387"/>
      <point x="591" y="350"/>
      <point x="595" y="273" type="curve"/>
    </contour>
    <contour>
      <point x="298" y="228" type="curve"/>
      <point x="298" y="181"/>
      <point x="295" y="144"/>
      <point x="289" y="127" type="curve" smooth="yes"/>
      <point x="277" y="93"/>
      <point x="246" y="72"/>
      <point x="209" y="72" type="curve" smooth="yes"/>
      <point x="170" y="72"/>
      <point x="144" y="96"/>
      <point x="144" y="132" type="curve" smooth="yes"/>
      <point x="144" y="166"/>
      <point x="168" y="187"/>
      <point x="224" y="204" type="curve" smooth="yes"/>
      <point x="267" y="216"/>
      <point x="270" y="217"/>
    </contour>
  </outline>
</glyph>
<glyph name="ccedilla" format="2">
  <advance width="472"/>
  <unicode hex="00E7"/>
  <outline>
    <contour>
      <point x="458" y="323" type="line"/>
      <point x="449" y="368"/>
      <point x="438" y="390"/>
      <point x="414" y="412" type="curve" smooth="yes"/>
      <point x="381" y="443"/>
      <point x="330" y="459"/>
      <point x="269" y="459" type="curve" smooth="yes"/>
      <point x="128" y="459"/>
      <point x="42" y="370"/>
      <point x="42" y="223" type="curve" smooth="yes"/>
      <point x="42" y="79"/>
      <point x="127" y="-11"/>
      <point x="263" y="-11" type="curve" smooth="yes"/>
      <point x="317" y="-11"/>
      <point x="363" y="2"/>
      <point x="399" y="26" type="curve" smooth="yes"/>
      <point x="429" y="47"/>
      <point x="444" y="71"/>
      <point x="461" y="122" type="curve"/>
      <point x="354" y="151" type="line"/>
      <point x="337" y="90"/>
      <point x="315" y="69"/>
      <point x="268" y="69" type="curve" smooth="yes"/>
      <point x="202" y="69"/>
      <point x="161" y="128"/>
      <point x="161" y="222" type="curve" smooth="yes"/>
      <point x="161" y="320"/>
      <point x="204" y="380"/>
      <point x="275" y="380" type="curve" smooth="yes"/>
      <point x="327" y="380"/>
      <point x="352" y="351"/>
      <point x="355" y="288" type="curve"/>
    </contour>
    <contour>
      <point x="195" y="-68" type="line"/>
      <point x="220" y="-87"/>
      <point x="231" y="-102" name="hr02"/>
      <point x="231" y="-120" type="curve" smooth="yes"/>
      <point x="231" y="-149"/>
      <point x="216" y="-165"/>
      <point x="172" y="-181" type="curve"/>
      <point x="202" y="-202" type="line"/>
      <point x="249" y="-181"/>
      <point x="262" y="-173"/>
      <point x="276" y="-158" type="curve" smooth="yes"/>
      <point x="294" y="-139"/>
      <point x="305" y="-114"/>
      <point x="305" y="-94" type="curve" smooth="yes"/>
      <point x="305" y="-67"/>
      <point x="296" y="-49"/>
      <point x="265" y="-18" type="curve"/>
    </contour>
  </outline>
</glyph>
<glyph name="egrave" format="2">
  <advance width="505"/>
  <unicode hex="00E8"/>
  <outline>
    <contour>
      <point x="464" y="201" type="line"/>
      <point x="464" y="275"/>
      <point x="462" y="291"/>
      <point x="452" y="329" type="curve" smooth="yes"/>
      <point x="429" y="415"/>
      <point x="366" y="459"/>
      <point x="266" y="459" type="curve" smooth="yes"/>
      <point x="127" y="459"/>
      <point x="42" y="369"/>
      <point x="42" y="223" type="curve" smooth="yes"/>
      <point x="42" y="77"/>
      <point x="125" y="-11"/>
      <point x="265" y="-11" type="curve" smooth="yes"/>
      <point x="321" y="-11"/>
      <point x="370" y="4"/>
      <point x="403" y="31" type="curve" smooth="yes"/>
      <point x="422" y="47"/>
      <point x="435" y="63"/>
      <point x="458" y="104" type="curve"/>
      <point x="359" y="138" type="line"/>
      <point x="336" y="85"/>
      <point x="312" y="66"/>
      <point x="269" y="66" type="curve" smooth="yes"/>
      <point x="201" y="66"/>
      <point x="164" y="111"/>
      <point x="159" y="201" type="curve"/>
    </contour>
    <contour>
      <point x="162" y="273" type="line"/>
      <point x="168" y="347"/>
      <point x="203" y="386"/>
      <point x="262" y="386" type="curve" smooth="yes"/>
      <point x="325" y="386"/>
      <point x="351" y="353"/>
      <point x="354" y="273" type="curve"/>
    </contour>
    <contour>
      <point x="188" y="706" type="line"/>
      <point x="90" y="675" type="line"/>
      <point x="289" y="526" type="line"/>
      <point x="333" y="535" type="line"/>
    </contour>
  </outline>
</glyph>
